<?xml version="1.0" encoding="UTF-8" standalone="no"?>
<!-- Created with Inkscape (http://www.inkscape.org/) -->

<svg
   xmlns:dc="http://purl.org/dc/elements/1.1/"
   xmlns:cc="http://creativecommons.org/ns#"
   xmlns:rdf="http://www.w3.org/1999/02/22-rdf-syntax-ns#"
   xmlns:svg="http://www.w3.org/2000/svg"
   xmlns="http://www.w3.org/2000/svg"
   xmlns:sodipodi="http://sodipodi.sourceforge.net/DTD/sodipodi-0.dtd"
   xmlns:inkscape="http://www.inkscape.org/namespaces/inkscape"
   width="230.8503"
   height="43.511383"
   id="svg3706"
   version="1.1"
   inkscape:version="0.48.1 r9760"
   sodipodi:docname="New document 4">
  <defs
     id="defs3708" />
  <sodipodi:namedview
     id="base"
     pagecolor="#ffffff"
     bordercolor="#666666"
     borderopacity="1.0"
     inkscape:pageopacity="0.0"
     inkscape:pageshadow="2"
     inkscape:zoom="1.979899"
     inkscape:cx="163.77595"
     inkscape:cy="-14.037276"
     inkscape:document-units="px"
     inkscape:current-layer="layer1"
     showgrid="false"
     fit-margin-top="0"
     fit-margin-left="0"
     fit-margin-right="0"
     fit-margin-bottom="0"
     inkscape:window-width="1024"
     inkscape:window-height="719"
     inkscape:window-x="-4"
     inkscape:window-y="-4"
     inkscape:window-maximized="1" />
  <metadata
     id="metadata3711">
    <rdf:RDF>
      <cc:Work
         rdf:about="">
        <dc:format>image/svg+xml</dc:format>
        <dc:type
           rdf:resource="http://purl.org/dc/dcmitype/StillImage" />
        <dc:title></dc:title>
      </cc:Work>
    </rdf:RDF>
  </metadata>
  <g
     inkscape:label="Layer 1"
     inkscape:groupmode="layer"
     id="layer1"
     transform="translate(-279.29593,-293.46363)">
    <path
       inkscape:connector-curvature="0"
       d="m 447.00407,332.92127 0,0.225 0.15,0.15 0,0.15 0.075,0.075 0.075,0.075 0.075,0.075 0.075,0.075 0.075,0 0.15,0.15 0.15,0.075 0.075,0 0,0.075 0.15,0 0,0.15 c -0.925,0 -1.85,0 -2.775,0 l 0,-0.15 0.075,0 0,-0.075 0.075,0 0.075,-0.075 0.075,0 0.075,-0.15 0.075,0 0.075,-0.075 0,-0.075 0.075,-0.075 0,-0.225 c 0,-0.725 0,-1.45 0,-2.175 l -0.225,0 -0.075,-0.075 -2.475,0 -0.075,0.075 -0.225,0 0,0.075 -0.075,0 0,2.1 0.075,0.15 0.075,0.075 0.075,0.075 0.075,0.075 0.075,0.075 0.15,0 0.225,0.15 0.15,0.075 0.15,0 0,0.075 0.075,0.075 -0.075,0.075 -0.3,0 c -0.325,0 -0.65,0 -0.975,0 -0.55,0 -1.1,0 -1.65,0 l 0,-0.225 0.075,0 0,-0.075 0.15,0 0.075,-0.15 0.075,-0.075 0.075,0 0.15,-0.075 0.075,-0.075 0,-0.15 0.075,-0.075 0,-4.575 -0.075,-0.15 0,-0.075 -0.075,-0.15 -0.15,0 -0.075,-0.075 -0.075,-0.075 -0.225,0 -0.15,-0.075 -0.15,0 0,-0.3 0.15,0 0.075,-0.075 0.225,0 0.15,0.075 0.525,0 c 0.325,0 0.65,0 0.975,0 l 0.225,0 0.15,-0.075 0.075,0 0.075,0.075 0.15,0 0,0.3 -0.225,0 -0.15,0.075 -0.075,0 0,0.075 -0.075,0 -0.075,0.075 0,0.075 -0.075,0.075 0,1.95 0.075,0.075 3,0 0,-0.075 0.075,0 c 0,-0.625 0,-1.25 0,-1.875 l -0.075,-0.075 0,-0.15 -0.075,-0.075 -0.075,0 -0.075,-0.075 -0.15,0 -0.15,-0.075 -0.225,0 -0.075,-0.15 -0.075,0 0,-0.15 0.075,0 0,-0.075 c 0.475,0.015 0.595,0.12125 1.2,0.075 0.25,0 0.5,0 0.75,0 0.54875,0.04 0.19375,-0.1075 0.675,-0.075 l 0,0.075 0.075,0 0,0.15 -0.075,0.15 -0.075,0 -0.15,0.075 -0.075,0 -0.075,0.075 -0.075,0.075 0,0.15 -0.15,0.075 0,4.35"
       style="fill:#1f1a17;fill-opacity:1;fill-rule:evenodd;stroke:none"
       id="path3158" />
    <path
       inkscape:connector-curvature="0"
       d="m 450.30407,330.67127 c 0.006,-0.78375 -0.0662,-0.60625 0.225,-1.35 l 0.075,-0.15 0.075,-0.3 0.075,-0.15 0.225,-0.15 0.15,-0.075 0.15,-0.15 c 1.12125,-0.42625 1.96375,-0.185 2.7,0.75 0.6025,0.79125 0.33125,0.8875 0.525,1.65 0.0163,0.54375 0.006,1.38625 -0.225,1.875 l -0.075,0.3 -0.075,0.15 -0.3,0.3 -0.225,0.15 -0.15,0.075 c -0.5775,0.30125 -0.79875,0.32125 -1.425,0.3 l -0.075,-0.15 -0.225,0 -0.075,-0.075 -0.15,-0.075 -0.075,-0.075 -0.225,-0.15 -0.15,-0.15 -0.075,-0.15 -0.225,-0.3 -0.15,-0.225 -0.075,-0.225 -0.15,-0.6 0,-0.225 -0.075,-0.225 0,-0.6 z m -1.125,0.6 c -0.0337,2.17625 1.815,3.33125 3.825,2.925 l 0.15,0 0.225,-0.075 0.225,-0.075 0.225,-0.075 0.15,-0.075 0.15,-0.15 0.15,-0.075 0.15,-0.075 0.075,-0.15 c 0.575,-0.13 0.37625,-0.30625 0.675,-0.75 l 0.15,-0.225 0.075,-0.3 0.075,-0.375 0.15,-0.225 0,-0.3 c 0.31375,-0.89375 -0.265,-1.7925 -0.675,-2.55 -0.8575,-0.77625 -1.58875,-1.0975 -2.775,-0.975 l -0.45,0 -0.15,0.075 -0.15,0.075 -0.225,0 -0.075,0.075 -0.15,0.15 -0.225,0.075 -0.15,0.075 -0.075,0.075 c -1.02,0.55625 -1.385,1.82625 -1.35,2.925"
       style="fill:#1f1a17;fill-opacity:1;fill-rule:evenodd;stroke:none"
       id="path3160" />
    <path
       inkscape:connector-curvature="0"
       d="m 457.72907,329.54627 c -0.0213,-0.37875 0.0862,-0.98 -0.375,-1.125 l -0.075,-0.075 -0.075,-0.075 -0.15,-0.075 -0.15,0 -0.075,-0.075 -0.075,0 0,-0.3 0.075,0 0,-0.075 0.075,0 0.075,0.075 0.525,0 c 0.62875,0.045 0.50875,-0.0975 0.975,-0.075 l 0,0.075 0.075,0 0.075,0.075 0,0.075 0.075,0.15 3.675,3.9 0,0.075 0.075,0.075 0.075,0 0,0.075 0.15,0 0,-3.6 -0.075,-0.075 -0.075,-0.075 -0.075,-0.075 -0.075,-0.075 -0.075,-0.075 -0.225,0 -0.15,-0.075 -0.15,-0.075 -0.15,0 0,-0.15 -0.075,0 0,-0.075 0.075,0 0,-0.075 0.075,0 0,-0.075 0.075,0 0.075,0.075 0.675,0 c 0.375,0 0.75,0 1.125,0 l 0,-0.075 0.075,0 0.075,0.075 0.075,0 0,0.15 -0.075,0 0,0.15 -0.15,0 -0.15,0.075 -0.075,0 -0.075,0.075 0,0.075 -0.075,0.075 -0.075,0.075 0,5.625 -0.15,0.075 0,0.075 -0.15,0 -0.075,-0.075 -0.075,0 0,-0.075 -4.275,-4.65 -0.15,-0.075 -0.075,-0.075 -0.075,0 c 0.03,0.82375 -0.20125,3.04125 0.15,4.125 0.28375,0.3675 0.695,0.3825 1.05,0.6 l 0,0.15 c -0.825,0 -1.65,0 -2.475,0 l 0,-0.225 0.075,0 0,-0.075 0.15,-0.15 0.15,0 0.075,-0.075 0.15,-0.075 0.075,-0.075 0.075,-0.075 0,-0.075 0.075,-0.075 0,-3.75"
       style="fill:#1f1a17;fill-opacity:1;fill-rule:evenodd;stroke:none"
       id="path3162" />
    <path
       inkscape:connector-curvature="0"
       d="m 471.15407,329.84627 0,0.225 -0.15,0 -0.075,0.075 0,-0.075 -0.075,0 0,-0.3 -0.15,-0.3 -0.15,-0.15 c -0.33,-0.3775 -0.025,-0.44625 -0.6,-0.75 l -0.075,-0.075 -0.075,-0.075 -0.225,-0.075 -0.15,0 -0.15,-0.075 -0.15,-0.075 -0.3,0 -0.3,-0.075 -0.15,0 c -2.0775,0.1075 -2.23125,2.1875 -1.95,3.825 0.12375,0.71875 0.7875,1.63625 1.5,1.8 0.69625,-0.0412 1.165,0.15375 1.725,-0.225 l 0.15,-0.075 0.075,-0.075 0.075,-0.075 0.075,-0.075 0,-0.15 c 0.0312,-0.28875 0.17625,-0.64 0,-0.975 l 0,-0.15 -0.075,-0.15 -0.075,-0.075 -0.075,-0.075 -0.225,-0.075 -0.225,0 -0.15,-0.075 -0.15,0 0,-0.225 0.075,0 0,-0.075 0.225,0 0.075,0.075 0.15,0 c 0.275,0 0.55,0 0.825,0 0.475,0 0.95,0 1.425,0 l 0,0.15 -0.075,0 0,0.075 -0.225,0.075 -0.15,0 -0.075,0.075 0,0.075 -0.075,0.075 0,0.225 -0.075,0.225 0,0.15 c 0,0.2 0,0.4 0,0.6 l 0,0.075 0.075,0.075 0,0.075 -0.075,0.075 0,0.075 -0.075,0 -0.3,0.15 -0.375,0.15 -0.3,0.225 -0.45,0.15 -0.3,0.075 -0.75,0.15 c -0.9825,0.0238 -1.00625,-0.0125 -1.875,-0.3 -1.34125,-1.05 -1.5325,-1.53125 -1.5,-3.3 0.25875,-1.25625 0.3475,-1.215 1.125,-2.25 l 0.15,-0.075 0.15,-0.075 0.075,-0.075 0.225,-0.075 0.15,-0.15 0.15,-0.075 0.15,-0.075 0.15,0 0.3,-0.075 1.2,0 0.225,0.075 0.3,0.075 0.375,0.075 0.225,0.225 0.225,0.075 0.075,0.075 0.3,0 0.075,-0.075 0,-0.075 0.075,0 0,-0.075 0.15,0 0.075,0.075 0,1.65"
       style="fill:#1f1a17;fill-opacity:1;fill-rule:evenodd;stroke:none"
       id="path3164" />
    <path
       inkscape:connector-curvature="0"
       d="m 479.92907,330.22127 -0.075,0.075 -0.075,0.075 -0.075,0.075 0.075,0.075 0,0.15 0.075,0 0.075,0.075 0,0.075 1.725,2.325 0.15,0.15 0.075,0.15 0.225,0.075 0.075,0.15 0.15,0.075 0.15,0.15 0.15,0.075 0.075,0 0,0.075 0.075,0 0,0.15 c -0.4,0 -0.8,0 -1.2,0 -0.36625,-0.025 -0.31875,0.0887 -0.525,-0.15 l -0.15,-0.075 -1.725,-2.55 -0.15,-0.075 -0.075,-0.075 -0.15,0 -0.075,0.075 -0.075,0 0,0.075 -0.075,0.075 -0.075,0.075 0,0.075 -0.075,0.075 0,1.725 0.075,0.15 0,0.075 0.075,0 0.075,0.075 0.075,0 0.075,0.15 0.15,0 0.225,0.075 0.075,0 0,0.075 0.075,0.075 -0.075,0.075 -0.45,0 c -0.275,0 -0.55,0 -0.825,0 -0.475,0 -0.95,0 -1.425,0 l 0,-0.15 0.075,-0.075 0.15,-0.075 0.075,0 0.075,-0.15 0.075,0 0.075,-0.075 0.075,-0.075 0,-0.15 0.15,-0.15 c 0,-1.55 0,-3.1 0,-4.65 l -0.15,-0.15 -0.075,-0.075 -0.075,-0.075 -0.075,-0.075 -0.075,0 -0.075,-0.075 -0.15,0 -0.15,-0.075 -0.075,0 -0.15,-0.15 0,-0.075 0.15,-0.075 0.075,0 0,-0.075 0.075,0 0.075,0.075 2.025,0 0.075,-0.075 0.15,0 0,0.075 0.15,0 0,0.15 -0.075,0 0,0.15 c -0.20875,-0.035 -0.39375,0.075 -0.525,0.225 0,0.925 0,1.85 0,2.775 l 0.075,0 0,-0.075 0.075,0 0,-0.075 0.075,0 1.2,-1.275 0.075,-0.075 0.225,-0.15 0.15,-0.15 0.225,-0.15 0.15,-0.3 0.15,-0.15 0,-0.15 0.075,-0.075 0.15,-0.075 0,-0.075 -0.15,-0.075 -0.075,-0.075 -0.15,0 -0.075,-0.075 -0.15,0 0,-0.3 0.075,0 0.075,-0.075 0.075,0 0.075,0.075 c 0.25,0 0.5,0 0.75,0 0.175,0 0.35,0 0.525,0 0.56125,0.0262 -0.0362,-0.1025 0.525,-0.075 l 0,0.075 0.075,0 0.075,0.075 0,0.075 -0.075,0.15 -0.075,0 -0.075,0.075 -0.15,0 -0.225,0.15 -0.3,0.15 -0.3,0.225 -1.575,1.5"
       style="fill:#1f1a17;fill-opacity:1;fill-rule:evenodd;stroke:none"
       id="path3166" />
    <path
       inkscape:connector-curvature="0"
       d="m 484.65407,330.67127 c -0.007,-1.23125 0.23625,-0.8825 0.45,-1.8 0.50875,-0.6125 1.04125,-0.71125 1.8,-0.75 0.645,0.215 1.1325,0.34125 1.5,0.975 l 0.075,0.225 0.225,0.225 0.075,0.225 0.075,0.375 c 0.14625,0.3325 0.0487,1.08625 0.075,1.5 -0.0762,1.50125 -0.97875,2.32625 -2.475,2.25 l -0.15,-0.15 -0.075,0 -0.15,-0.075 -0.075,-0.075 -0.15,-0.075 -0.225,-0.15 -0.15,-0.15 -0.15,-0.15 -0.15,-0.3 -0.075,-0.225 -0.15,-0.225 -0.075,-0.3 c 0.0775,-0.73 -0.30375,-0.0838 -0.225,-1.35 z m -1.125,0.6 c -0.0437,0.69625 0.4975,1.9 1.05,2.325 0.845,0.45 0.1675,0.33875 1.425,0.6 l 0.3,0.075 0.825,0 0.225,-0.075 0.3,0 0.225,-0.075 0.15,-0.075 0.15,-0.075 0.15,-0.075 0.15,-0.15 0.225,-0.075 0.15,-0.075 0.15,-0.15 0.075,-0.075 0.15,-0.075 0.15,-0.3 0.225,-0.3 0.15,-0.225 0.075,-0.3 0.075,-0.375 0.075,-0.225 0.075,-0.3 0,-0.825 -0.075,-0.3 c -0.1525,-0.65 -0.14,-0.9075 -0.6,-1.425 -0.78875,-0.74125 -1.7275,-1.12625 -2.85,-0.975 l -0.375,0 -0.15,0.075 -0.15,0.075 -0.225,0 -0.15,0.075 -0.15,0.15 -0.15,0.075 -0.075,0.075 -0.15,0.075 c -0.92,0.57625 -1.4575,1.8425 -1.425,2.925"
       style="fill:#1f1a17;fill-opacity:1;fill-rule:evenodd;stroke:none"
       id="path3168" />
    <path
       inkscape:connector-curvature="0"
       d="m 492.37907,329.54627 c -0.0725,-0.48 -0.19125,-1.39625 -0.9,-1.35 l 0,-0.075 -0.15,0 0,-0.15 -0.075,0 0,-0.075 0.075,0 0,-0.075 0.15,0 0,-0.075 0.075,0 0.075,0.075 0.15,0 c 0.125,0 0.25,0 0.375,0 l 0.525,0 0.075,-0.075 0.225,0 0.075,0.075 0.075,0 0,0.075 0.075,0 0,0.225 3.675,3.9 0.075,0.075 0,0.075 0.15,0 0.075,0.075 0.075,0 0,-3.6 -0.075,-0.075 -0.075,-0.075 -0.15,-0.075 -0.075,-0.075 -0.075,-0.075 -0.075,0 -0.225,-0.075 -0.15,-0.075 -0.15,0 0,-0.3 0.075,0 0.075,-0.075 0.075,0.075 1.8,0 0.075,-0.075 0.075,0.075 0.075,0 0,0.15 -0.075,0.15 -0.15,0 -0.075,0.075 -0.075,0 -0.15,0.075 -0.075,0.075 -0.075,0.075 0,0.075 -0.075,0.15 0,5.55 -0.075,0.075 -0.15,0 0,-0.075 -0.075,0 -0.075,-0.075 -4.35,-4.65 0,-0.075 -0.075,0 0,-0.075 -0.075,0 0,0.075 -0.075,0 0,3.15 0.075,0.225 0,0.3 0.075,0.225 0,0.15 0.15,0.15 0.075,0.075 0.075,0.075 0.15,0 0.225,0.15 0.15,0 0.075,0.075 0.075,0 0,0.075 0.075,0.075 -0.075,0.075 -0.45,0 c -0.25,0 -0.5,0 -0.75,0 -0.4,0 -0.8,0 -1.2,0 l 0,-0.15 0.075,-0.075 0.075,-0.075 0.15,-0.15 0.15,0 c 0.295,-0.2275 -0.0175,-0.21375 0.45,-0.45 l 0,-3.75"
       style="fill:#1f1a17;fill-opacity:1;fill-rule:evenodd;stroke:none"
       id="path3170" />
    <path
       inkscape:connector-curvature="0"
       d="m 505.72907,329.84627 0,0.225 -0.15,0 -0.15,0.075 0,-0.075 -0.075,0 0,-0.225 -0.075,-0.075 0,-0.15 -0.075,-0.15 -0.075,-0.15 c -0.27375,-0.3225 -0.1375,-0.61875 -0.675,-0.75 l -0.075,-0.075 -0.075,-0.075 -0.15,-0.075 -0.15,0 -0.15,-0.075 -0.15,-0.075 -0.375,0 -0.225,-0.075 -0.15,0 c -0.3025,0.0362 -0.62625,0.0738 -0.9,0.225 -0.64375,0.28875 -0.3725,0.045 -0.75,0.75 -0.5575,0.7975 -0.37625,1.945 -0.3,2.85 l 0.075,0.225 0.075,0.225 0.075,0.225 0.15,0.3 0.15,0.15 0.075,0.15 0.3,0.15 0.3,0.3 0.225,0.075 c 0.6925,-0.0462 1.25875,0.15375 1.8,-0.225 0.42125,-0.4175 0.0775,-0.06 0.3,-0.45 l 0,-0.075 0.15,-0.3 0,-0.15 -0.15,-0.225 0,-0.225 c -0.21625,-0.29625 0.14625,-0.2475 -0.375,-0.525 -0.48375,0.03 -0.125,-0.105 -0.6,-0.075 l 0,-0.075 -0.075,0 0.075,-0.075 0,-0.075 0.15,0 0.075,-0.075 0.15,0 0.075,0.075 c 0.3,0 0.6,0 0.9,0 0.45,0 0.9,0 1.35,0 l 0,0.075 0.075,0 -0.075,0.075 0,0.075 -0.075,0 -0.075,0.075 -0.15,0 -0.075,0.075 0,0.075 -0.075,0.075 0,0.15 -0.075,0.075 0,0.225 c 0,0.375 0,0.75 0,1.125 l -0.075,0 -0.375,0.15 -0.3,0.15 -0.3,0.225 -0.45,0.15 -0.3,0.075 -0.45,0.075 -0.3,0.075 c -0.55375,0.02 -1.31875,0.006 -1.8,-0.3 -1.0875,-0.55625 -1.74375,-1.78 -1.65,-3 l 0,-0.3 0.075,-0.3 0.15,-0.3 0.075,-0.375 0.3,-0.45 0.15,-0.375 0.225,-0.225 0.3,-0.225 0.075,-0.075 0.15,-0.075 0.15,-0.075 0.075,-0.075 0.15,-0.15 0.225,-0.075 0.15,-0.075 0.15,0 0.225,-0.075 1.2,0 c 1.285,0.18875 1.09875,0.62375 1.725,0.6 l 0,-0.075 0.075,0 0,-0.075 0.075,0 0,-0.075 0.225,0 0.075,0.075 0,1.65"
       style="fill:#1f1a17;fill-opacity:1;fill-rule:evenodd;stroke:none"
       id="path3172" />
    <path
       inkscape:connector-curvature="0"
       d="m 436.95407,331.12127 c -0.04,-1.99375 0.4825,-2.71875 1.275,-4.425 l 0.075,0 -0.45,0 -0.3,0.225 -0.15,0.375 -0.15,0.225 -0.15,0.225 -0.15,0.375 -0.075,0.225 -0.075,0.225 -0.225,0.225 -0.075,0.375 -0.075,0.225 c 0.009,0.4475 -0.22125,0.67875 -0.15,1.35 -0.0537,0.9925 0.0838,1.52125 0.3,2.475 l 0.225,0.225 0.075,0.225 0.15,0.375 0.075,0.225 0.15,0.225 0.15,0.3 0.15,0.225 0.3,0.3 0.45,0 0,-0.075 -0.225,-0.225 -0.075,-0.225 -0.15,-0.3 -0.15,-0.225 -0.3,-0.6 -0.075,-0.225 c -0.25875,-0.7175 -0.4125,-1.56125 -0.375,-2.325"
       style="fill:#1f1a17;fill-opacity:1;fill-rule:evenodd;stroke:none"
       id="path3174" />
    <path
       inkscape:connector-curvature="0"
       d="m 509.77907,328.79627 c -0.30125,-0.78375 -0.7425,-1.3125 -1.125,-2.1 l -0.525,0 c 0.50625,0.83375 0.72125,1.21875 0.975,2.175 0.28375,0.975 0.415,1.1675 0.375,2.25 0.11125,1.13875 -0.69,3.3225 -1.425,4.2 l 0.6,0 c 1.4175,-2.17625 1.8975,-4.00375 1.125,-6.525"
       style="fill:#1f1a17;fill-opacity:1;fill-rule:evenodd;stroke:none"
       id="path3176" />
    <path
       inkscape:connector-curvature="0"
       d="m 343.80407,314.47127 0.15,0 0,0.3 0.075,0 0,0.975 0.075,0 c 0,0.375 0,0.75 0,1.125 l -0.075,0 0.075,0 0,0.75 -0.075,0 0,0.3 -0.075,0 0,0.375 0.075,0 0,0.375 0.075,0 0,0.075 0.075,0 0,0.225 c -0.125,0 -0.25,0 -0.375,0 l 0,-0.075 -0.15,0 0,-0.075 -0.075,0 0,-0.075 -0.075,0 0,-0.15 -0.075,0 0,-0.3 -0.15,0 0,-0.9 0.15,0 0,-1.275 0.075,0 0,-0.15 0.075,0 0,-0.15 0.075,0 c 0,-0.2 0,-0.4 0,-0.6 l -0.075,0 0,-0.3 0.075,0 0,-0.3 0.075,0 0,-0.15 0.075,0 z m -2.925,-9.45 0.075,0 0.075,0.075 0,0.45 0.075,0 0,0.45 -0.075,0 0,1.125 -0.075,0 0,0.225 0.075,0 c 0,0.175 0,0.35 0,0.525 l -0.075,0 0,0.6 -0.075,0 0,0.075 -0.075,0.075 0,0.075 -0.15,0 0,0.15 -0.075,0 -0.15,0.075 -0.075,0.075 -0.075,0.075 -0.075,0 0,0.075 -0.225,0 -0.075,-0.075 0,-0.075 -0.075,0 0,-0.15 -0.075,0 0,-0.15 -0.075,0 0,-0.075 -0.15,-0.075 -0.075,0 0,-0.15 -0.075,0 0,-0.075 -0.075,0 0,-0.15 -0.075,0 0,-0.15 -0.075,0 0,-0.075 -0.075,0 0,-0.075 -0.075,0 0,-0.3 -0.075,0 0,-0.15 -0.075,0 0,-0.225 -0.075,0 0,-0.225 -0.075,0 0,-0.375 0.075,0 0,-0.15 0.075,0 0,-0.075 0.075,0 0,-0.075 0.15,0 0,-0.075 0.15,0 0,-0.075 0.075,0 0.075,-0.075 0.075,-0.075 0.075,0 0,-0.15 0.15,-0.075 0.075,0 0.075,-0.075 0.075,0 0,-0.075 0.075,0 0,-0.075 0.075,0 0,-0.075 0.15,0 0,-0.075 0.075,0 0,-0.075 0.15,0 0,-0.075 0.15,0 0,-0.075 0.15,0 0,-0.075 0.15,0 0,-0.075 z m 7.65,-4.65 1.35,0 0.15,0.075 0,0.075 0.075,0 0,0.3 -0.075,0 0,0.225 -0.15,0 0,0.225 -0.075,0 0,0.15 -0.075,0 0,0.075 -0.075,0.075 0,0.075 -0.075,0 0,0.075 -0.075,0 0,0.15 -0.075,0 0,0.075 -0.075,0 0,0.225 -0.075,0 0,0.075 -0.075,0 0,0.075 -0.075,0 0,0.075 -0.075,0 0,0.225 -0.225,0 0,0.15 -0.075,0 0,0.075 -0.075,0 0,0.075 -0.075,0 0,0.225 -0.075,0 0,0.075 -0.075,0 0,0.075 -0.075,0.075 -0.075,0 0,0.15 -0.075,0 0,0.15 -0.075,0 0,0.075 -0.15,0 0,0.075 -0.075,0 0,0.075 -0.075,0.15 -0.075,0.075 -0.075,0.075 -0.075,0.075 -0.075,0 -0.225,0.225 0,0.075 -0.15,0.15 0,0.075 -0.15,0 0,0.075 -0.15,0 0,0.15 -0.15,0 -0.075,-0.15 0,-0.225 -0.075,0 0,-0.3 0.075,0 0,-0.45 -0.075,0 0,-0.3 -0.075,0 0,-0.525 -0.075,0 0,-1.125 0.075,0 0,-0.15 0.075,0 0,-0.075 0.075,-0.075 0,-0.075 0.075,0 0.075,-0.075 0.075,0 0,-0.075 0.075,0 0,-0.075 0.225,0 0,-0.075 0.075,0 0,-0.075 0.075,0 0.075,-0.15 0.075,0 0,-0.075 0.075,0 0.075,-0.075 0,-0.075 0.075,0 0,-0.075 0.075,0 0,-0.075 0.075,0 0.075,-0.075 0.075,0 0,-0.075 0.225,0 0,-0.075 0.075,0 0.075,-0.075 0.15,0 z m -5.85,-5.925 0.6,0 0,0.075 0.15,0 0.075,0.075 0.15,0 0,0.075 0.075,0 0,0.075 0.075,0 0,0.075 0.075,0 0,0.075 0.075,0 0.075,0.075 0.075,0 0,0.075 0.075,0 0,0.075 0.075,0 0,0.075 0.15,0 0,0.075 0.075,0 0,0.15 -0.075,0 0.075,0 0,0.075 0.15,0.15 0,0.075 0.15,0 0,0.075 0.075,0 0,0.15 0.075,0 0.075,0.075 0.075,0.075 0.075,0 0,0.075 0.15,0 0,0.075 0.075,0 0,0.225 0.075,0 0,0.075 0.075,0 0,0.075 0.075,0 0,0.075 0.075,0 0,0.075 0.075,0.075 0,0.075 0.075,0 0,0.075 0.075,0 0,0.075 0.075,0.075 0.075,0.15 0.075,0.075 0,0.075 0.15,0 0.075,0.075 0,0.075 0.075,0 -0.075,0 0,0.075 0.075,0 0,0.15 0.075,0 0,0.075 0.075,0 0,0.375 0.075,0 0,0.3 0.075,0 0,0.225 0.075,0 0,0.525 0.075,0.075 0,0.075 0.3,0 0,-0.075 0.15,0 0,-0.075 0.15,0 0,-0.075 0.15,0 0,-0.15 0.15,0 0,-0.075 0.375,0 0,-0.075 0.225,0 0,-0.075 0.075,0 0.075,-0.075 0.375,0 0,-0.075 0.675,0 0,-0.075 1.65,0 0,0.075 0.975,0 0,0.075 0.075,0 0,0.6 -0.075,0 0,0.525 -0.075,0 0,0.15 -0.075,0.15 0,0.075 -0.075,0.075 0,0.15 -0.075,0 0,0.3 -0.15,0 0,0.15 -0.075,0 0,0.075 -0.075,0.15 0,0.075 -0.075,0 0,0.15 -0.075,0 0,0.15 -0.075,0 0,0.075 -0.075,0.075 -0.075,0 0,0.15 -0.075,0 0,0.075 -0.075,0 0,0.075 -0.075,0 0,0.225 -0.15,0 0,0.075 -0.075,0 -0.075,0.075 0,0.075 -0.075,0 0,0.15 -0.075,0 0,0.075 -0.075,0.075 0,0.075 -0.075,0 0,0.075 -0.075,0.15 0,0.075 -0.075,0 0,0.15 -0.075,0 0,0.075 -0.075,0 0,0.15 -0.075,0 0,0.15 -0.15,0 -0.075,0.075 0,0.075 -0.075,0 0,0.075 -0.075,0.15 -0.075,0.075 0,0.075 -0.075,0 0,0.075 -0.15,0.15 0,0.075 -0.075,0 0,0.075 -0.075,0.075 -0.075,0 0,0.075 -0.075,0.075 0,0.075 -0.15,0 0,0.15 -0.075,0 0,0.075 -0.075,0 0,0.075 -0.075,0 0,0.15 -0.075,0 0,0.075 -0.075,0 0,0.075 -0.075,0 0,0.075 -0.075,0.075 0,0.075 -0.075,0 0,0.075 0.075,0 0,0.075 0.675,0 0,0.15 0.15,0 0,0.075 0.075,0 0,0.375 -0.075,0 0,0.15 -0.075,0 0,0.075 -0.075,0 0,0.3 -0.15,0 0,0.075 -0.075,0 0,0.15 -0.075,0 0,0.15 -0.075,0 0,0.3 -0.075,0 0,0.225 -0.075,0 0,0.15 -0.15,0 0,0.075 -0.15,0 0,0.075 -0.225,0 0,0.075 -0.225,0 0,0.075 -0.375,0 0,0.075 -0.075,0 0,0.15 -0.075,0 0,0.375 -0.075,0 0,0.15 -0.15,0 0,0.375 -0.075,0 0,0.15 -0.075,0 0,0.525 -0.075,0 0,0.675 -0.075,0 0,0.225 -0.075,0.075 0,0.3 -0.075,0 0,0.15 -0.075,0 0,0.375 -0.075,0 0,0.15 -0.075,0 0,0.15 -0.075,0 0,0.3 -0.15,0 0,0.45 -0.075,0 0,0.225 -0.075,0 0,0.6 -0.075,0 0,0.15 -0.075,0.075 0,0.075 -0.075,0 0,0.225 -0.075,0 0,0.525 -0.075,0 0,0.525 -0.075,0 c 0.0238,0.42875 -0.1225,0.0888 -0.075,0.75 l -0.075,0 0,0.6 -0.075,0 c 0,0.5 0,1 0,1.5 l 0.075,0 0,0.825 -0.075,0 0,0.225 -0.15,0 0,0.225 -0.075,0 0,0.075 -0.075,0 0,0.075 -0.15,0 0,0.075 -0.15,0 0,0.075 -0.15,0 0,0.075 -0.075,0 0,0.075 -0.075,0 0,0.075 -0.45,0 0,0.075 -0.075,0.075 0,0.075 -0.075,0 0,0.225 -0.15,0 0,0.075 -0.15,0 0,-0.075 -0.225,0 0,-0.225 -0.075,-0.075 0,-0.15 -0.075,0 0,-0.15 -0.075,0 0,-0.075 -0.075,0 -0.15,-0.15 0,-0.075 -0.075,0 0,-0.825 -0.075,-0.075 0,-0.075 -0.075,0 0,-0.375 -0.075,0 0,-1.05 -0.075,0 0,-0.525 -0.15,0 0,-1.425 -0.075,0 0,-0.45 -0.075,0 0,-0.075 -0.15,0 0,0.075 -0.075,0 0,0.225 -0.075,0 0,1.05 0.075,0 0,0.525 0.075,0 0,0.6 0.075,0 -0.075,0 0.075,0.075 0,0.825 0.075,0 0,0.675 0.075,0 -0.075,0 0.075,0 0,0.225 0.075,0 0,0.225 0.15,0 0,0.225 0.075,0 0,0.075 0.075,0 0,0.075 0.075,0 0,0.225 0.075,0 0,0.225 0.075,0 0,0.15 0.075,0 0,0.075 0.075,0 0,0.15 0.15,0 0.075,0.075 0.075,0 0,0.3 -0.075,0 0,0.075 -0.075,0 0,0.075 -0.075,0.075 -0.15,0 -0.075,0.075 0,-0.075 -0.15,0 0,-0.075 -0.075,0 0,-0.075 -0.075,0 0,-0.075 -0.075,0 0,-0.075 -0.15,0 0,-0.075 -0.075,0 0,-0.15 -0.075,0 0,-0.075 -0.075,0 0,-0.15 -0.075,0 0,-0.225 -0.075,0 0,-0.225 -0.075,0 0,-0.525 -0.075,0 0,-1.35 -0.075,0 0,-0.3 -0.075,0 0,-0.525 -0.075,0 0,-0.3 -0.15,0 0.15,0 0,-0.075 -0.15,0 0,-0.3 -0.075,0 0,-0.375 -0.075,0 0,-0.45 -0.075,0 0,-0.525 -0.075,0 0,-0.975 -0.075,0 0,-0.75 -0.075,0 0,-0.975 -0.075,0 0,-1.2 -0.075,0 0,-0.6 -0.075,-0.075 0,-0.075 -0.45,0 0,0.075 -0.15,0 0,0.15 -0.075,0 0,0.75 -0.075,0 0,0.15 -0.75,0 0,-0.075 -0.3,0 0,-0.075 -0.15,0 0,-0.075 -0.3,0 0,-0.075 -0.15,0 0,-0.075 -0.15,0 0,-0.075 -0.225,0 0,-0.075 -0.15,0 -0.15,-0.075 -0.075,0 0,-0.075 -0.15,0 0,-0.075 -0.15,0 0,-0.15 -0.075,0 0,-0.075 -0.15,0 0,-0.075 -0.075,0 -0.075,-0.075 0,-0.075 -0.225,0 0,-0.075 -0.075,0 0,-0.15 -0.075,0 0,-0.075 -0.075,0 0,-0.075 -0.075,-0.075 -0.075,0 0,-0.075 -0.075,0 0,-0.15 -0.075,0 0,-0.075 -0.075,0 0,-0.075 -0.075,0 0,-0.15 -0.075,-0.075 0,-0.15 -0.075,0 0,-0.075 -0.15,-0.075 -0.075,0 0,-0.075 -0.075,-0.075 0,-0.15 -0.075,0 0,-0.15 -0.075,0 0,-0.3 -0.075,0 -0.15,-0.15 0,-0.075 -0.075,-0.075 0,-0.225 -0.075,0 0,-0.225 -0.075,0 0,-0.075 -0.15,0 0,-0.15 -0.075,0 0,-0.225 -0.075,0 0,-0.3 -0.075,0 0,-0.3 -0.075,0 0,-0.15 -0.075,0 0,-0.15 -0.075,-0.075 0,-0.075 -0.075,0 0,-0.3 -0.075,0 c 0,-0.125 0,-0.25 0,-0.375 l -0.075,0 c 0.0312,-0.5475 -0.10125,-0.21375 -0.075,-0.675 l -0.075,0 0,-1.275 0.075,0 0,-0.225 0.075,0 0,-0.225 0.075,0 0,-0.15 0.075,0 0,-0.075 0.075,0 0,-0.075 0.075,-0.075 0.225,0 0,0.075 0.075,0 0.075,0.075 0,0.075 0.15,0 0,0.075 0.075,0 0.075,0.075 0,0.15 0.075,0 0,0.15 0.075,0 0,0.15 0.075,0 0.075,0.075 0.075,0.075 0.075,0.075 0.075,0.075 0,0.075 0.075,0 0,0.075 0.15,0 0,0.075 0.075,0 0,0.15 0.075,0 0,0.075 0.075,0 0,0.075 0.075,0 0,0.075 0.075,0 0,0.075 0.075,0 0,0.075 0.075,0 0,0.075 0.075,0 0.15,0.15 0,0.075 0.075,0 0.15,0.075 0,0.075 0.075,0 0,0.15 0.075,0 0,0.075 0.075,0 0,0.075 0.075,0 0,0.075 0.15,0 0,-0.075 0.15,0 0,-0.075 0.075,0 0,-0.075 0.075,-0.15 0.075,0 0,-0.075 0.225,0 0,-0.075 0.075,0 0,-0.075 0.15,0 0,-0.075 0.075,0 0,-0.075 0.075,0 0.075,-0.075 0.075,0 0,-0.075 0.15,0 0,-0.075 0.225,0 0,-0.075 0.075,0 0,-0.075 0.075,0 0,-0.075 0.075,0 0,-0.15 0.075,0 0,-0.075 0.15,0 0,-0.075 0.075,0 0,-0.075 0.15,0 0,-0.075 0.075,0 0,-0.075 0.15,0 0.075,-0.075 0.075,0 0,-0.075 0.15,0 0,-0.15 0.15,0 0,-0.075 0.15,0 0,-0.225 0.15,0 0,-0.075 0.225,0 0,-0.075 0.075,0 0.15,-0.15 0.075,0 0,-0.075 0.075,0 0,-0.075 0.15,0 0,-0.075 0.075,0 0,-0.15 0.075,0 0,-0.45 0.075,0 0,-0.45 0.15,0 0,-0.075 -0.15,-0.075 0.15,0 0,-1.275 0.075,-0.075 c 0,-0.25 0,-0.5 0,-0.75 l 0.075,0 0,-0.975 0.075,0 0,-0.675 0.075,0 c 0,-0.175 0,-0.35 0,-0.525 l -0.075,0 c 0,-0.4 0,-0.8 0,-1.2 l 0.075,0 0,-0.225 0.075,0 0,-0.225 0.075,0 0,-0.15 0.075,0 0,-0.075 0.15,-0.15 0.075,-0.075 0,-0.15 0.15,0 0,-0.075 0.075,0 0,-0.075 0.075,0 0,-0.075 0.075,0"
       style="fill:#1f1a17;fill-opacity:1;fill-rule:evenodd;stroke:none"
       id="path3178" />
    <path
       inkscape:connector-curvature="0"
       d="m 365.85407,306.82127 0,0.15 0.075,0 0.15,0.075 0,0.075 0.075,0 0,0.225 0.075,0 0,0.15 0.075,0 0,0.15 0.075,0 0,0.075 0.075,0.15 0,0.375 -0.075,0 -0.225,0.225 -0.075,0 0,0.075 -0.225,0 0,0.075 -0.075,0 -0.075,0.075 -0.075,0 0,0.15 -0.075,0 0,0.075 -0.15,0 0,0.075 -0.15,0 0,0.075 -0.15,0 0,0.075 -0.15,0 -0.075,0.075 -0.075,0 0,0.075 -0.15,0 0,0.075 -0.15,0 0,0.075 -0.15,0 0,0.075 -0.6,0 0,-0.075 -0.075,0 0,-0.225 0.075,0 0,-0.15 0.075,0 0,-0.075 0.075,0 0,-0.075 0.075,0 0,-0.075 0.075,0 0,-0.225 0.15,0 0,-0.075 0.075,0 0,-0.075 0.075,0 0,-0.075 0.075,0 0,-0.075 0.075,-0.075 0,-0.075 0.075,0 0,-0.075 0.075,-0.075 0.075,0 0,-0.15 0.075,0 0,-0.15 0.075,0 0.075,-0.075 0.15,-0.075 0,-0.075 0.075,0 0,-0.075 0.075,0 0.075,-0.075 0.075,-0.075 0.075,-0.075 0.075,-0.075 0,-0.075 0.075,0 0,-0.075 0.15,0 0.075,-0.15 z m 0.675,-0.675 0.225,0 0,0.15 0.075,0 0,0.075 0.15,0.075 0,0.075 0.075,0 0,0.075 0.075,0 0,0.225 0.075,0 0,0.225 0.075,0 0,0.3 -0.075,0 0,0.075 -0.075,0.075 -0.075,0 0,0.075 -0.075,0 0,-0.075 -0.225,0 0,-0.15 -0.075,0 0,-0.15 -0.075,0 0,-0.225 -0.075,0 0,-0.3 -0.075,0 0,-0.225 -0.075,0 0,-0.15 0.075,0 0,-0.075 0.075,-0.075 z m -0.675,-4.575 0.3,0 0,0.225 -0.075,0 0,0.075 -0.15,0 0,0.15 -0.075,0.15 0,0.075 -0.075,0 0,0.075 -0.075,0 0,0.15 -0.225,0 0,-0.075 -0.075,0 0,-0.15 -0.075,0 0,-0.375 0.075,0 0,-0.075 0.15,0 0,-0.075 0.15,0 0,-0.075 0.15,0 0,-0.075 z m 2.85,-2.25 0.375,0 0,0.075 0.15,0 0,0.075 0.15,0 0,0.075 0.15,0 0.075,0.075 0.075,0 0,0.075 0.225,0 0,0.075 0.15,0 0,0.075 0.15,0 0,0.075 0.075,0 0.075,0.075 0.15,0 0,0.075 0.075,0 0,0.15 0.225,0 0,0.075 0.075,0 0,0.15 0.075,0 0,0.15 0.075,0 0,0.3 0.075,0 0,0.075 -0.075,0 0,0.3 -0.075,0 0,0.225 -0.075,0 0,0.075 -0.075,0.075 0,0.075 -0.15,0.075 -0.075,0.075 -0.075,0.075 0,0.075 -0.075,0 0,0.15 -0.075,0 0,0.075 -0.075,0 0,0.075 -0.075,0.075 -0.075,0 0,0.15 -0.075,0.075 -0.075,0 0,0.075 -0.15,0 0,0.075 -0.15,0 0,-0.075 -0.975,0 -0.15,-0.15 -0.075,0 0,-0.075 -0.075,0 0,-0.075 -0.15,0 0,-0.075 -0.075,0 0,-0.3 -0.075,0 0,-0.15 -0.075,0 0,-0.15 -0.075,-0.075 0,-0.15 -0.15,0 0,-0.6 -0.075,0 0,-0.225 -0.075,0 0,-0.75 0.075,0 -0.075,0 0,-0.225 0.075,-0.075 0,-0.075 c 0.235,-0.30125 0.6525,-0.10375 0.975,-0.15 l 0,-0.075 z m 0.9,-4.8 0.6,0 0,0.075 0.9,0 0,0.075 0.225,0 0,0.075 0.15,0 0,0.075 0.075,0 0.15,0.075 0.075,0 0.15,0.15 0.075,0 0,0.075 0.15,0 0,0.075 0.075,0 0,0.075 0.075,0 0,0.15 0.075,0 0,0.15 0.075,0 0,0.075 0.075,0 0,0.075 0.15,0.075 0,0.075 0.075,0 0,0.075 0.075,0 0,0.075 0.075,0 0,0.15 0.075,0 0,0.075 0.075,0.15 0,0.075 0.075,0 0,0.075 0.075,0.075 0,0.075 0.075,0 0,0.075 0.075,0 0,0.15 0.075,0 0,0.15 0.15,0 0,0.075 0.075,0 0,0.225 0.075,0 0,0.15 0.075,0.075 0,0.075 0.075,0 0,0.225 0.075,0 0,0.15 0.075,0 0,0.225 0.075,0 0,0.15 0.075,0 0,0.15 0.075,0.075 0,0.15 0.075,0 0,0.225 0.075,0 0,0.3 0.15,0 0,0.3 0.075,0 0,0.225 0.075,0 c 0,0.15 0,0.3 0,0.45 l 0.075,0 0,0.3 0.075,0 0,0.3 0.075,0 0,0.375 0.075,0 0,0.525 0.075,0 0,0.375 0.075,0 0,0.45 0.075,0 0,0.825 0.075,0 0,0.675 0.15,0 0,2.1 0.075,0 0,0.525 -0.075,0 0,2.925 -0.15,0 0,2.625 -0.075,0 0,1.575 -0.075,0 0,0.3 -0.075,0 0,0.3 -0.075,0 0,0.6 -0.075,0 0,0.225 -0.075,0.075 0,0.225 -0.075,0 0,0.075 -0.075,0 0,0.15 -0.075,0 -0.075,0.075 0,0.075 -0.15,0 0,0.075 -0.075,0 0,0.075 -0.075,0 -0.075,0.075 -0.075,0 0,0.075 -0.075,0 -0.075,0.075 0,0.075 -0.075,0 -0.075,0.15 -0.075,0.075 -0.075,0.075 -0.075,0 0,0.075 -0.15,0.075 -0.075,0 0,0.075 -0.15,0 0,0.075 -0.075,0.075 -0.075,0 0,0.075 -0.075,0 0,0.075 -0.075,0 0,0.075 -0.15,0 0,0.075 -0.075,0 0,0.15 -0.15,0 0,0.075 -0.075,0.075 -0.075,0 0,0.075 -0.075,0 0,0.075 -0.075,0 0,0.075 -0.15,0 0,0.15 -0.075,0 0,0.075 -0.15,0 0,0.075 -0.075,0 0,0.075 -0.225,0 0,0.15 -0.075,0 -0.075,0.075 -0.075,0 -0.075,0.075 -0.15,0 -0.075,-0.075 0,-0.075 -0.075,0 0,-0.15 -0.075,0 -0.075,-0.075 -0.15,-0.075 -0.075,0 0,-0.075 -0.075,0 0,-0.075 -0.075,0 0,-0.075 -0.075,0 0,-0.075 -0.075,0 0,-0.075 -0.075,0 0,-0.075 -0.15,0 0,-0.075 -0.075,0 0,-0.075 -0.15,0 0,-0.15 -0.225,0 0,-0.075 -0.15,0 0,-0.075 -0.225,0 0,-0.075 -0.15,0 0,-0.075 -0.075,0 0,-0.075 c -0.34375,0.0225 -0.10625,-0.0975 -0.45,-0.075 l 0,-0.075 -0.15,0 0,-0.075 -0.075,0 -0.075,-0.075 -0.075,0 0,-0.075 -0.45,0 0,-0.075 -0.15,0 0,-0.15 -0.15,0 0,-0.075 -0.075,0 0,-0.075 -0.375,0 0,-0.075 -0.225,0 0,-0.075 -0.15,0 0,-0.075 -0.75,0 0,-0.075 -0.9,0 0,-0.075 -0.15,0 0,-0.075 -1.425,0 0,-0.075 -0.9,0 0,-0.075 -1.125,0 0,-0.075 -0.375,0 0,-0.15 -0.3,0 0,-0.075 -0.075,0 0,-0.075 -0.375,0 0,0.075 -0.075,0.075 0.075,0.15 0,0.375 0.15,0 0,0.3 0.075,0 0,0.375 0.075,0 0,0.075 0.075,0 0,0.075 0.075,0 0,0.075 0.075,0.075 0.075,0.075 0,0.15 0.075,0 0,0.45 -0.075,0 0,0.075 -0.075,0 0,0.075 -0.15,0 -0.075,0.075 -0.675,0 0,-0.075 -0.225,0 0,-0.075 -0.15,0 0,-0.075 -0.15,0 0,-0.075 -0.075,0 0,-0.15 -0.15,0 0,-0.075 -0.075,0 0,-0.075 -0.075,0 -0.075,-0.075 0,-0.075 -0.075,0 0,-0.075 -0.075,0 0,-0.15 -0.075,0 0,-0.075 -0.075,0 0,-0.225 -0.075,0 0,-0.75 -0.15,0 0,-0.675 -0.075,0 0,-0.825 -0.075,0 0,-0.525 -0.075,0 0,-0.525 -0.075,0 0,-0.9 -0.075,0 0,-1.35 -0.075,0 0,-0.75 0.075,0 c 0,-0.775 0,-1.55 0,-2.325 l 0.075,0 0,-1.275 0.075,-0.075 -0.075,0 0,-0.075 0.075,0 0,-0.375 0.075,0 0,-0.6 0.075,0 0,-0.75 0.075,0 0,-0.45 0.15,0 0,-0.75 0.075,0 0,-0.3 0.075,0 0,-0.15 0.075,0 0,-0.375 0.075,0 0,-0.45 0.075,0 0,-0.3 0.075,-0.075 0,-0.15 0.075,0 0,-0.225 0.075,-0.075 0,-0.15 0.075,0 0,-0.15 0.075,0 0,-0.225 0.075,0 0,-0.15 0.15,0 0,-0.15 0.075,0 0,-0.075 0.075,0 0,-0.15 0.075,0 0,-0.15 0.15,0 0,-0.075 0.075,0 0,0.075 0.075,0 0,0.15 0.075,0 0,0.15 0.075,0 0,0.6 -0.075,0 0,0.15 -0.075,0 0,0.225 -0.075,0 c 0,0.15 0,0.3 0,0.45 l -0.075,0 0,0.375 -0.075,0 0,0.375 -0.075,0 0,0.45 -0.075,0 0,0.6 -0.075,0 0,1.05 -0.075,0.15 0,0.675 -0.15,0 0,0.975 -0.075,0.075 0,2.175 -0.075,0 0,0.225 0.075,0 0,0.75 -0.075,0 0,0.225 0.075,0 0,0.075 -0.075,0 0,0.45 0.075,0 0,1.35 0.075,0 0,0.15 0.225,0 0,-0.15 0.075,0 0,-0.15 0.075,0 0,-0.225 0.075,0 0,0.225 0.075,0.075 0,0.375 0.075,0 c 0,0.25 0,0.5 0,0.75 l 0.075,0 0,1.275 0.075,0 0,0.3 0.075,0 0,0.075 0.075,0 0,-0.075 0.15,0 0,-0.15 0.075,0 0,-0.075 0.075,0 0,-0.075 0.075,0 0,-0.075 0.075,0 0,-0.075 0.225,0 0,0.075 0.3,0 0,-0.075 1.05,0 0.075,-0.075 0.075,0 0,-0.075 0.15,0 0,-0.075 0.075,0 0,-0.075 0.075,0 0,-0.075 0.075,0 0,-0.075 0.075,0 0.075,-0.075 0.075,0 0,-0.15 0.225,0 0,-0.075 0.075,-0.075 0,-0.075 0.075,0 0.075,-0.075 0.075,-0.075 0.075,0 0,-0.075 0.075,0 0.075,-0.075 0,-0.075 0.075,-0.075 0.075,0 0.075,-0.075 0,-0.15 0.075,-0.075 0.15,0 0,-0.15 0.15,0 0,-0.075 0.15,0 0,-0.15 0.075,0 0,-0.075 0.075,0 0.075,-0.075 0,-0.075 0.075,0 0.15,-0.15 0,-0.15 0.15,-0.075 0.075,-0.075 0.075,-0.075 0.075,-0.075 0.075,-0.075 0.075,-0.075 0.075,-0.075 0.075,0 0,-0.15 0.075,0 0,-0.075 0.075,0 0,-0.075 0.075,0 0,-0.15 0.075,0 0,-0.075 0.15,0 0,-0.075 0.075,0 0,-0.075 0.075,0 0,-0.075 0.075,0 0,-0.075 0.15,0 0,-0.075 0.075,0 0,-0.075 0.075,0 0,-0.075 0.075,-0.075 0,-0.075 0.075,0 0,-0.075 0.075,0 0.15,-0.15 0.075,-0.075 0,-0.075 0.075,0 0,-0.3 -0.075,0 0,-0.075 -0.075,0 -0.15,0.075 -0.075,0.075 -0.075,0 0,0.075 -0.075,0 0,0.075 -0.075,0 0,0.075 -0.15,0 0,0.075 -0.075,0 0,0.075 -0.075,0 0,0.15 -0.075,0 -0.075,0.075 -0.15,0.075 -0.075,0.075 -0.075,0 0,0.075 -0.075,0 0,0.075 -0.15,0 0,0.075 -0.075,0 0,0.075 -0.15,0 0,0.075 -0.075,0 0,0.075 -0.15,0 0,0.075 -0.225,0 0,0.075 -0.075,0 0,0.15 -0.15,0 0,0.075 -0.075,0 -0.075,0.075 -0.15,0 0,0.075 -0.15,0 0,0.075 -0.225,0 0,0.075 -0.15,0 0,0.075 -0.075,0 0,0.075 -0.15,0 -0.075,0.075 -0.075,0 0,0.075 -0.15,0 0,0.075 -0.3,0 0,0.075 -0.225,0 0,0.15 -0.075,0 0,0.075 -0.225,0 0,0.075 -0.15,0 0,0.075 -0.225,0 0,0.075 -0.15,0 0,-0.075 -0.15,0 0,-0.45 0.075,0 0,-0.75 0.075,0 0,-0.225 0.075,-0.075 0,-0.15 0.075,0 0,-0.15 0.15,0 0,-0.15 0.075,0 0,-0.15 0.075,0 0,-0.075 0.075,0 0,-0.225 0.075,0 0,-0.15 0.075,-0.075 0,-0.075 0.075,0 0,-0.075 0.075,0 0,-0.225 0.075,0 0,-0.075 0.15,0 0,-0.225 0.075,0 0,-0.075 0.15,0 0,-0.15 0.075,0 0,-0.075 0.075,-0.075 0,-0.075 0.075,0 0,-0.075 0.075,0 0,-0.075 0.075,0 0,-0.075 0.075,-0.075 0.075,-0.075 0.075,-0.15 0,-0.075 0.075,0 0,-0.075 0.075,0 0,-0.075 0.075,-0.075 0,-0.075 0.15,0 0.075,-0.075 0,-0.075 0.075,-0.075 0.075,0 0.075,-0.075 0,-0.075 0.075,0 0,-0.15 0.075,0 0,-0.15 0.075,0 -0.075,0 0,-0.15 -0.075,0 0,0.075 -0.15,0 0,0.075 -0.15,0 0,0.075 -0.075,0 -0.15,0.075 -0.075,0 -0.075,0.15 -0.075,0.075 0,0.075 -0.075,0 -0.075,0.075 -0.15,0 0,-0.225 -0.075,0 0,-0.75 0.075,0 0,-0.375 0.075,0 0,-0.225 0.075,0 0,-0.075 0.075,0 0,-0.15 0.075,-0.075 0,-0.225 0.075,0 0,-0.075 0.075,0 0,-0.15 0.075,-0.075 0,-0.075 0.15,0 0,-0.075 0.075,0 0,-0.075 0.15,-0.15 0.075,0 0,-0.15 0.075,0 0,-0.075 0.075,-0.075 0,-0.225 0.075,0 0,-0.225 -0.075,-0.075 0,-0.075 -0.15,0 0,-0.225 0.075,0 0,-0.15 -0.075,0 0,-0.225 -0.075,0 0,-0.15 -0.075,0 0,-0.075 -0.15,0 0,0.075 -0.15,0 0,0.075 -0.225,0 0,0.075 -0.075,0 0,0.15 -0.15,0 0,0.075 c -0.225,0 -0.45,0 -0.675,0 l 0,-0.075 -0.075,0 0,-0.375 0.075,0 0,-0.225 0.075,0 0,-0.15 0.075,0 0,-0.075 0.15,-0.075 0.075,-0.15 0,-0.075 0.075,0 0,-0.15 0.075,0 0,-0.075 0.075,0 0.075,-0.075 0,-0.075 0.075,0 0,-0.075 0.075,-0.075 0.075,-0.075 0,-0.15 -0.075,0 0,-0.375 -0.075,0 0,-0.225 -0.075,0 0,-0.075 0.075,0 -0.075,0 0,-0.3 0,0.075 0,-0.225 -0.075,0 0,-0.375 -0.075,0 0,-0.375 -0.075,0 0,-0.225 -0.075,-0.075 0,-0.225 -0.075,0 0,-0.075 0.075,0 0,-0.15 0.225,0 0,0.075 0.075,0 0,0.075 0.075,0 0,0.075 0.075,0.075 0,0.15 0.075,0 0,0.225 0.075,0 0,0.075 0.075,0 0,0.075 0.075,0 0,0.15 0.15,0 0,0.15 0.075,0.075 0,0.075 0.075,0 0,0.15 0.075,0.075 0,0.15 0.075,0 0,0.15 0.075,0.075 0,0.075 0.15,0.15 0.15,0 0.075,-0.075 0.15,0 0,-0.075 0.15,0 0,-0.075 0.15,0 0,-0.075 0.075,0 0.075,-0.075 0.15,0 0,-0.075 0.15,0 0,-0.15 0.3,0 0,-0.075 0.3,0 0,-0.075 0.525,0 0,0.075 0.075,0 0,0.075 0.075,0 0,0.15 0.075,0 0,0.075 0.075,0.075 0.075,0.075 0.075,0 0,0.075 0.075,0 0,0.15 -0.075,0.075 0,0.075 -0.075,0 0,0.075 -0.075,0 0,0.15 -0.075,0.15 0,0.15 -0.075,0.075 0,0.15 -0.075,0 0,0.15 -0.075,0 0,0.15 -0.15,0 0,0.15 -0.075,0 0,0.225 -0.075,0 0,0.075 -0.075,0.075 -0.075,0 0,0.15 -0.075,0 0,0.075 -0.075,0 0,0.075 -0.075,0 0,0.075 -0.075,0 0,0.075 -0.075,0.075 0,0.225 -0.075,0 0,0.375 0.075,0 0,0.15 0.075,0 0,0.075 0.075,0.075 0.075,0.075 0,0.15 0.075,0 0,0.15 0.075,0 0,0.075 0.075,0 0,0.075 0.075,0.075 0.075,0 0,0.15 0.075,0 0.15,0.075 0,0.075 0.15,0 0,0.15 0.075,0 0,0.15 0.075,0.075 0.075,0 0,0.075 0.075,0 0,0.075 0.075,0 0,0.075 0.075,0 0,0.15 0.075,0 0.075,0.075 0.075,0 0.15,0.075 0,0.075 0.075,0.075 0.075,0 0.075,0.075 0,0.15 0.075,0 0,0.075 0,-0.075 0,0.225 0.075,0 0,0.075 0.075,0 0,0.375 -0.075,0 0,0.075 -0.075,0 0,0.375 0.075,0 0,0.225 -0.075,0 0,0.15 -0.075,0 0,0.15 -0.075,0.075 0,0.15 -0.075,0 0,0.075 -0.075,0 0,0.075 -0.15,0.075 0,0.075 -0.075,0 0,0.15 -0.075,0 0,0.075 -0.075,0 0,0.15 -0.075,0 0.075,0.075 0.225,0 0,-0.075 0.225,0 0,-0.075 0.075,-0.075 0,-0.075 0.075,0 0,-0.075 0.075,0 0,-0.075 0.075,0 0,-0.075 0.075,-0.075 0,-0.075 0.075,0 0,-0.075 0.075,-0.15 0,-0.075 0.075,0 0,-0.075 0.075,0 0,-0.225 0.15,0 0.075,-0.075 0,-0.075 0.075,0 0,-0.15 0.075,0 0,-0.075 0.075,0 0,-0.15 0.075,0 0,-0.225 0.075,0 0,-0.075 0.075,0 0,-0.075 0.075,0 0,-0.075 0.075,-0.075 0,-0.075 0.075,0 0,-0.15 0.075,-0.075 0.15,-0.15 0.075,0 0,-0.15 0.075,0 0,-0.15 0.075,0 0,-0.15 0.075,-0.075 0,-0.075 0.075,0 0,-0.075 0.075,0 0,-0.15 0.075,0 0,-0.15 0.075,0 0,-0.075 0.075,-0.075 0,-0.075 0.075,0 0,-0.15 0.075,0 0,-0.075 0.15,0 0,-0.075 0.15,0 0,0.075 0.075,0 0,0.15 0.075,0.075 0,0.15 0.075,0 0,1.05 -0.075,0.15 0,0.075 -0.075,0 0,0.075 -0.15,0.15 0,0.075 -0.075,0 0,0.075 -0.15,0 0,0.075 -0.075,0 0,0.15 -0.075,0 0,0.075 -0.075,0 0,0.225 -0.075,0 0,0.075 -0.075,0 0,0.075 -0.075,0 0,0.075 -0.075,0.075 0,0.075 -0.075,0 0,0.075 -0.075,0.075 -0.075,0.075 -0.075,0.075 -0.15,0.075 0,0.15 -0.075,0 0,0.075 -0.075,0 0,0.15 -0.075,0 0,0.15 -0.075,0 -0.15,0.15 0,0.075 -0.075,0 0,0.075 -0.075,0 0,0.075 -0.075,0.075 -0.075,0.15 -0.075,0.075 -0.15,0.075 -0.075,0 0,0.15 -0.075,0 -0.075,0.075 0,0.075 -0.075,0 0,0.075 -0.075,0 0,0.075 -0.075,0 0,0.15 -0.075,0 0,0.225 0.075,0 0,0.15 0.075,0 0.075,0.075 0.075,0 0,0.15 0.225,0.225 0,0.075 0.15,0 0,0.075 0.075,0 0,0.075 0.225,0 0,0.15 0.075,0 0,0.075 0.15,0 0,0.075 0.225,0 0,0.075 0.375,0 0,-0.075 0.075,0 0.075,-0.075 0.075,-0.075 0,-0.15 0.075,0 0.15,-0.15 0,-0.075 0.075,0 0,-0.15 0.075,0 0,-0.075 0.075,0 0,-0.15 0.15,0 0,-0.15 0.075,0 0,-0.3 0.075,0 0,-0.075 0.075,-0.075 0,-0.075 0.075,-0.075 0,-0.225 0.075,0 0,-0.15 0.075,-0.075 0,-0.225 0.075,0 0,-0.3 0.075,0 0,-0.675 0.075,-0.075 0,-0.15 0.075,0 0,0.075 0.15,0 0,0.525 0.075,0 0,0.15 -0.075,0 0,0.375 -0.15,0 0,0.75 -0.075,0 0,0.375 -0.075,0 0,0.3 -0.075,0 0,0.375 -0.075,0.075 0,0.15 -0.075,0 0,0.3 -0.075,0 0,0.15 -0.075,0.075 0,0.075 -0.075,0 0,0.075 -0.075,0.075 0,0.075 -0.075,0 0,0.075 -0.15,0.075 0,0.225 -0.075,0 0,0.075 -0.075,0 0,0.15 -0.075,0 0,0.075 -0.075,0 -0.075,0.075 -0.15,0 0,-0.075 -0.3,0 0,-0.075 -0.225,0 0,-0.075 -0.15,0 0,-0.075 -0.15,0 0,-0.075 -0.075,0 0,-0.15 -0.075,0 0,-0.075 -0.075,0 -0.075,-0.075 -0.075,0 -0.075,-0.075 -0.15,-0.075 -0.075,-0.15 c -0.38875,-0.465 -0.4825,-0.14625 -0.45,-0.6 l -0.15,0 0,-0.15 -0.075,0 0,-0.075 -0.15,-0.075 -0.075,0 0,-0.075 -0.075,-0.075 -0.075,0 0,0.075 -0.075,0 -0.15,0.15 -0.075,0 0,0.075 -0.075,0.075 0,0.075 -0.075,0 0,0.075 -0.075,0 0,0.15 -0.075,0 0,0.075 -0.15,0 0,0.075 -0.15,0 0,0.075 -0.075,0 0,0.075 -0.075,0 -0.075,0.075 -0.075,0 -0.075,0.075 0,0.075 -0.075,0.075 -0.075,0 0,0.075 -0.075,0 0,0.075 -0.15,0 0,0.075 -0.075,0 0,0.15 -0.075,0 0,0.075 -0.075,0 0,0.075 -0.075,0 0,0.075 -0.15,0 0,0.075 -0.075,0 -0.075,0.075 -0.075,0 0,0.075 -0.075,0 0,0.075 -0.075,0 0,0.075 -0.15,0.075 -0.075,0.075 -0.075,0 0,0.075 -0.075,0.15 -0.075,0.075 -0.075,0.075 -0.075,0 0,0.075 -0.075,0 0,0.075 -0.075,0 -0.075,0.075 -0.075,0 0,0.075 -0.15,0 0,0.075 -0.15,0 0,0.075 -0.075,0.075 -0.075,0.075 -0.075,0.15 -0.15,0.15 -0.075,0 -0.075,0.075 0,0.075 -0.075,0 0,0.075 -0.075,0 0,0.15 0.225,0 0,-0.075 0.225,0 -0.075,0 0.15,0 0,-0.075 0.6,0 0,-0.075 0.45,0 0,-0.075 0.075,0 0.075,-0.075 0.375,0 0,-0.075 0.6,0 0,-0.075 0.6,0 0,-0.15 0.525,0 0,-0.075 0.075,0 0.075,-0.075 0.075,0 0,-0.075 0.375,0 0,-0.075 0.3,0 0,-0.075 0.225,0 0.075,-0.075 0.3,0 0,-0.075 0.15,0 0,-0.075 0.225,0 0,-0.075 0.3,0 0,-0.075 0.3,0 0,-0.15 0.3,0 0,-0.075 0.15,0 0,-0.075 0.075,0 0,-0.075 0.225,0 0,-0.075 0.225,0 0,-0.075 0.675,0 0,-0.075 0.225,0 0,0.075 0.375,0 0,0.075 0.075,0 0,0.15 0.075,0.075 0,0.225 0.075,0 0,0.225 -0.075,0 0,0.225 -0.075,0 0,0.225 -0.075,0 0,0.075 -0.075,0 0,0.225 -0.15,0 0,0.225 -0.075,0 0,0.15 -0.075,0 0,0.075 -0.075,0 0,0.075 -0.15,0.15 -0.075,0 0,0.075 -0.075,0 0,0.15 c -0.3,0 -0.6,0 -0.9,0 l 0,-0.15 c -0.525,0 -1.05,0 -1.575,0 l 0,0.15 -0.975,0 0,0.075 -0.15,0 0,0.075 -0.675,0 0,0.075 -0.15,0 0,0.15 0.075,0.075 0.075,0 0,0.075 0.6,0 0,0.075 1.575,0 0,0.075 c 1.1025,-0.0425 0.075,0.105 0.975,0.075 l 0,0.075 0.15,0 0,0.15 0.15,0 0.075,0.075 0.225,0 0.075,0.075 0.3,0 0,0.075 0.225,0 0,0.075 0.45,0 0,0.075 0.525,0 0,-0.075 0.225,0 0.075,-0.075 0.075,0 0,-0.075 0.075,0 0.15,-0.075 0.075,-0.075 0.075,-0.15 0.075,-0.075 0.075,-0.075 0.075,0 0,-0.075 0.075,0 0,-0.075 0.075,0 0,-0.075 0.075,0 0,-0.075 0.075,0 0,-0.15 0.075,0 0,-0.075 0.15,0 0,-0.075 0.075,0 0,-0.075 0.075,0 0,-0.3 0.075,0 0,-0.3 0.075,0 c 0,-0.25 0,-0.5 0,-0.75 l 0.075,0 0,-0.675 0.075,0 0,-0.825 0.075,0 0,-0.45 0.075,0 c 0,-0.475 0,-0.95 0,-1.425 l 0.075,0 c 0,-1.5 0,-3 0,-4.5 l -0.075,0 0,-0.825 -0.075,-0.075 0,-0.6 -0.075,0 0,-0.45 -0.075,-0.075 0,-0.6 -0.075,0 0,-0.225 0,0.075 0,-0.675 -0.075,0 0,-0.45 -0.075,0 0,-0.525 -0.075,0 0,-0.375 -0.075,0 0,-0.3 -0.15,0 0,-0.225 -0.075,-0.075 0.075,0 -0.075,-0.075 0,-0.375 -0.075,0 0,-0.225 -0.075,0 0,-0.3 -0.075,0 0,-0.15 -0.075,0 0,-0.3 -0.075,0 0,-0.225 -0.075,0 0,-0.225 -0.075,-0.075 0,-0.075 -0.075,0 0,-0.075 -0.075,-0.075 0,-0.075 -0.15,0 0,-0.15 -0.075,0 0,-0.075 -0.075,-0.075 0,-0.075 -0.075,0 -0.075,-0.075 -0.075,0 0,-0.225 -0.075,0 0,-0.075 -0.075,0 0,-0.075 -0.15,-0.15 -0.075,0 0,-0.075 -0.075,-0.075 -0.15,-0.075 -0.075,-0.075 0,-0.075 -0.075,0 -0.075,-0.15 -0.075,-0.075 -0.075,0 0,-0.075 -0.075,-0.075 -0.075,0 0,-0.075 -0.15,0 0,-0.075 -0.075,0 0,-0.075 -0.375,0 0,-0.075 -0.15,0 0,-0.075 -0.225,0 0,-0.075 -0.75,0 0,0.075 -0.825,0 0,0.075 -0.3,0 0,0.075 -0.6,0 0,0.075 -0.15,0 0,0.075 -0.3,0 0,0.075 c -0.175,0 -0.35,0 -0.525,0 l 0,0.075 -0.225,0 0,0.075 -0.225,0 0,0.075 -0.225,0 0,0.15 -0.225,0 0,0.075 -0.15,0 0,0.075 -0.15,0 -0.075,0.075 -0.15,0 0,0.075 -0.225,0 0,0.075 -0.075,0 -0.075,0.075 -0.15,0 0,0.075 -0.075,0 0,0.075 -0.075,0 0,0.075 -0.15,0 -0.075,0.075 -0.075,0.15 -0.15,0 0,0.075 -0.075,0.075 -0.15,0.15 -0.075,0 -0.075,0.075 0,0.075 -0.075,0.075 -0.075,0.075 0,0.075 -0.075,0 -0.075,0.075 0,0.075 -0.075,0 0,0.225 -0.075,0 0,0.15 -0.15,0 0,0.075 -0.075,0 0,0.15 -0.075,0.075 0,0.15 -0.075,0 0,0.9 0.075,0.075 0,0.3 0.075,0.075 0,0.225 -0.075,0 0,0.075 -0.075,0 -0.075,0.075 -0.15,0 0,0.075 -0.075,0 0,0.075 -0.6,0 0,-0.075 -0.075,0 0,-0.075 -0.075,0 0,-0.15 -0.075,0 0,-0.225 -0.075,0 0,-0.225 -0.075,0 0,-0.15 -0.075,0 0,-0.15 -0.075,0 0,-0.15 -0.075,0 0,-0.15 0.075,0 0,-0.225 0.075,0 0,-0.15 0.075,0 0,-0.15 0.075,0 0,-0.075 0.075,-0.075 0,-0.075 0.075,0 0,-0.15 0.075,0 0,-0.075 0.075,0 0,-0.075 0.075,0 0,-0.075 0.075,-0.075 0,-0.15 0.15,0 0,-0.075 0.075,0 0,-0.075 0.075,-0.075 0.075,-0.075 0,-0.075 0.075,0 0,-0.15 0.075,0 0,-0.075 0.075,0 0.075,-0.075 0,-0.075 0.075,0 0,-0.075 0.075,0 0.075,-0.15 0,-0.075 0.075,0 0.15,-0.075 0,-0.075 0.075,0 0,-0.075 0.075,0 0,-0.075 0.075,0 0.075,-0.075 0.075,0 0,-0.075 0.075,-0.075 0.075,0 0.075,-0.075 0.075,0 0,-0.075 0.075,0 0.075,-0.15 0.15,0 0,-0.075 0.15,0 0,-0.075 0.075,0 0,-0.075 0.15,0 0.075,-0.075 0.075,0 0,-0.075 0.225,0 0,-0.075 0.15,0 0.075,-0.075 0.075,0 0,-0.075 0.225,0 0,-0.075 0.15,0 0,-0.075 0.15,0 0,-0.075 0.15,0 0.15,-0.15 0.225,0 0,-0.075 0.15,0 0,-0.075 0.375,0 0,-0.075 0.375,0 0,-0.075 0.15,0 0,-0.075 0.45,0 0,-0.075 0.6,0 0,-0.075 0.525,0 0,-0.075 0.3,0 0,-0.075 0.375,0 0,-0.075"
       style="fill:#1f1a17;fill-opacity:1;fill-rule:evenodd;stroke:none"
       id="path3180" />
    <path
       inkscape:connector-curvature="0"
       d="m 386.85407,313.49627 0.15,0 0.075,0.15 0,0.375 -0.075,0 0,0.3 0.075,0 0,0.3 -0.075,0.075 0,0.075 -0.15,0 0,0.075 -0.075,0 0,0.075 -0.3,0 0,0.075 -0.15,0 0,0.075 -0.675,0 0,-0.15 -0.075,0 0.075,-0.075 0,-0.15 0.075,0 0,-0.075 0.15,0 0,-0.15 0.075,0 0,-0.075 0.075,-0.075 0.075,0 0,-0.075 0.075,0 0,-0.075 0.075,-0.075 0.075,0 0,-0.15 0.075,0 0,-0.075 0.075,0 0.075,-0.075 0.075,0 0,-0.075 0.15,0 0,-0.075 0.075,0 0,-0.15 z m 7.125,-1.125 0.15,0 0,0.075 0.075,0 0,0.075 0.15,0 0,0.075 0.15,0 0,0.15 0.15,0 0,0.075 0.15,0 0,0.075 0.225,0 0,0.075 0.525,0 0,0.075 0.225,0 0,0.075 0.45,0 0,0.075 0.075,0 0.075,0.075 0.075,0 0.075,0.075 0.075,0 0,0.075 0.15,0 0,0.075 0.15,0 0,0.15 0.075,0 0,0.075 0.225,0 0,0.075 0.075,0 0,0.075 0.15,0 0,0.075 0.15,0 0,0.075 0.15,0 0,0.075 0.075,0 0,0.075 0.15,0 0,0.075 0.225,0 0,0.075 0.075,0 0,0.075 0.075,0 0,0.075 0.075,0 0,0.3 -0.15,0 0,0.075 -0.075,0.075 0,0.075 -0.075,0 0,0.075 -0.15,0.075 -0.075,0.075 -0.075,0 0,0.075 -0.15,0 0,0.075 -0.075,0 -0.075,0.075 -0.075,0 0,0.15 -0.15,0 0,0.075 -0.225,0 0,0.075 -0.075,0 -0.075,0.075 -0.075,0 0,0.075 -0.075,0 -0.075,0.075 0,0.075 -0.15,0 0,0.075 -0.225,0 0,0.075 -0.225,0 0,0.075 -0.15,0 0,0.075 -0.075,0 -0.075,0.075 -0.075,0.15 -0.075,0 -0.075,0.075 -0.075,0 0,0.075 -0.15,0 0,0.075 -0.3,0 0,0.075 c -0.175,0 -0.35,0 -0.525,0 l 0,-0.075 -0.15,0 0,-0.075 -0.15,0 -0.075,-0.075 0,-0.075 -0.15,0 0,-0.225 -0.075,0 0,-0.15 -0.075,0 0,-0.525 -0.075,0 0,-2.025 0.075,0 0,-0.75 0.075,0 0,-0.3 0.075,0 0,-0.225 z m -4.125,-0.525 0.15,0 0,0.075 0.075,0 0,0.15 -0.075,0.075 0,0.075 -0.075,0 0,0.075 -0.075,0 0,0.075 -0.075,0 0,0.075 -0.075,0 0,0.075 -0.075,0 0,0.075 -0.15,0 0,0.15 -0.075,0 0,0.075 -0.075,0 0,0.075 -0.075,0 0,0.075 -0.075,0 0,0.075 -0.075,0 0,0.075 -0.075,0 -0.075,0.15 -0.075,0.075 -0.075,0.075 -0.075,0.075 -0.075,0.15 -0.15,0.075 -0.225,0.225 -0.15,0 0,-0.15 -0.075,0 0,-1.2 0.075,0 0,-0.075 0.075,0 0,-0.075 0.15,0 0,-0.075 0.075,0 0,-0.075 0.225,0 0,-0.075 0.225,0 0,-0.075 0.15,0 0,-0.075 0.225,0 0,-0.075 0.15,0 0.075,-0.075 0.375,0 0,-0.075 z m 10.5,-0.375 0.225,0 0,0.3 -0.075,0 0,0.15 -0.075,0 0,0.075 -0.075,0 0,0.075 -0.075,0 0,0.075 -0.075,0 0,0.15 -0.075,0 0,0.075 -0.075,0 0,0.15 -0.075,0 0,0.075 -0.15,0 0,0.15 -0.375,0 0,-0.15 -0.075,0 -0.075,-0.075 -0.15,0 0,-0.075 -0.075,0 0,-0.075 -0.15,0 0,-0.075 0.15,-0.075 0.075,0 0,-0.075 0.15,0 0,-0.075 0.225,0 0.075,-0.075 0,-0.075 0.15,0 0,-0.075 0.225,0 0,-0.075 0.075,0 0.075,-0.15 0.15,0 0,-0.075 0.075,0 0,-0.075 z m -13.275,-1.575 0.075,0 0,0.075 0.075,0 0,0.15 -0.075,0 0,0.225 -0.075,0 0,0.075 -0.075,0 0,0.075 -0.375,0 0,-0.075 0.15,0 0,-0.15 0.075,0 0,-0.15 0.075,0 0,-0.075 0.075,0 0,-0.075 0.075,0 0,-0.075 z m 10.575,-2.925 0.075,0.075 0.075,0.075 0,0.15 0.075,0 0,0.375 -0.075,0.075 -0.075,0.15 0,0.075 -0.075,-0.075 0,0.075 -0.075,0 0,0.075 -0.225,0 0,0.075 -0.15,0 0,0.075 -0.225,0 0,0.075 -0.15,0 0,0.075 -0.225,0 0,0.075 -0.225,0 0,0.075 -0.3,0 0,-0.3 0.15,0 0,-0.15 0.075,-0.075 0,-0.075 0.075,0 0,-0.15 0.075,-0.075 0,-0.075 0.075,0 0,-0.15 0.075,-0.075 0,-0.075 0.075,-0.075 0,-0.075 0.075,0 0,-0.075 0.075,0 0,-0.075 0.075,0.075 0.075,0 0,0.15 0.075,0 0,0.075 0.3,0 0,-0.075 0.075,0 0.075,-0.075 0,-0.075 0.075,-0.075 0.075,0 z m -7.2,-6.975 0.75,0 0,0.075 0.15,0 0,0.15 0.225,0 0,0.075 0.075,0 0,0.075 0.075,0 0,0.075 0.075,0 0,0.15 0.075,0 0,0.075 0.075,0 0,0.075 0.075,0 0,0.225 0.075,0 0,0.225 0.075,0 0,0.225 0.075,0 c 0,0.175 0,0.35 0,0.525 l -0.15,0 0,0.075 -0.15,0 0,0.15 -0.375,0 0,0.075 -0.3,0 0,0.075 -0.225,0 0,0.075 -0.225,0 0,0.075 -0.075,0 -0.075,0.075 -0.075,0 0,0.075 -0.15,0 0,0.075 -0.15,0.15 -0.075,0 0,0.075 -0.075,0 0,0.15 -0.3,0 0,0.075 -0.225,0 0,-0.45 0.075,0 0,-0.075 0.075,0 0,-0.075 0.075,0 0,-0.225 0.075,0 0,-0.075 0.075,-0.075 0,-0.675 -0.075,0 0,-0.525 -0.075,0 0,-0.6 0.075,0 0,-0.075 0.075,0 0,-0.075 0.075,0 0,-0.15 0.15,0 0.075,-0.075 0.15,0 z m 9,-1.425 0.15,0 0,0.225 -0.075,0 0,0.225 -0.075,0.075 0,0.3 -0.075,0 0,0.225 -0.075,0 0,0.3 -0.075,0 0,0.3 -0.075,0.075 0,0.3 -0.075,0 0,0.225 -0.15,0.075 0,0.45 -0.075,0 0,0.15 -0.075,0 0,0.15 -0.075,0 0,0.3 -0.075,0 0,0.3 -0.075,0 0,0.15 -0.075,0.075 0,0.075 -0.075,0 0,0.075 -0.075,0 0,0.075 -0.15,0 0,0.075 -0.075,0 0,0.075 -0.15,0 0,0.075 -0.075,0.15 -0.075,0 0,0.075 -0.075,0.075 -0.075,0.075 -0.075,0 0,0.075 -0.15,0 0,0.075 -0.075,0.075 -0.075,0 0,0.075 -0.075,0 -0.15,0.075 -0.075,0.075 -0.075,0 0,0.075 -0.075,0 0,0.075 -0.075,0 -0.075,0.15 -0.075,0 0,0.075 -0.075,0 0,0.075 -0.15,0 0,0.075 -0.075,0 0,0.075 -0.075,0 0,0.075 -0.375,0 0,-0.375 -0.075,0 0,-0.45 0.075,0 0,-0.45 0.075,0 0,-0.075 0.075,0 0,-0.225 0.075,0 0,-0.15 0.15,0 0,-0.675 0.075,0 0,-0.225 0.075,0 0,-0.15 0.075,-0.075 0,-0.075 0.075,0 0,-0.225 0.075,0 0,-0.225 0.075,0 0,-0.15 0.075,0 0,-0.075 0.075,0 0,-0.075 0.075,0 0,-0.15 0.075,0 0,-0.075 0.075,0 0,-0.15 0.15,0 0,-0.075 0.075,0 0,-0.075 0.075,-0.15 0,-0.075 0.075,0 0,-0.075 0.075,0 0,-0.075 0.15,0 0,-0.075 0.075,-0.075 0.075,-0.075 0.075,0 0,-0.075 0.225,0 0,-0.075 0.15,0 0,-0.075 0.075,0 0,-0.075 0.075,0 0,-0.075 0.15,0 0,-0.15 0.075,0 0,-0.075 0.075,0 0.075,-0.075 0,-0.075 0.3,0 0,-0.075 0.075,0 0,-0.075 0.075,0 0,-0.075 0.075,0 0,-0.075 0.15,0 z m 0.825,-1.8 0.225,0 0,0.075 0.075,0 0,0.075 0.075,0 0,0.075 0.075,0 0,0.975 -0.075,0 0,0.15 -0.075,0 0,0.3 -0.075,0 0,0.225 -0.075,0 0,0.15 -0.075,0 0,0.225 -0.075,0 0,0.3 -0.075,0 0,0.225 -0.075,0 0,0.075 -0.075,0.075 0,0.375 -0.075,0 0,0.375 -0.15,0 0,0.225 -0.075,0 0,0.3 -0.075,0 0,0.225 -0.075,0 c 0,0.15 0,0.3 0,0.45 l -0.075,0 0,0.15 -0.075,0.075 0,0.3 -0.075,0 0,0.225 -0.075,0 0,0.375 -0.075,0 0,0.375 -0.075,0 0,0.75 -0.075,0.15 0,0.075 -0.15,0 0,0.15 -0.075,0 0,0.15 -0.075,0 0,0.075 -0.075,0 0,0.225 -0.075,0 0,0.15 -0.075,0 0,0.3 -0.075,0 0,0.075 -0.075,0 0,0.225 -0.075,0 0,0.15 -0.075,0 0,0.15 -0.075,0 0,0.3 -0.075,0 0,0.15 -0.15,0 0,0.15 -0.075,0.075 0,0.075 -0.075,0 0,0.225 0.075,0 0,0.075 0.075,0 0,0.15 0.15,0.075 0.075,0 0,0.075 0.075,0.075 0.075,0.075 0.075,0.075 0.075,0 0,0.15 0.075,0 0,0.075 0.075,0 0,0.15 0.075,0 0,0.375 0.075,0 0,0.375 -0.075,0 0,0.225 -0.075,0 0,0.225 -0.15,0 0,0.075 -0.225,0 0,0.075 -0.3,0 0,0.075 -0.15,0 0,0.075 -0.075,0 -0.075,0.075 -0.15,0 0,0.075 -0.15,0 0,0.075 -0.15,0 0,0.075 -0.225,0 0,0.075 -0.15,0 0,0.075 -0.15,0 0,0.15 -0.15,0 0,0.075 -0.15,0 0,0.075 -0.075,0 -0.075,0.075 -0.15,0 -0.075,0.075 -0.075,0 -0.075,0.075 -0.075,0 0,0.075 -0.075,0 0,0.075 -0.075,0 0,0.075 -0.075,0 0,0.075 -0.225,0 0,0.075 -0.225,0 0,0.075 -0.225,0 c 0,-0.475 0,-0.95 0,-1.425 l 0.075,0 0,-0.3 0.075,0 0,-0.3 0.075,0 0,-0.15 0.15,0 0,-0.075 0.075,0 0,-0.15 0.075,0 0,-0.075 0.075,-0.075 0,-0.075 0.075,0 0,-0.15 0.075,0 0,-0.15 0.075,0 0,-0.15 0.075,0 0,-0.15 0.075,0 0,-0.15 0.075,0 0,-0.075 0.075,0 0,-0.15 0.075,0 0,-0.225 0.15,0 0,-0.15 0.075,0 0,-0.075 0.075,0 0,-0.15 0.075,0 0,-0.075 0.075,0 0,-0.15 0.075,0 0,-0.45 -0.075,0 0,0.075 -0.15,0 0,0.15 -0.075,0 0,0.075 -0.075,0 -0.15,0.075 -0.15,0.15 -0.3,0 0,0.075 -0.225,0 0,0.075 -0.075,0 0,0.15 -0.075,0 0,0.15 -0.15,0 0,0.3 -0.075,0.075 0,0.225 -0.075,0 0,0.075 -0.075,0 0,0.15 -0.075,0 0,0.15 -0.075,0 0,0.675 -0.075,0 0,0.525 -0.075,0 0,0.3 -0.075,0.075 0,0.15 -0.075,0 0,0.375 -0.075,0.075 0,0.15 -0.15,0 0,0.45 -0.075,0 0,0.675 0.075,0 0,0.075 0.15,0 0,0.075 0,-0.075 0.075,0 0.075,-0.075 0,-0.075 0.15,0 0,-0.075 0.975,0 0,0.075 0.45,0 0,0.075 0.225,0 0,-0.075 0.975,0 0,-0.075 0.15,0 0,0.075 0.75,0 0,-0.075 1.275,0 0.075,-0.075 0.15,0 0.075,-0.075 0.3,0 0,-0.075 0.15,0 0,-0.15 0.075,0 0,-0.075 0.15,0 0.075,-0.075 0.15,0 0,-0.075 0.075,0 0.075,-0.075 0.225,0 0.075,-0.075 0,-0.075 0.15,0 0,-0.075 0.15,0 0,-0.075 0.075,0 0,-0.075 0.075,-0.075 0,-0.075 0.15,0 0,-0.15 0.15,-0.075 0.075,0 0,-0.075 0.075,-0.075 0.075,-0.075 0.075,0 0,-0.075 0.075,0 0,-0.075 0.075,0 0,-0.075 0.075,0 0,-0.075 0.075,0 0,-0.075 0.15,0 0,-0.075 0.3,0 0,-0.075 0.225,0 0,-0.15 0.225,0 0,0.15 0.3,0 0,0.075 0.15,0 0,0.3 -0.15,0 0,0.15 -0.075,0 0,0.225 -0.075,0 0,0.075 -0.075,0 -0.075,0.15 -0.075,0 0,0.075 -0.15,0 0,0.075 -0.15,0 0,0.075 -0.075,0 0,0.075 -0.225,0 0,0.075 -0.075,0 0,0.075 -0.15,0 c 0.03,0.1925 -0.22,0.19375 -0.3,0.3 l -0.075,0.075 0,0.15 -0.075,0.075 -0.075,0.075 0,0.075 -0.075,0 0,0.075 -0.15,0 0,0.075 -0.075,0 0,0.15 -0.075,0 0,0.075 -0.075,0.075 0,0.075 -0.075,0 0,0.075 -0.075,0.15 -0.075,0.075 0,0.075 -0.075,0.075 0,0.075 -0.075,0 0,0.075 -0.15,0.15 -0.15,0.075 0,0.075 -0.075,0 0,0.15 -0.075,0 0,0.225 -0.075,0 0,0.3 0.15,0 0,0.075 0.075,0 0,0.075 0.225,0 0,0.075 0.225,0 0.075,0.075 0.075,0 0.075,0.075 0.15,0 0,0.15 0.3,0 0,0.075 0.225,0 0,0.075 0.225,0 0,0.075 0.225,0 0,0.075 0.3,0 0,0.075 0.3,0 0,0.075 0.15,0 0,0.075 0.225,0 0,0.075 0.375,0 0,0.075 0.3,0 0,0.075 0.15,0 0,0.075 0.15,0 0,0.15 0.3,0 0,0.075 0.225,0 0,0.075 0.15,0 0.075,0.075 0.225,0 0,0.075 0.375,0 0,0.075 0.075,0 0.075,0.075 0.15,0 0.075,0.075 0.15,0 0,0.075 0.15,0 0,0.075 0.15,0 0,0.075 0.075,0.075 0.075,0 0,0.15 0.075,0 0,0.075 0.075,0 0,0.075 0.075,0 0,0.15 -0.075,0 -0.075,0.075 -0.075,0 0,0.075 -0.15,0 0,0.075 -0.375,0 0,0.075 -0.3,0 0,0.075 -0.375,0 0,0.075 -0.45,0 0,0.075 -0.15,0 0,0.15 -1.125,0 0,0.075 -1.05,0 0,-0.075 -0.6,0 0,-0.15 -0.3,0 0,-0.075 -0.3,0 0,-0.075 c -0.15,0 -0.3,0 -0.45,0 l 0,-0.075 -0.15,0 0,-0.075 -0.15,0 0,-0.075 -0.225,0 0,-0.075 -0.075,0 0,-0.075 -0.075,0 -0.075,-0.075 -0.075,0 0,-0.075 -0.075,0 0,-0.075 -0.15,0 0,-0.075 -0.075,0 0,-0.15 -0.15,0 0,-0.075 -0.225,0 0,-0.075 -0.15,0 0,-0.075 -0.15,0 0,-0.075 -0.075,0 0,-0.075 -0.225,0 -0.075,0.075 -0.15,0.075 -0.075,0.075 -0.075,0 0,0.075 -0.075,0 0,0.225 -0.075,0 0,0.075 -0.225,0.225 -0.075,0 0,0.075 -0.075,0.075 0,0.075 -0.075,0 0,0.075 -0.075,0 0,0.075 -0.15,0 0,0.075 -0.075,0 -0.075,0.075 0,0.15 -0.075,0 0,0.075 -0.075,0 0,0.075 -0.15,0 0,0.075 -0.15,0 0,0.075 -0.075,0.075 -0.225,0 0,0.075 -0.075,0 -0.075,0.075 -0.075,0.075 -0.075,0 0,0.075 -0.075,0 0,0.075 -0.075,0 -0.075,0.075 0,0.15 -0.075,0 0,0.075 -0.075,0 0,0.075 -0.075,0 0,0.075 -0.075,0 0,0.075 -0.225,0 0,0.075 -0.225,0 0,0.075 -0.075,0 0,0.075 -0.075,0 0,0.075 -0.15,0 -0.075,0.075 -0.15,0 0,0.075 -0.15,0 0,0.15 -0.225,0 0,0.075 -0.525,0 0,-0.075 -0.45,0 0,-0.15 -0.3,0 0,-0.075 -0.225,0 0,-0.075 -0.375,0 0,-0.075 -0.225,-0.225 -0.075,0 0,-0.075 -0.075,-0.075 0,-0.075 -0.075,0 0,-0.075 -0.075,0 0,-0.225 -0.15,0 0,-0.075 -0.075,-0.075 0,-0.525 -0.075,0 0,-0.45 -0.075,0 0,-0.45 0.075,0 0,-0.675 -0.075,0 0,-0.225 -0.225,0 0,0.075 -0.075,0 0,0.075 -0.075,0 0,0.075 -0.075,0 0,0.075 -0.075,0 0,0.075 -0.075,0.075 -0.15,0.075 -0.075,0.075 -0.075,0.15 0,0.075 -0.075,0 0,0.075 -0.075,0 0,0.075 -0.075,0 -0.15,0.15 -0.075,0 0,0.075 -0.075,0 0,0.075 -0.075,0 0,0.075 -0.15,0.075 -0.075,0.075 -0.075,0 0,0.075 -0.075,0.15 -0.075,0 0,0.075 -0.075,0 0,0.075 -0.15,0 0,0.075 -0.075,0 0,0.075 -0.075,0 -0.075,0.075 -0.075,0.075 -0.15,0.075 -0.075,0 0,0.075 -0.15,0 0,0.075 -0.075,0 0,0.075 -0.075,0 -0.075,0.075 -0.075,0 0,0.15 -0.075,0 -0.075,0.075 -0.15,0 0,0.075 -0.225,0 0,0.075 -0.15,0 0.075,0 -0.15,0 0,0.075 -0.225,0 0,0.075 -0.45,0 -0.075,0.075 -0.075,0 0,0.075 -0.075,0 0,0.075 -0.225,0 0,0.075 -0.15,0 0,0.075 -0.3,0 0,0.15 -0.3,0 0,0.075 -0.225,0 0,0.075 -0.15,0 0,0.075 -0.225,0 0,0.075 -0.225,0 0,-0.075 -0.075,0 0,-0.075 -0.075,0 0,-0.375 -0.075,0 0,-0.15 -0.075,0 0,-0.9 0.075,0 0,-0.075 0.075,0 0,-0.15 0.075,0 0.075,-0.075 0,-0.075 0.075,0 0.075,-0.075 0.075,-0.075 0.15,0 0.075,-0.075 0,-0.15 0.225,-0.225 0,-0.075 0.15,0 0,-0.15 0.15,0 0,-0.075 0.075,0 0,-0.15 0.075,0 0.15,-0.075 0,-0.075 0.075,0 0,-0.15 -0.075,0 0,-0.075 -0.225,0 0,-0.075 -0.45,0 0,-0.075 -0.225,0 0,-0.075 c -0.42125,0.0238 0.1375,-0.1025 -0.525,-0.075 l 0,0.075 -0.075,0 -0.075,0.075 -0.075,0.075 -0.075,0.075 -0.075,0.075 -0.075,0.15 -0.15,0.075 -0.075,0.075 0,0.075 -0.075,0.075 -0.075,0 0,0.075 -0.075,0 0,0.075 -0.075,0 0,0.075 -0.075,0 0,0.075 -0.075,0 -0.075,0.075 -0.6,0 0,-0.075 -0.15,-0.15 0,-0.075 -0.075,0 0,-0.075 -0.075,0 0,-0.225 -0.075,0 0,-0.375 -0.075,0 0,-0.075 0.075,0 0,-0.15 0.075,-0.075 0.15,0 0,-0.075 0.075,0 0,-0.075 0.15,0 0,-0.075 0.075,0 0,-0.075 0.15,0 0.15,-0.075 0.075,-0.15 0.075,0 0.075,-0.075 0,-0.075 0.075,0 0,-0.075 0.075,0 0.15,-0.15 0.075,0 0,-0.075 0.075,0 0.075,-0.075 0.15,0 0,-0.075 0.075,0 0,-0.075 0.075,0 0,-0.075 0.075,0 0,-0.075 0.075,0 0,-0.15 0.075,0 0,-0.075 0.075,0 0.075,-0.075 0.075,-0.075 0.075,0 0,-0.075 0.075,0 0,-0.075 0.075,0 0.15,-0.075 0.075,-0.075 0.075,-0.075 0.075,0 0,-0.075 0.075,0 0,-0.075 0.075,0 0.075,-0.15 0,-0.075 0.075,0 0,-0.075 -0.375,0 0,-0.075 -0.075,0 -0.075,-0.075 0,-0.075 -0.15,0 0,-0.15 -0.075,0 0,-0.3 -0.075,0 0,-0.375 -0.075,0 0,-0.225 -0.075,0 0,-0.3 -0.075,0 0,-0.225 -0.075,-0.075 0,-0.225 0.075,0 0,-0.225 0.075,0 0,-0.075 0.075,0 0,-0.15 0.075,0 0,-0.225 0.075,0 0,-0.15 0.075,0 0,-0.075 0.15,0 0,-0.075 0.075,0 0,-0.15 0.075,0 0,-0.15 0.075,0 0,-0.075 0.075,0 0,-0.075 0.075,0 0,-0.075 0.075,0 0,-0.225 0.075,0 0,-0.075 0.075,0 0,-0.075 0.075,0 0.075,-0.075 0.15,-0.075 0,-0.075 0.075,0 0,-0.075 0.075,0 0,-0.225 -0.075,0 0,-0.075 -0.075,0 0,-0.15 -0.15,0 0,-0.15 -0.075,0 0,-0.15 -0.075,0 0,-0.15 -0.075,0 0,-0.225 -0.075,0 0,-0.225 -0.075,0 0,-0.225 0.075,0 0,-0.15 0.075,0 0,-0.075 0.15,0 0,-0.075 0.075,-0.075 0.15,0 0.075,-0.075 0,-0.075 0.075,0 0.075,-0.075 0.075,0 0,-0.15 0.075,0 0,-0.075 0.075,0 0.075,-0.075 0.075,0 0,-0.075 0.075,0 0.075,-0.075 0.075,0 0,-0.075 0.15,0 0,-0.075 0.075,0 0,-0.075 0.225,0 0,-0.075 0.075,0 0,-0.075 0.375,0 0.15,0.075 0,-0.075 0.075,0 0,0.075 0.075,0 0,0.075 0.075,0 0,0.075 0.075,0.075 0,0.075 0.075,0.075 0,0.075 0.075,0 0,0.075 0.075,0.075 0.075,0.15 0.075,0.075 0.075,0.075 0,0.075 0.225,0 0,0.225 0.075,0 0,0.225 0.075,0 0,0.375 -0.075,0 0,0.075 -0.075,0 0,0.075 -0.225,0 0,0.075 -0.15,0 -0.075,0.075 -0.15,0 0,0.075 -0.075,0 -0.075,0.075 0,0.075 -0.15,0 0,0.075 -0.075,0 0,0.075 -0.15,0 0,0.225 -0.075,0 0,0.075 -0.075,0 0,0.15 -0.075,0 -0.15,0.15 0,1.125 0.075,0 0,0.075 0.075,0 0,-0.075 0.15,0 0,-0.075 0.075,0 0,-0.075 0.15,0 0,-0.075 0.075,0 0.075,-0.075 0.075,0 0,-0.075 0.075,0 0,-0.075 0.075,0 0.075,-0.075 0.075,0 0,-0.075 0.075,0 0,-0.225 0.075,0 0,-0.3 0.075,0 0.075,0.075 0,0.075 0.15,0 0,0.225 0.075,0.15 0,0.075 0.075,0 0,0.15 0.075,0.075 0,0.15 0.075,0 0,0.825 -0.075,0 0,0.075 -0.075,0 0,0.15 -0.075,0 0,0.075 -0.075,0.075 -0.15,0 0,0.075 -0.075,0 0,0.075 -0.075,0 0,0.15 -0.075,0 0,0.075 -0.075,0 0,0.075 -0.075,0 -0.075,0.075 0,0.075 0.825,0 0,-0.075 0.45,0 0,0.075 0.45,0 0,-0.075 0,0.075 0.3,0 0,0.075 0.075,0.075 0.075,0.075 0.075,0 0.075,0.075 0.15,0.075 0,0.075 0.075,0.075 0.075,0 0,0.375 -0.075,0 0,0.075 -0.075,0 0,0.075 -0.15,0.075 -0.075,0.075 0,0.075 -0.075,0 0,0.075 -0.075,0 0,0.075 -0.075,0 0,0.075 -0.075,0 0,0.225 -0.075,0 0,0.075 -0.075,0 0,0.075 -0.075,0 0,0.075 -0.075,0.075 -0.075,0.075 -0.15,0.075 -0.075,0 -0.075,0.15 -0.075,0 -0.075,0.075 -0.075,0.225 -0.075,0 0,0.075 -0.075,0 -0.075,0.075 0,0.075 -0.075,0 -0.15,0.15 0,0.075 -0.15,0 0,0.075 -0.075,0 -0.075,0.075 -0.075,0 0,0.075 -0.075,0.075 -0.075,0.15 -0.075,0.075 -0.075,0 0,0.075 -0.075,0 0,0.075 -0.075,0 -0.075,0.075 -0.075,0.075 -0.15,0.075 -0.075,0.075 -0.075,0.075 0,0.075 -0.075,0 -0.075,0.075 -0.075,0 0,0.225 -0.075,0.075 0,0.45 -0.15,0.15 -0.6,0 0,0.075 -0.075,0 0,0.075 -0.075,0 0,0.15 -0.075,0.075 -0.075,0 0,0.075 0.075,0 0,0.075 0.225,0 0,-0.075 0.15,0 0.075,-0.075 0.225,0 0,-0.075 0.15,0 0,-0.15 0.075,0 0,-0.075 0.15,0 0,-0.075 0.15,0 0,-0.075 0.15,0 0.075,-0.075 0.15,0 0,-0.075 0.15,0 0,-0.075 0.075,-0.075 0.075,0 0.075,-0.075 0.075,0 0,-0.075 0.15,0 0,-0.15 0.15,0 0,-0.15 0.075,0 0,-0.075 0.15,0 0,-0.075 0.075,0 0.075,-0.075 0.075,0 0,-0.075 0.075,0 0.075,-0.075 0,-0.075 0.075,0 0,-0.075 0.075,0 0.075,-0.075 0,-0.075 0.075,0 0.075,-0.075 0.075,-0.075 0.15,0 0,-0.15 0.075,-0.075 0,-0.075 0.15,0 0,-0.075 0.075,0 0,-0.075 0.075,0 c -0.03,-0.2525 0.405,-0.19875 0.375,-0.45 l 0.15,0 0,-0.225 0.075,-0.075 0.075,0 0.075,-0.075 0.075,-0.075 0.075,-0.075 0.075,-0.075 0.075,-0.075 0.075,-0.075 0,-0.075 0.075,0 0,-0.075 0.075,0 0,-0.75 0.075,0 0,-0.225 0.15,0 0,-0.975 0.075,0 0,-0.675 0.075,0 0,-0.6 0.075,0 0,-0.525 0.075,0 0,-0.225 0,0.075 0,-0.3 0.075,0 0,-0.9 0.075,0 0,-0.3 0.075,0 0,-0.45 0.075,0 0,-0.45 0.075,0 0,-0.3 0.075,0 0,-0.6 0.15,0 0,-0.3 0.075,0 0,-0.675 0.075,0 0,-0.075 0.075,0 0,-0.525 0.075,0 0,-0.45 0.075,0 0,-0.15 0.075,0 0,-0.3 0.075,0 0,-0.225 0.075,-0.075 0,-0.15 0.075,0 0,-0.15 0.075,0 0,-0.15 0.075,0 0,-0.225 0.15,0 0,-0.15 0.075,-0.075 0,-0.15 0.075,0 0,-0.075 0.075,0 0,-0.15 0.075,-0.075 0,-0.225 0.075,0 0,-0.075 0.075,-0.15 0,-0.075 0.075,0 0,-0.225 0.075,0 0,-0.15 0.075,0 0,-0.075 0.075,0 0,-0.3 0.15,0 0,-0.225 0.075,0 0,-0.075 0.3,0 0,0.075 0.075,0 0,0.075 0.15,0 0,0.15 0.225,0 0.15,-0.15 0.075,-0.075 0.075,-0.075 0,-0.075 0.075,0 0.075,-0.075 0,-0.075 0.075,0 0,-0.075 0.075,0 0.075,-0.075 0,-0.075 0.075,0 0,-0.075 0.075,-0.075 0.075,0 0,-0.075 0.075,-0.15 0.15,0 0,-0.075 0.075,0 0,-0.075 0.075,0 0.075,-0.075 0.075,0 0,-0.075 0.075,0 0,-0.075 0.075,0 0.075,-0.075 0.075,-0.075 0.075,0 0,-0.075 0.075,0 0,-0.075 0.225,0 0,-0.075 0.075,0 0,-0.075 0.15,0 0,-0.15 0.075,0 0,-0.075 0.15,0 0,-0.075 0.15,0 0,-0.075 0.075,0 0.075,-0.075 0,-0.075 0.15,0 0.075,-0.075 0.075,0 0,-0.075 0.075,0 0,-0.075 0.075,0 0.225,-0.225 0,-0.15 0.075,0 0.075,-0.075 0,-0.075 0.225,0 0,-0.075 0.075,0 0,-0.075 0.225,0 0,-0.075 z m -10.5,-0.9 0.075,0 0,0.075 0.15,0 0,0.075 0.15,0 0,0.075 0.15,0 0,0.075 0.075,0 0,0.075 0.225,0 0,0.15 0.075,0 0,0.075 0.15,0 0,0.15 0.075,0 0,0.075 0.075,0.075 0,0.075 0.075,0 0,0.15 0.075,0 0.075,0.075 0,0.075 0.075,0 0,0.15 0.075,0 0,0.075 0.15,0.075 0.075,0.075 0,0.075 0.075,0 0,0.075 0.075,0 0,0.15 0.075,0 0,0.3 -0.075,0.15 0,0.075 -0.075,0 0,0.15 -0.075,0 0,0.075 -0.075,0 0,0.075 -0.15,0.075 -0.075,0 0,0.075 -0.075,0 0,0.075 -0.225,0 0,0.075 -0.375,0 0,0.075 -0.45,0 0,0.075 -0.3,0 -0.075,0.15 -0.075,0 0,0.075 -0.225,0 0,0.075 -0.075,0 0,0.075 -0.075,0 0,0.15 -0.075,0 -0.075,0.075 -0.075,0 0,0.075 -0.075,0 -0.075,0.075 0,0.075 -0.075,0 0,0.075 -0.075,0 0,0.075 -0.075,0.15 -0.075,0.075 -0.15,0.075 0,0.075 -0.075,0 0,0.075 -0.075,0 0,0.075 -0.075,0 0,0.075 -0.15,0.15 0,0.075 -0.075,0 0,0.15 -0.075,0 0,0.15 -0.075,0.075 0,0.075 -0.075,0 0,0.15 -0.075,0 0,0.075 -0.15,0 0,0.15 -0.075,0 0,0.15 -0.075,0 0,0.075 -0.075,0 0,0.3 -0.075,0 0,0.075 -0.075,0 0,0.075 -0.075,0 0,0.15 -0.075,0 0,0.075 -0.075,0 0,0.15 -0.075,0 0,0.15 -0.075,0 0,0.225 -0.075,0 0,0.075 -0.15,0.075 0,0.075 -0.075,0 0,0.225 -0.075,0 0,0.075 -0.075,0 0,0.15 -0.075,0 0,0.225 -0.075,0.075 -0.075,0 0,0.15 -0.075,0.075 0,0.075 -0.075,0 0,0.15 -0.075,0 0,0.225 -0.075,0 0,0.075 -0.15,0.15 0,0.075 -0.075,0 0,0.15 -0.075,0 0,0.15 -0.075,0.075 0,0.075 -0.075,0 0,0.15 -0.075,0 0,0.3 -0.075,0 0,0.15 -0.075,0 0,0.15 -0.075,0 0,0.15 -0.075,0 0,0.15 -0.075,0 0,0.15 -0.075,0 0,0.225 -0.15,0 0,0.15 -0.075,0 0,0.15 -0.075,0 0,0.15 -0.075,0 0,0.15 -0.075,0.075 0,0.225 -0.075,0 0,0.225 -0.075,0 0,0.075 -0.075,0.075 0,0.15 -0.075,0 0,0.075 -0.075,0 0,0.15 -0.075,0.075 0,0.15 -0.15,0.075 0,0.15 -0.075,0 0,0.075 -0.075,0 0,0.15 -0.075,0.075 0,0.075 -0.075,0 0,0.225 -0.075,0 0,0.3 -0.075,0 0,0.075 -0.075,0 0,0.15 -0.075,0 0,0.225 -0.075,0 0,0.15 -0.075,0 0,0.075 -0.075,0 0,0.3 -0.15,0.075 0,0.15 -0.075,0 0,0.225 -0.075,0 0,0.825 -0.075,0 0,0.15 -0.15,0 0,0.075 -0.375,0 -0.075,-0.075 -0.15,-0.075 -0.075,-0.075 0,-0.075 -0.075,0 -0.075,-0.075 0,-0.075 -0.075,0 0,-0.15 -0.075,0 0,-0.075 -0.075,0 c 0,-0.225 0,-0.45 0,-0.675 l 0.075,0 0,-0.3 0.075,0 0,-0.45 0.075,0 0,-0.15 0.15,0 0.075,-0.075 0.375,0 0,-0.075 0.075,0 0,-0.075 0.075,0 0,-0.075 0.075,0 0,-0.225 0.075,0 0,-0.075 0.075,0 0,-0.15 0.075,0 0,-0.15 0.075,0 0,-0.075 0.075,0 0,-0.15 0.15,0 0,-0.15 0.075,0 0,-0.225 0.075,0 0,-0.15 0.075,0 0,-0.15 0.075,0 0,-0.15 0.075,0 0,-0.075 0.075,0 0,-0.15 0.075,-0.075 0,-0.225 0.075,0 0,-0.225 0.075,0 0,-0.15 0.075,0 0,-0.075 0.075,0 0,-0.075 0.15,-0.075 0,-0.15 0.075,0 0,-0.225 0.075,0 0,-0.15 0.075,0 0,-0.225 0.075,0 0,-0.075 0.075,0 0,-0.225 0.075,0 0,-0.225 0.075,-0.075 0,-0.075 0.075,0 0,-0.15 0.075,-0.075 0,-0.075 0.075,0 0,-0.15 0.15,0 0,-0.15 0.075,0 0,-0.3 0.075,0 0,-0.15 0.075,0 0,-0.15 0.075,0 0,-0.15 0.075,0 0,-0.15 0.075,0 c -0.0225,-0.34375 0.0975,-0.10625 0.075,-0.45 l 0.075,0 0,-0.15 0.075,0 0,-0.15 0.075,0 0,-0.225 0.075,0 0,-0.3 0.15,-0.075 0,-0.075 0.075,0 0,-0.15 0.075,0 0,-0.15 0.075,0 0,-0.15 0.075,-0.075 0,-0.225 0.075,0 0,-0.15 0.075,0 0,-0.225 0.075,0 0,-0.15 0.075,-0.075 0,-0.075 0.075,0 0,-0.3 0.075,0 0,-0.15 0.15,0 0,-0.15 0.075,0 0,-0.15 0.075,0 0,-0.075 0.075,-0.075 0,-0.15 0.075,0 0,-0.225 0.075,0 0,-0.15 0.075,0 0,-0.075 0.075,-0.075 0,-0.075 0.075,-0.075 0,-0.15 0.075,0 0,-0.075 0.075,0 0,-0.15 0.075,-0.15 0,-0.075 0.15,0 0,-0.15 0.075,0 0,-0.15 0.075,0 0,-0.15 0.075,0 0,-0.15 0.075,0 0,-0.075 0.075,0 0,-0.225 0.075,0 0,-0.15 0.15,0 0,-0.15 0.075,-0.075 0,-0.15 0.075,0 0,-0.075 0.15,0 0,-0.15 0.075,0 0.075,-0.075 0,-0.15 0.075,0 0,-0.15 0.075,0 0,-0.075 0.075,-0.075 0,-0.075 0.075,0 0,-0.15 0.075,0 0.075,-0.075 0,-0.075 0.075,0 0,-0.075 0.075,0 0,-0.225 0.075,0 0,-0.075 0.15,0 0,-0.075 0.075,0 0,-0.075 0.075,0 0,-0.075"
       style="fill:#1f1a17;fill-opacity:1;fill-rule:evenodd;stroke:none"
       id="path3182" />
    <path
       inkscape:connector-curvature="0"
       d="m 433.05407,305.47127 0.525,0 0,0.075 0.225,0 0,0.075 0.15,0 0,0.15 -0.225,0 0,0.075 -0.075,0.15 -0.075,0 0,0.15 -0.15,0 0,0.075 -0.075,0 0,0.075 -0.075,0 0,0.075 -0.3,0.3 -0.15,0 0,0.075 -0.075,0 0,0.075 -0.075,0 0,0.15 -0.075,0 0,0.075 -0.15,0 0,0.075 -0.3,0 0,-0.075 -0.675,0 0,0.075 -0.675,0 0,0.075 -0.15,0 0,0.075 -0.6,0 0,0.075 -0.225,0 0,0.075 -0.375,0 0,0.075 -0.15,0 0,0.075 -0.3,0 0,0.075 -0.375,0 0,0.075 -0.225,0 0,0.15 -0.15,0 -0.15,0.075 -0.075,0 0,0.075 -0.3,0 0,0.075 -0.3,0 0,0.075 -0.075,0 0,0.075 -0.225,0 0,0.075 -0.075,0 0,0.075 0.075,0 0,0.075 0.075,0.075 0.15,0.075 0.075,0.075 0.075,0 0,0.15 0.075,0 0,0.075 0.15,0 0,0.075 0.075,0 0.075,0.075 0,0.075 0.075,0 0,0.075 0.075,0 0,0.075 0.075,0 0,0.375 -0.075,0.15 0,0.15 -0.075,0.075 0,0.3 -0.075,0.075 0,-0.075 0,0.675 -0.075,0 0,0.9 -0.075,0 0,0.075 0.075,0 0,0.375 0.075,0 0,0.075 -0.075,0 0,0.15 0.075,0 c -0.04,0.67125 0.0738,0.6025 0.075,1.125 l 0.075,0 0,0.45 0.075,0 0,0.525 0.15,0 0,0.375 0.075,0.075 0,0.15 0.075,0 c 0,0.325 0,0.65 0,0.975 l 0.075,0 0,0.15 0.075,0 0,0.6 0.075,0 0,0.675 0.075,0 0,1.125 -0.075,0 0,0.15 -0.075,0.075 0,0.15 -0.15,0 0,0.225 -0.075,0 0,0.15 -0.075,0 0,0.075 -0.15,0 -0.15,0.15 -0.075,0 0,0.075 -0.075,0.075 -0.075,0 0,0.075 -0.15,0 0,0.075 -0.075,0 0,0.075 -0.075,0 0,0.075 -0.075,0 0,0.15 -0.225,0 0,0.075 -0.075,0.075 -0.075,0 0,0.075 -0.075,0 0,0.075 -0.15,0 0,0.075 -0.525,0 -0.075,-0.075 -0.225,0 0,-0.075 -0.15,0 0,-0.075 -0.075,0 0,-0.075 -0.075,0 -0.075,-0.075 0,-0.15 -0.075,0 0,-0.075 -0.15,0 0,-0.225 -0.075,0 0,-0.075 -0.075,-0.075 0,-0.075 -0.075,0 0,-0.3 -0.075,0 0,-0.225 -0.075,0 0,-0.075 -0.075,-0.075 0,-0.075 -0.075,0 0,-0.075 -0.075,0 0,-0.075 -0.075,-0.075 -0.075,0 0,-0.075 -0.075,0 0,-0.15 -0.15,0 0,-0.075 -0.075,0 0,-0.15 -0.075,0 -0.075,-0.075 -0.075,0 0,-0.075 -0.075,0 0,-0.075 -0.075,0 -0.15,-0.15 -0.15,0 0,-0.075 -0.15,0 0,-0.075 -0.15,0 0,-0.075 -0.075,0 -0.075,-0.075 -0.075,0 0,-0.075 -0.075,0 0,-0.15 -0.15,0 0,-0.075 -0.075,0 0,-0.075 -0.15,0 0,-0.075 -0.225,0 0,-0.075 -0.075,0 -0.075,-0.075 -0.075,0 0,-0.075 -0.15,0 0,-0.075 -0.075,0 0,-0.075 -0.15,0 0,-0.075 -0.075,0 -0.075,-0.075 -0.15,-0.075 -0.075,-0.15 -0.075,-0.075 -0.075,0 0,-0.075 -0.075,0 -0.075,-0.075 0,-0.075 -0.075,0 0,-0.075 -0.075,0 0,-0.15 -0.075,0 0,-0.225 0.075,0 0,-0.075 0.375,0 0,0.075 0.15,0 0,0.075 0.15,0 0,0.075 0.075,0 0,0.075 0.075,0 0,0.075 0.075,0 0,0.075 0.075,0 0,0.075 0.15,0 0,0.075 0.15,0 0,0.075 0.15,0 0,0.075 0.375,0 0,0.075 0.225,0 0.075,0.15 0.15,0 0,0.075 0.15,0 0,0.075 c 0.62625,-0.0437 0.37125,0.0875 0.675,0.075 l 0,0.075 0.225,0 0,0.075 0.45,0 0,0.075 0.15,0 0,0.075 0.75,0 0,-0.075 0.075,0 0,-0.075 0.075,0 0,-0.075 0.075,0 0,-0.15 0.075,0 0,-0.075 0.075,0 0,-0.225 0.075,0 0,-0.15 0.075,0 0,-0.375 0.075,0 0,-0.975 -0.075,0 0,-2.85 0.075,0 c 0,-0.575 0,-1.15 0,-1.725 l -0.075,0 0,-0.975 0.075,0 0,-0.525 0.15,0 -0.15,-0.15 0,-0.075 -0.3,0 0,0.075 -0.075,0 0,0.15 -0.15,0 0,0.075 -0.225,0 0,0.075 -0.225,0 -0.075,0.075 -0.075,0 0,0.075 -0.15,0 0,0.075 -0.075,0 0,0.075 -0.225,0 0,0.075 -0.15,0 0,0.075 -0.15,0 -0.075,0.075 -0.075,0 0,0.075 -0.15,0 0,0.075 -0.075,0 -0.075,0.15 -0.15,0 0,0.075 -0.15,0 0,0.15 -0.3,0 0,0.075 -0.15,0 0,0.075 -0.15,0 0,0.075 -0.15,0 0,0.075 -0.075,0 0,0.075 -0.15,0 0,0.075 -0.225,0 -0.075,0.075 -0.15,0 0,0.075 -0.15,0 0,0.15 -0.075,0.075 -0.075,0 -0.075,0.075 -0.075,0 0,0.075 -0.225,0 0,0.075 -0.3,0 0,-0.075 -0.15,0 0,-0.075 -0.15,0 0,-0.075 -0.075,0 0,-0.225 -0.075,0 0,-0.15 -0.15,0 0,-0.3 0.15,0 0,-0.225 0.075,0 0,-0.075 0.075,-0.075 0,-0.15 0.075,0 0,-0.075 0.15,0 0,-0.075 0.225,0 0,-0.075 0.3,0 0,-0.075 0.15,0 0,-0.075 0.3,0 0,-0.075 0.15,0 0,-0.075 0.225,0 0,-0.075 0.15,0 0,-0.075 0.3,0 0,-0.075 0.15,0 0,-0.075 0.15,0 0,-0.15 0.15,0 0,-0.075 0.225,0 0,-0.075 0.15,0 0,-0.075 0.075,0 0.075,-0.075 0.15,0 0,-0.075 0.075,0 0.075,-0.075 0.15,0 0,-0.075 0.15,0 0.075,-0.075 0.075,0 0,-0.075 0.225,0 0,-0.075 0.075,0 0,-0.075 0.15,0 0,-0.15 0.15,0 0.075,-0.075 0.15,0 0,-0.075 0.15,0 0.075,-0.075 0.075,0 0,-0.075 0.15,0 0,-0.075 0.225,0 0.075,-0.075 0.15,0 0.075,-0.075 0.15,0 0,-0.075 0.15,0 0.075,-0.075 0.15,0 0.075,-0.075 0.15,0 0.15,-0.15 0.225,0 0,-0.075 0.15,0 0,-0.075 0.075,0 0,0.075 0,-0.075 0.15,0 0,-0.075 0.15,0 0,-0.075 0.3,0 0,-0.075 0.3,0 0,-0.075 0.3,0 0,-0.075 0.3,0 0,-0.075 0.225,0 0,-0.075 0.225,0 0,-0.075 0.3,0 0,-0.075 c 0.15,0 0.3,0 0.45,0 l 0,-0.15 0.375,0 0,-0.075 0.525,0 0,-0.075 0.375,0 0,-0.075 0.3,0 0,-0.075 0.45,0 0,-0.075 0.525,0 z m -1.8,-4.275 0.525,0 0,0.3 -0.075,0 0,0.075 -0.075,0 0,0.075 -0.075,0.075 -0.075,0 0,0.15 -0.075,0 0,0.075 -0.075,0 0,0.225 -0.075,0 0,0.15 -0.075,0.075 0,0.225 -0.075,0 0,0.075 -0.15,0.075 -0.075,0 0,0.075 -0.15,0 0,0.075 -0.75,0 0,0.15 -0.3,0 0,0.075 -0.15,0 -0.075,0.075 -0.15,0 -0.075,0.075 0,-0.075 0,0.075 -0.375,0 -0.075,-0.075 -0.15,0 0,-0.075 -0.075,0 0,0.075 -0.45,0 0,0.075 -0.375,0 0,0.075 -0.225,0 0,0.075 -0.375,0 0,0.075 -0.225,0 0,0.075 -0.15,0 0,0.075 -0.15,0 0,0.075 -0.15,0 0,0.075 -0.225,0 0,0.075 -0.15,0 0,0.15 -0.15,0 0,0.075 -0.15,0 0,0.075 -0.225,0 0,0.075 -0.075,0 0,0.075 -0.15,0 -0.075,0.075 -0.075,0 -0.075,0.075 -0.15,0 0,0.075 -0.075,0.075 -0.075,0 0,0.075 -0.075,0 0,0.075 -0.15,0 0,0.075 -0.075,0.15 -0.15,0.075 0,0.075 -0.15,0 0,0.075 -0.075,0 -0.075,0.075 0,0.075 -0.075,0 0,0.075 -0.075,0 0,0.075 -0.225,0 0,-0.075 -0.225,0 0,-0.075 -0.075,0 0,-0.075 -0.075,0 0,-0.15 -0.075,0 0,-0.075 -0.075,-0.075 0,-0.3 -0.075,0 0,-0.3 -0.075,0 c 0,-0.2 0,-0.4 0,-0.6 l 0.075,0 0,-0.3 0.075,0 0,-0.075 0.075,-0.075 0,-0.075 0.075,0 0,-0.15 c 0.2,0 0.4,0 0.6,0 l 0,0.075 0.075,0 0,0.075 0.825,0 0,-0.075 0.225,0 0.075,-0.075 0.225,0 0,-0.075 0.15,0 0,-0.15 0.225,0 0,-0.075 0.225,0 0,-0.075 0.15,0 0.075,-0.075 0.225,0 0,-0.075 0.075,0 0,-0.075 0.225,0 0.075,-0.075 0.075,0 0,-0.075 0.225,0 0,-0.075 0.3,0 0,-0.075 0.075,0 0,-0.075 0.15,0 0.075,-0.15 0.225,0 0,-0.075 0.15,0 0,-0.075 0.3,0 0,-0.075 0.15,0 0.075,-0.075 0.225,0 0.075,-0.075 0.45,0 0.075,-0.075 0.375,0 0,-0.075 0.3,0 0,-0.075 0.3,0 0,-0.075 0.3,0 0,-0.075 0.3,0 0,-0.075 0.3,0 z m -10.425,-6.15 0.975,0 0,0.075 0.075,0.075 0,0.075 0.075,0 0,0.15 0.075,0.075 0,0.075 0.075,0.075 0,0.15 0.075,0 0,0.075 0.075,0 0,0.075 0.075,0 0,0.3 0.075,0 0,0.15 0.075,0 0,0.15 0.15,0 0,0.15 0.075,0 0,0.15 0.075,0 0,0.15 0.075,0.075 0,0.225 0.075,0.075 0,0.15 0.075,0 0,0.225 0.075,0 0,0.675 0.075,0 0,0.225 0.075,0 0,0.225 0.075,0.075 0,0.525 c 0,0.325 0,0.65 0,0.975 l -0.075,0 0,0.075 -0.15,0.15 0,0.075 -0.075,0 0,0.15 -0.075,0 0,0.3 -0.075,0 0,0.15 -0.075,0 0,0.075 -0.075,0 0,0.075 -0.075,0 0,0.15 -0.15,0 0,0.15 -0.075,0 0,0.15 -0.075,0 0,0.075 -0.075,0.15 0,0.15 -0.075,0 0,0.075 -0.075,0 0,0.15 -0.075,0 0,0.075 -0.075,0 -0.075,0.075 -0.075,0 0,0.075 -0.3,0 0,0.075 -0.525,0 0,0.075 -0.375,0 -0.075,0.15 -0.075,0 -0.075,0.075 -0.075,0 -0.075,0.075 -0.15,0 0,0.075 -0.075,0 -0.075,0.075 -0.15,0 0,0.075 -0.15,0 0,0.075 -0.075,0 0,0.075 -0.075,0 -0.075,0.075 -0.15,0 0,0.075 -0.15,0 0,0.075 -0.15,0 0,0.075 -0.225,0 -0.075,0.15 -0.075,0 0,0.075 -0.075,0 0,0.075 -0.15,0 0,0.075 -0.075,0 0,0.075 -0.15,0 0,0.075 -0.075,0 0,0.075 -0.15,0 0,0.075 -0.15,0 0,0.075 -0.15,0 0,0.075 -0.15,0.15 -0.075,0.15 -0.15,0.15 -0.075,0.075 -0.075,0.075 -0.075,0.075 0,0.075 -0.15,0 0,0.15 0.15,0 0,0.075 0.225,0 0,0.075 0.225,0 0,0.075 0.525,0 0,0.15 0.225,0 0,0.075 0.375,0 0,0.075 0.075,0 0,0.075 0.375,0 0,0.075 0.225,0.225 0.075,0 0.075,0.075 0.075,0 0,0.075 0.075,0 0,0.075 0.075,0 0,0.075 0.15,0 0.075,0.15 0.075,0.075 0.075,0.075 0,0.075 0.075,0 0,0.15 0.075,0 0,0.15 0.075,0 0,0.525 -0.075,0 0,0.075 -0.075,0 0,0.075 -0.075,0 0,0.075 -0.075,0 -0.15,0.15 -0.15,0.075 0,0.075 -0.075,0 0,0.075 -0.075,0 0,0.075 -0.075,0 0,0.15 -0.075,0 0,0.075 -0.075,0 0,0.075 -0.075,0 0,0.075 -0.075,0.075 0,0.075 -0.075,0 0,0.075 -0.075,0.075 -0.075,0.075 -0.15,0 0,0.075 -0.075,0.075 0,0.225 -0.075,0 c 0,0.26625 -0.665,0.46 -0.675,0.75 l -0.225,0 0,0.075 -0.075,0 0,0.225 -0.075,0 -0.075,0.075 -0.075,0.075 0,0.075 -0.15,0 -0.075,0.075 0,0.075 -0.075,0 0,0.075 -0.075,0.075 -0.15,0.075 -0.075,0.075 -0.075,0.075 -0.075,0.15 -0.075,0 0,0.3 0.225,0 0,0.075 0.225,0 0,0.075 0.15,0 0,0.075 0.075,0 0,0.075 0.15,0 0,0.075 0.075,0 0,0.075 0.075,0 0.075,0.075 0.075,0 0,0.15 0.225,0 0,0.075 0.075,0 0,0.15 0.075,0 0.075,0.075 0.075,0.075 0.075,0.075 0.075,0.075 0.075,0.075 0.075,0.075 0.075,0.075 0,0.15 0.075,0 0,0.15 0.075,0 0,0.375 0.15,0 0,0.3 0.075,0 0,0.375 0.075,0 0,0.15 0.075,0 0,0.075 -0.075,0 0.075,0 0,0.825 0.075,0 0,0.45 -0.075,0 0,0.525 -0.075,0 0,0.15 -0.075,0.075 0,0.15 -0.075,0 0,0.15 -0.15,0 0,0.225 -0.075,0 0,0.3 -0.075,0 0,0.3 -0.075,0 0,0.075 -0.075,0 0,0.15 -0.075,0 0,0.075 -0.225,0 0,-0.075 -0.15,0 0,-0.15 -0.075,0 0,-0.075 -0.15,0 -0.225,-0.225 -0.075,0 0,-0.075 -0.075,0 0,-0.075 -0.15,0 -0.075,-0.075 -0.075,0 0,-0.075 -0.075,0 0,-0.075 -0.15,0 -0.075,-0.075 -0.075,0 0,-0.15 -0.075,0 0,-0.075 -0.075,0 0,-0.075 -0.075,0 0,-0.075 -0.15,0 0,-0.075 -0.075,0 0,-0.15 -0.075,0 0,-0.15 -0.075,0 0,-0.45 -0.075,0 0,-0.3 0.075,0 0,-1.05 0.075,0 0,-0.525 0.075,0 0,-0.3 0.075,0 0,-0.225 0.075,0 0,-0.45 0.075,0 0,-0.075 -0.075,0 0.075,0 0,-0.3 -0.075,0 0,-0.15 -0.3,0 0,0.075 -0.225,0 0,0.075 -0.225,0 0,0.075 -0.15,0 0,0.075 -0.15,0 0,0.075 -0.15,0 0,0.075 -0.075,0 -0.075,0.075 -0.225,0 0,0.15 -0.075,0 0,0.075 -0.15,0 0,0.075 -0.15,0 0,0.075 -0.075,0 -0.075,0.075 -0.075,0 0,0.075 -0.075,0 0,0.075 -0.15,0.075 -0.075,0.075 -0.075,0 0,0.075 -0.075,0.075 0,0.075 -0.075,0 0,0.3 -0.075,0.075 0,0.225 -0.075,0 0,0.075 -0.075,0.075 -0.075,0.075 -0.15,0 c -0.3,0 -0.6,0 -0.9,0 l 0,-0.075 -0.075,0 0,-0.075 -0.225,0 0,-0.075 -0.225,0 0,-0.075 -0.225,0 0,-0.075 -0.15,0 0,-0.075 -0.075,0 0,-0.075 -0.075,0 0,-0.075 -0.15,0 -0.075,-0.075 0,-0.15 -0.075,0 0,-0.075 -0.075,-0.075 0,-0.075 -0.075,0 0,-0.225 -0.075,0 0,-0.375 -0.075,0 0,-0.15 -0.075,-0.075 0,-0.3 0.075,0 0,-0.225 0.075,0 0,-0.45 0.075,0 0,-0.075 0.075,-0.075 0.075,-0.075 0,-0.075 0.15,0 0,-0.075 0.15,0 0,-0.075 0.075,0 0,-0.075 0.075,-0.075 0.075,0 0,-0.075 0.075,0 0,-0.15 0.075,-0.075 0.075,0 0,-0.15 0.075,0 0.075,-0.075 0.075,-0.075 0.075,-0.075 0,-0.075 0.075,0 0,-0.15 0.15,0 0.075,-0.075 0,-0.075 0.075,-0.15 0.075,-0.075 0.075,0 0,-0.075 0.075,0 0,-0.075 0.075,0 0,-0.075 0.075,-0.075 0.075,-0.075 0,-0.075 0.075,0 0,-0.075 0.075,0 0,-0.075 0.15,0 0,-0.075 0.075,0 0,-0.075 0.075,0 0,-0.15 0.075,-0.075 0,-0.075 0.075,0 0,-0.075 0.075,0 0,-0.075 0.15,0 0,-0.075 0.075,0 0,-0.075 0.075,0 0,-0.075 0.075,-0.075 0.075,0 0,-0.075 0.15,0 0,-0.075 0.075,0 0,-0.075 0.075,0 0,-0.15 0.075,0 0,-0.075 0.15,0 0,-0.15 0.075,0 0,-0.075 0.075,0 0,-0.15 0.15,0 0,-0.15 0.075,0 0,-0.15 0.15,0 0,-0.075 0.075,-0.15 0.075,0 0,-0.075 0.075,0 0,-0.15 0.075,0 0,-0.15 -0.075,0 0,-0.075 -0.075,-0.075 -0.15,0 0,-0.075 -0.3,0 0,-0.075 -0.225,0 0,0.075 -0.225,0 0,-0.075 -0.15,0 0,-0.075 -0.3,0 0,-0.15 -0.15,0 0,-0.075 -0.15,0 -0.075,-0.075 -0.075,0 c -0.2,0 -0.4,0 -0.6,0 l 0,-0.075 -0.075,0 0,-0.075 -0.075,0 0,-0.075 -0.075,0 -0.075,-0.075 -0.075,0 0,-0.075 -0.075,0 0,-0.075 -0.225,0 0,-0.075 -0.075,0 0,-0.075 -0.075,0 0,-0.075 -0.075,0 0,-0.6 0.075,0 0,-0.3 0.075,0 0,-0.225 0.075,-0.075 0,-0.15 0.15,0 0,-0.15 0.075,0 0,-0.075 0.225,0 0,-0.075 0.075,0 0,-0.075 0.075,0 0.075,-0.075 0.075,-0.075 0,-0.075 0.075,0 0,-0.15 0.075,0 0,-0.15 0.15,0 0,-0.075 0.075,0 0.075,-0.075 0.075,0 0,-0.075 0.075,-0.075 0.075,-0.075 0.075,0 0,-0.075 0.075,-0.075 0.075,-0.075 0.075,0 0,-0.225 0.075,-0.075 0.075,0 0,-0.075 0.15,-0.075 0.3,-0.3 0.075,-0.075 0.075,0 0,-0.15 0.075,0 0,-0.15 0.075,0 0.075,-0.075 0,-0.075 0.075,0 0,-0.075 0.15,0 0,-0.075 0.075,-0.075 0.075,-0.075 0.075,-0.075 0,-0.075 0.075,0 0.15,-0.15 0,-0.075 0.075,0 0,-0.15 0.075,0 0,-0.075 0.075,0 0,-0.075 0.075,0 0,-0.15 0.075,0 0,-0.075 0.15,0 0,-0.075 0.075,-0.075 0.075,0 0,-0.075 0.075,0 0,-0.075 0.075,0 0,-0.15 0.075,0 0,-0.15 0.075,0 0,-0.075 0.075,0 0,-0.075 0.075,-0.075 0,-0.075 0.075,0 0.075,-0.075 0,-0.075 0.075,0 0,-0.075 0.15,0 0,-0.15 0.075,0 0,-0.075 0.075,0 0,-0.225 0.075,0 0,-0.15 0.075,0 0,-0.075 0.075,0 0,-0.15 0.075,0 0,-0.075 0.075,0 0,-0.075 0.075,0 0,-0.075 0.075,-0.075 0.075,0 0,-0.075 0.15,0 0,-0.075 0.075,-0.15 0,-0.075 0.075,0 0,-0.075 0.075,0 0,-0.15 0.075,-0.075 0,-0.15 0.15,0 0,-0.075 0.075,0 0,-0.075 0.075,0 0,-0.15 0.075,0 0,-0.15 0.075,0 0,-0.15 0.075,0 0,-0.15 0.15,0 0,-0.075 0.075,-0.075 0.075,-0.075 0.075,-0.075 0.075,-0.075 0,-0.075 0.075,0 0,-0.15 0.075,0 0,-0.15 0.075,0 0,-0.075 0.075,0 0,-0.075 0.075,0 0,-0.15 0.075,0 0,-0.225 0.15,0 0.15,-0.15 0.075,-0.15 0.075,0 0,-0.075 0.225,0 0,-0.075 0.15,0 0,-0.075 0.375,0"
       style="fill:#1f1a17;fill-opacity:1;fill-rule:evenodd;stroke:none"
       id="path3184" />
    <path
       inkscape:connector-curvature="0"
       d="m 476.92907,312.44627 c -1.10625,-0.685 -2.38875,-2.2975 -3.225,-3.3 1.38125,-0.1075 2.59375,-0.3175 3.9,-0.45 l 0,-0.6 -1.125,-0.6 -0.075,0.075 -0.225,0.075 -0.075,0.075 -0.075,0.15 -0.15,0 -0.075,0.075 -0.825,0 -0.3,0.075 -0.6,0 -0.15,0.075 c -0.0275,-0.89375 0.0188,-1.46875 0.075,-2.325 l 0.525,0 0.375,-0.075 0.525,-0.075 0.375,-0.075 0.675,0 0.075,-0.075 0,-0.6 -1.125,-0.6 -0.15,0.075 -0.15,0.15 -0.15,0.075 -0.075,0 0,0.075 c -0.64,-0.0312 -0.0812,0.1175 -0.9,0.075 l 0,-0.15 0.075,-0.15 0,-0.825 0.075,-0.075 0,-0.075 0.075,-0.075 0.075,-0.075 0.15,-0.15 -1.35,-1.8 -0.525,0.3 c 0.39625,1.01375 0.285,2.12875 0.3,3.225 l -0.675,0 -0.225,0.15 -0.6,0 -0.225,0.075 -0.15,0 c 0,-0.55 0,-1.1 0,-1.65 l 0,-0.075 0.075,-0.075 0,-0.15 0.075,-0.075 0,-0.15 0.075,-0.15 -1.425,-1.425 -0.225,0.15 -0.15,0.15 0,0.15 0.075,0.225 c -0.07,0.5075 0.23125,0.54 0.15,1.2 l 0.15,0.15 0,0.525 c 0,0.425 0,0.85 0,1.275 -0.775,0.11375 -1.99125,0.2175 -2.775,0.225 l 1.2,1.125 0.075,0 0.15,-0.075 0.375,0 0.15,-0.075 0.075,0 c 0.76375,0.0387 0.25625,-0.11375 0.825,-0.075 0,0.725 0,1.45 0,2.175 -0.91,-0.045 -2.0025,0.245 -2.85,0.225 0.0513,-0.33875 0.185,-1.045 0.3,-1.35 l -0.75,-0.3 c -0.88,2.65875 -1.7675,5.3 -2.7,7.95 -0.285,-0.51375 -0.56125,-0.63125 -0.975,-0.975 l -0.375,0.75 1.575,2.475 0.6,0 0,-0.075 0.075,-0.15 0.075,-0.225 0.075,-0.375 0.15,-0.3 0.075,-0.225 0,-0.225 0.075,-0.075 c 1.395,-1.15 2.85625,-2.28 3.9,-3.75 l 0.075,0.075 0,5.4 0.075,0.075 0,0.225 0.075,0.15 0.15,0.15 0.075,0.15 0.075,0.075 0.225,0.075 0.15,0.075 0.15,0.15 0.225,0.075 0.15,0.075 3.15,0 0.3,-0.075 0.45,0 0.375,-0.075 0.45,-0.15 0.525,0 0.15,-0.075 -0.3,-3.45 -0.75,0 c -0.0512,0.82125 -0.1175,1.6475 -0.15,2.475 -0.5475,0.0987 -1.385,0.1725 -1.95,0.15 l -1.95,0 -0.075,-0.075 -0.075,0 -0.15,-0.075 -0.075,0 c -0.17875,-0.4 -0.0213,-1.8825 -0.075,-2.4 l 0.75,0 0.675,-0.075 0.75,-0.075 0.6,0 0.675,-0.075 0.375,-0.15 0.225,0 -0.15,0 0,-0.15 -0.075,-0.075 -0.075,-0.15 -0.15,-0.15 -0.075,-0.225 -0.075,-0.075 0,-0.375 c 0.085,-0.6075 0.0812,-0.76375 0.075,-1.35 l 0.075,0 0,-0.075 0.075,0 0,-0.075 0.075,-0.15 0.075,0 0.525,0.525 0.15,0.3 0.225,0.375 0.3,0.3 0.225,0.3 0.225,0.375 0.3,0.375 0.075,0.15 3.075,-0.3 0,-0.75 c -1.10375,-0.16 -1.52875,-0.1 -2.4,-0.825 z m -6.525,1.425 c 0,-0.475 0,-0.95 0,-1.425 0.77375,-0.0813 1.55,-0.23125 2.325,-0.3 0,0.5 0,1 0,1.5 -0.77625,0.02 -1.55,0.18875 -2.325,0.225 z m 2.4,-7.875 c 0,0.725 0,1.45 0,2.175 -0.57375,0.0525 -1.22875,0.1775 -1.8,0.15 0,-0.7 0,-1.4 0,-2.1 0.25625,-0.0975 1.48,-0.21625 1.8,-0.225 z m -5.1,3.825 0.15,0 0.075,-0.15 c 0.87625,0.0475 0.32375,-0.12125 1.125,-0.075 -1.0775,1.925 -1.86875,2.9275 -3.525,4.5 0.4325,-1.39875 0.81875,-2.82625 1.125,-4.275 l 0.075,0.075 0.075,0.075 0.15,0 0.075,0.075 c 0.15875,-0.20625 0.42375,-0.245 0.675,-0.225 z m 5.85,0.75 -0.15,0.075 -0.075,0.225 -0.075,0 -0.075,0.075 -0.075,0.075 -0.15,0 -0.075,0.075 -0.45,0 -0.375,0.075 -0.525,0.075 c -0.445,0.0863 -0.9,0.11 -1.35,0.15 l -0.075,-0.075 0,-0.075 -0.075,-0.075 -0.075,-0.075 -0.075,-0.075 0,-0.075 -0.075,0 c 0.045,-0.48 0.5475,-0.82375 0.75,-1.5 l 0.225,0 0.15,-0.075 0.525,0 0.375,-0.075 0.45,0 0.15,-0.075 c 0.76375,0.6275 0.3575,0.76 0.75,0.9 l 0,0.075 0.375,0.375"
       style="fill:#1f1a17;fill-opacity:1;fill-rule:evenodd;stroke:none"
       id="path3190" />
    <path
       inkscape:connector-curvature="0"
       d="m 465.97907,305.39627 0.075,0.075 0.525,0 c 0.0238,-0.385 0.18125,-0.9725 0.15,-1.35 l 0,-0.225 -0.075,-0.075 -0.15,-0.15 c -0.61125,-0.1825 -1.75875,-0.7125 -2.325,-0.975 l -0.3,0.6 c 0.74,0.57 1.555,1.34625 2.1,2.1"
       style="fill:#1f1a17;fill-opacity:1;fill-rule:evenodd;stroke:none"
       id="path3192" />
    <path
       inkscape:connector-curvature="0"
       d="m 464.62907,309.59627 0.075,0.075 0.675,0 c 0.0888,-0.61 0.18,-0.85625 0.15,-1.5 l -0.075,0 0,-0.075 -0.075,0 -0.075,-0.075 -0.15,0 -0.075,-0.075 -0.3,-0.075 -0.15,-0.15 -0.15,-0.075 -0.15,-0.075 -0.15,0 -0.3,-0.075 -0.225,-0.075 -0.225,-0.075 -0.225,-0.075 -0.225,-0.075 -0.075,0.15 -0.225,0.375 0.15,0.15 0.375,0.225 0.225,0.225 0.3,0.225 0.225,0.3 0.225,0.225 0.225,0.15 0.15,0.225 0.075,0.15"
       style="fill:#1f1a17;fill-opacity:1;fill-rule:evenodd;stroke:none"
       id="path3194" />
    <path
       inkscape:connector-curvature="0"
       d="m 439.65407,300.97127 0.9,0 c -3.77125,5.47125 -4.1475,12.91 0.075,18.225 l -0.975,0 -0.45,-0.45 -0.3,-0.6 -0.45,-0.525 -0.3,-0.6 -0.225,-0.6 -0.375,-0.525 -0.225,-0.6 c -0.56625,-1.73875 -0.97,-2.57125 -0.975,-4.5 -0.295,-3.595 1.25,-6.97625 3.3,-9.825"
       style="fill:#1f1a17;fill-opacity:1;fill-rule:evenodd;stroke:none"
       id="path3204" />
    <path
       inkscape:connector-curvature="0"
       d="m 482.17907,319.19627 -0.9,0 c 3.8775,-6.105 3.9875,-12.13 0,-18.225 l 0.9,0 c 4.32375,5.6925 4.36375,12.53125 0,18.225"
       style="fill:#1f1a17;fill-opacity:1;fill-rule:evenodd;stroke:none"
       id="path3206" />
    <path
       inkscape:connector-curvature="0"
       d="m 458.85407,310.42127 c -3.40875,-0.22625 -3.95625,-1.92625 -6.525,-3.975 1.81,-0.1525 3.6625,-0.26375 5.475,-0.375 l -0.15,-0.675 -1.05,-0.675 -0.15,0.075 -0.15,0 -0.15,0.075 -0.15,0.15 -0.15,0 -0.075,0.075 -0.15,0 -0.15,0.075 c -1.425,0.0437 -2.85,0.16125 -4.275,0.225 0,-0.425 0,-0.85 0,-1.275 l 0,-0.375 0.075,-0.075 0.3,0 0.15,-0.075 c 0.3375,0.0575 0.3425,-0.245 1.05,-0.3 0.62625,-0.0738 0.68875,-0.19625 1.425,-0.15 l -0.45,-1.575 -0.45,-0.225 c -0.73625,0.4375 -1.50125,0.90125 -2.325,1.2 l -0.525,0.15 -0.45,0.075 -0.525,0.15 -0.6,0.225 -0.525,0.15 -1.2,0.3 -1.5,0.225 -0.15,0.075 0.075,0.825 c 1.47625,-0.2425 3.01125,-0.28625 4.425,-0.675 0,0.475 0,0.95 0,1.425 -2.34625,0.16375 -4.725,0.2 -7.05,0.525 l 1.425,1.2 c 0.5475,-0.19375 0.45375,-0.25 1.05,-0.225 l 0.075,-0.15 c 1.37875,0.0825 2.17875,-0.22375 3.525,-0.15 -0.965,0.8775 -1.69,1.725 -2.775,2.55 l -0.45,0.225 -0.375,0.375 -0.45,0.225 -0.45,0.3 c -0.6025,0.45125 -1.93125,1.08 -2.325,1.425 l 0.45,0.675 0.15,-0.15 0.6,-0.225 0.45,-0.3 0.525,-0.3 0.375,-0.225 0.525,-0.225 0.3,-0.15 0.375,-0.3 0.375,-0.15 0.075,-0.075 0.075,0 0,-0.075 0.15,0 0.15,-0.15 0.225,-0.15 c 0.705,-0.185 0.295,-0.35 0.75,-0.525 l 0.075,-0.075 0.3,-0.15 0.225,-0.15 0.225,-0.225 c 0.28375,-0.3325 1.09625,-1.1475 1.425,-1.425 0,0.475 0,0.95 0,1.425 l -0.15,0.075 0,0.15 -0.075,0.075 -0.075,0.225 -0.075,0.15 0,0.15 0.075,0.15 0,0.15 0.15,0.225 0.15,0.15 0.15,0.45 0,0.15 c -0.68875,0.0612 -1.57,0.1625 -2.25,0.15 l -0.075,0 -0.075,-0.075 -0.075,-0.15 -0.15,-0.225 -0.3,-0.3 0,-0.075 -0.675,0.375 0.075,0.375 0.075,0.225 0.075,0.225 0,0.3 0.075,0.15 c -10e-4,0.80625 0.13625,1.5 0.075,2.4 0,0.625 0,1.25 0,1.875 l 0,0.075 -0.15,0.3 0,0.15 -0.075,0.225 -0.075,0.075 0.825,1.8 0.6,0 0,-0.3 0.075,-0.075 0,-0.225 c 0,-0.225 0,-0.45 0,-0.675 0.68,-0.285 3.67,-0.1875 4.65,-0.3 l 0.225,0 0.075,0.075 0.075,0.225 0.075,0.225 0.075,0.15 0.075,0.225 0.075,0.15 0,0.225 0.675,0 c 0.18125,-1.97125 0.5775,-3.94125 0.525,-5.925 l 0,-0.75 0.075,-0.075 0,-0.225 0.075,-0.075 0.075,-0.075 0.075,-0.15 0.075,-0.075 -1.125,-1.125 -0.075,0.15 -0.225,0.15 -0.075,0.075 0,0.075 -0.075,0.075 -0.15,0 0,0.075 c -0.7825,-0.0913 -1.4775,0.2325 -2.25,0.225 l 0.075,-0.225 0,-1.125 0.075,-0.225 0,-0.225 c 0,-0.8 0,-1.6 0,-2.4 l 0.3,0.375 0.6,0.525 1.65,1.65 0.75,0.825 0.75,0.75 0.525,0.45 0.15,0.225 3.15,-0.3 0,-0.75 -0.225,0 z m -5.475,1.35 c 0.055,1.0625 -0.09,1.85125 -0.075,2.85 l 0,0.975 -0.075,0.15 c 0,0.125 0,0.25 0,0.375 l -0.075,0 0,0.075 -0.075,-0.075 -0.15,0 -0.075,-0.075 -0.225,-0.075 -0.075,-0.075 -0.15,-0.075 -0.15,0 -0.15,0.15 -0.15,0.075 -0.075,0.075 c -0.91875,0.2475 -2.6725,0.14125 -3.75,0.225 0,-0.525 0,-1.05 0,-1.575 l 0.3,-0.075 0.6,0 0.75,-0.075 0.825,-0.15 0.9,-0.075 0.675,-0.075 0.75,0 -0.3,-0.6 -1.2,-0.675 c -0.195,0.145 -0.57375,0.40125 -0.825,0.375 l -0.075,0.075 -0.975,0 -0.375,0.15 -0.75,0 -0.3,0.075 c 0.045,-0.77 -0.13375,-0.7175 -0.075,-1.575 1.81,-0.0688 3.53,-0.23625 5.325,-0.375"
       style="fill:#1f1a17;fill-opacity:1;fill-rule:evenodd;stroke:none"
       id="path3208" />
    <path
       inkscape:connector-curvature="0"
       d="m 337.27907,328.64627 0,-0.375 0.075,-0.15 0,-0.225 0.075,-0.075 0,-0.075 0.075,0 0.075,-0.075 0.3,0 0.075,-0.075 0.075,0 0.225,0.075 0.3,0 0.225,0.075 0.15,0.075 0.15,0.075 0.15,0.075 0.075,0.15 0.15,0.15 0.075,0.075 0.15,0.15 0.15,0.3 0,0.225 0.075,0.15 0,0.15 c 0.0512,0.3225 -0.0863,0.42625 -0.15,0.75 0.005,0.22625 -0.34,0.23625 -0.45,0.375 l -0.075,0.075 -0.225,0 -0.15,0.075 -0.825,0 -0.15,-0.075 -0.375,0 -0.075,-0.075 -0.075,0 0,-0.075 -0.075,0 0,-1.725 z m -1.35,4.95 0,0.45 -0.075,0.075 -0.15,0.075 -0.075,0.075 0,0.075 -0.15,0.15 -0.225,0 -0.15,0.075 -0.075,0.075 0,0.3 c 0.425,0 0.85,0 1.275,0 0.675,0 1.35,0 2.025,0 1.385,-0.0163 1.0225,0.1175 2.25,-0.375 0.89125,-0.55875 1.27125,-1.5175 1.125,-2.55 l -0.075,-0.075 -0.075,-0.225 0,-0.15 -0.15,-0.15 -0.15,-0.075 -0.075,-0.075 -0.075,-0.15 -0.3,-0.15 -0.225,-0.15 -0.675,-0.225 c 0.8925,-0.4 0.78375,-0.2425 1.2,-1.2 0.0825,-0.735 -0.17625,-1.56375 -0.9,-1.875 l -0.075,0 -0.45,-0.225 -0.225,0 -0.15,-0.075 c -0.65,0 -1.3,0 -1.95,0 -0.875,0 -1.75,0 -2.625,0 l 0,0.3 0.075,0 0.15,0.075 0.15,0 0.225,0.075 0.15,0.075 0.075,0 0.075,0.075 0.075,0.15 0.15,0.15 0.075,0.225 0,5.25 z m 1.35,-1.65 0,-0.525 0.075,-0.15 0.075,0 0,-0.075 0.15,0 0.075,-0.075 1.05,0 0.675,0.225 0.15,0.075 0.225,0.15 0.15,0.075 0.075,0.075 0.075,0.225 0.075,0.15 c 0.20125,0.28375 0.1425,0.6975 0.15,1.05 l -0.075,0.15 0,0.15 -0.15,0.3 -0.075,0.15 -0.075,0.15 -0.15,0.075 -0.075,0.15 c -0.61375,-0.0437 -0.1125,0.30375 -1.275,0.225 l -0.3,0 -0.15,-0.075 -0.075,0 -0.225,-0.075 -0.075,-0.075 -0.075,0 0,-0.075 -0.075,-0.15 -0.075,-0.075 0,-0.225 -0.075,-0.075 0,-1.725"
       style="fill:#1f1a17;fill-opacity:1;fill-rule:evenodd;stroke:none"
       id="path3216" />
    <path
       inkscape:connector-curvature="0"
       d="m 345.15407,331.64627 -0.225,0 -0.075,-0.075 0,-0.225 0.075,0 0,-0.15 0.9,-1.95 0,-0.075 0.075,-0.075 0.075,0 0,0.075 0.075,0 0.825,2.025 0.075,0 0,0.15 0.075,0 0,0.225 -0.075,0.075 -1.8,0 z m 1.875,0.6 0.15,0 0.075,0.075 0.075,0 0.075,0.075 0.15,0.3 0.075,0.3 0.15,0.225 0,0.225 0.075,0.075 0,0.15 0.075,0.075 0,0.375 -0.075,0.075 0,0.075 -0.075,0.075 0,0.075 -0.075,0 -0.075,0.075 -0.075,0 -0.15,0.075 -0.075,0.075 -0.075,0 0,0.15 -0.075,0.075 0.075,0.075 0.075,0 0,0.075 0.3,0 0.15,-0.075 0.075,0 c 0.4,0 0.8,0 1.2,0 l 0.825,0 0.15,0.075 0.375,0 0.075,-0.075 0.075,0 0,-0.3 -0.075,0 -0.15,-0.075 -0.225,0 -0.075,-0.075 -0.15,0 -0.15,-0.15 -0.075,-0.15 -0.075,-0.075 -2.925,-6.75 -0.075,-0.15 0,-0.075 -0.075,0 0,-0.15 -0.075,0 0,-0.075 -0.075,0 0,0.075 -0.075,0 -0.15,0.15 0,0.075 -0.075,0.075 0,0.075 -3,6.675 -0.075,0.075 c 0.0337,0.36625 -0.42875,0.43375 -0.675,0.525 l 0,0.15 -0.075,0 0,0.15 0.075,0 0.15,0.075 0.3,0 0.075,-0.075 c 0.3,0 0.6,0 0.9,0 0.55375,-0.0188 0.4,0.007 0.9,0.075 l 0.375,0 0.075,-0.075 0.075,0 0,-0.15 -0.075,0 -0.075,-0.15 -0.075,0 -0.15,-0.075 -0.225,-0.075 -0.075,0 -0.075,-0.075 -0.225,0 -0.15,-0.15 0,-0.15 -0.075,-0.075 0,-0.375 0.075,-0.15 0,-0.075 0.075,-0.075 0,-0.15 0.075,-0.075 0,-0.075 0.075,-0.3 0.15,-0.15 0.075,-0.15 0.075,-0.075 0.075,-0.075 0.075,-0.075 2.325,0"
       style="fill:#1f1a17;fill-opacity:1;fill-rule:evenodd;stroke:none"
       id="path3218" />
    <path
       inkscape:connector-curvature="0"
       d="m 352.05407,329.32127 -0.075,-0.45 0,-0.3 -0.075,-0.225 -0.15,-0.15 -0.075,-0.225 -0.075,-0.15 -0.15,-0.075 -0.075,-0.075 -0.225,-0.075 -0.15,0 -0.15,-0.075 -0.075,0 -0.075,-0.075 0,-0.15 0.075,0 0,-0.075 c 0.75,0 1.5,0 2.25,0 l 0,0.075 0.075,0 0,0.075 0.075,0.075 4.425,4.875 0.075,0.075 0.075,0 0,0.075 0.075,0 0,0.075 0.15,0 0,-4.35 -0.075,-0.075 -0.15,-0.3 -0.15,-0.075 -0.15,0 -0.15,-0.075 -0.225,-0.075 -0.15,-0.075 -0.075,0 -0.075,-0.075 -0.075,0 0,-0.15 0.075,-0.075 0.15,0 c 0.225,0 0.45,0 0.675,0 0.575,0 1.15,0 1.725,0 l 0.15,0 0.075,0.075 0,0.075 -0.075,0.075 -0.15,0.075 -0.15,0 -0.15,0.075 -0.075,0.075 -0.075,0 -0.075,0.075 -0.075,0.15 -0.075,0.075 0,0.225 -0.075,0.15 0,0.15 c 0,2.175 0,4.35 0,6.525 l -0.3,0 -0.15,-0.15 -5.25,-5.7 -0.15,0 0,-0.075 -0.075,0 0,-0.075 -0.075,0 0,0.075 -0.075,0 0,3.825 0.075,0.375 0,0.375 0.075,0.225 0,0.075 0.075,0.075 0.375,0.375 0.15,0 0.225,0.075 0.3,0.075 0.075,0 0.075,0.075 0,0.15 0.075,0 0,0.075 -0.075,0 0,0.075 c -0.975,0 -1.95,0 -2.925,0 l 0,-0.3 0.075,-0.075 0.075,0 c 0.28,-0.10875 0.4875,-0.3175 0.75,-0.45 l 0,-0.15 0.075,-0.225 0,-0.075 0.075,-0.225 0,-4.125"
       style="fill:#1f1a17;fill-opacity:1;fill-rule:evenodd;stroke:none"
       id="path3220" />
    <path
       inkscape:connector-curvature="0"
       d="m 364.95407,330.14627 -0.075,0 -0.075,0.075 -0.075,0.075 0,0.075 -0.075,0 0.075,0.075 0,0.15 0.075,0 0,0.075 0.15,0.15 2.175,2.85 0.075,0.225 0.3,0.3 0.15,0.075 0.3,0.225 0.15,0.075 0.15,0 0.075,0.075 0.075,0 0,0.3 c -0.475,0 -0.95,0 -1.425,0 -0.41125,-0.0338 -0.43,0.0962 -0.75,-0.15 l 0,-0.225 -2.25,-2.925 -0.075,-0.075 -0.075,-0.075 0,-0.075 -0.075,-0.075 -0.15,0 0,0.075 -0.075,0 -0.075,0.075 -0.075,0.075 -0.075,0.075 -0.075,0.075 -0.15,0.075 0,0.15 -0.075,0.075 0,1.95 0.075,0.15 0,0.075 0.15,0.075 0.15,0.15 0.15,0.075 0.075,0 0.15,0.075 0.15,0 0.075,0.075 0.075,0 0,0.3 c -1.075,0 -2.15,0 -3.225,0 l 0,-0.3 0.075,0 0,-0.075 c 0.3275,-0.045 0.57,-0.0538 0.675,-0.375 l 0.075,-0.075 0,-5.925 -0.075,-0.225 -0.075,-0.075 -0.075,-0.15 -0.075,-0.075 -0.15,0 -0.15,-0.075 -0.15,0 -0.15,-0.075 -0.075,0 -0.075,-0.075 -0.075,0 0,-0.15 0.075,-0.075 0.225,0 c 0.325,0 0.65,0 0.975,0 0.675,0 1.35,0 2.025,0 l 0,0.15 -0.15,0.15 -0.225,0 -0.075,0.075 -0.075,0 -0.075,0.075 0,0.075 -0.15,0.075 0,0.15 -0.075,0.225 0,2.925 0.3,0 0,-0.075 1.65,-1.65 0.225,-0.15 0.225,-0.225 0.225,-0.3 0.45,-0.45 0.075,-0.075 0,-0.225 0.075,-0.075 0,-0.225 -0.075,0 -0.225,-0.075 -0.075,0 -0.15,-0.075 -0.15,0 0,-0.3 c 0.525,0 1.05,0 1.575,0 0.225,0 0.45,0 0.675,0 l 0.45,0 0.075,0.075 0,0.15 -0.075,0 0,0.075 -0.075,0 -0.15,0.075 -0.3,0 -0.15,0.15 -0.15,0.075 -0.3,0.3 -0.3,0.15 -1.875,1.875"
       style="fill:#1f1a17;fill-opacity:1;fill-rule:evenodd;stroke:none"
       id="path3222" />
    <path
       inkscape:connector-curvature="0"
       d="m 373.87907,330.67127 c 0.0788,-0.8325 0.15125,-2.00875 0.9,-2.55 l 0.15,-0.15 0.225,-0.15 0.075,-0.075 0.225,-0.075 0.075,0 0.15,-0.075 0.3,0 0.15,-0.075 0.15,0 c 0.9675,-0.0463 1.94875,0.68 2.325,1.5 0.55875,1.2475 0.51625,2.13 0.375,3.45 -0.35,1.03875 -0.32875,1.1525 -1.2,1.8 -0.44625,0.3225 -1.0425,0.20125 -1.575,0.225 -1.66625,-0.08 -2.355,-2.4375 -2.325,-3.825 z m -1.35,0.675 c -0.0925,0.9575 0.2075,1.015 0.45,1.875 l 0.075,0.075 0.15,0.3 0.15,0.15 0.075,0.15 c 0.27625,0.22875 0.46375,0.48 0.825,0.6 0.76375,0.28875 0.18,0.16125 0.825,0.45 0.6375,-0.0363 0.385,0.125 1.125,0.075 1.43125,0.0162 1.5925,-0.17 2.775,-0.75 1.42125,-1.4025 1.6925,-2.76125 1.35,-4.725 -0.28875,-0.645 -0.16,-0.0625 -0.45,-0.825 l -0.075,-0.15 -0.075,-0.15 -0.15,-0.075 -0.075,-0.15 -0.15,-0.225 -0.075,-0.075 c -1.29375,-0.86625 -1.255,-0.52875 -2.625,-0.9 l -0.225,0.15 -0.525,0 -0.15,0.075 -0.225,0 -0.225,0.075 -0.225,0 -0.15,0.075 -0.225,0.15 -0.15,0.075 -0.225,0.075 -0.15,0.075 -0.15,0.15 -0.15,0.075 -0.075,0.225 -0.15,0.15 -0.225,0.075 -0.075,0.15 -0.075,0.15 -0.15,0.15 -0.075,0.225 -0.075,0.15 c -0.26625,0.615 -0.55375,1.44125 -0.45,2.1"
       style="fill:#1f1a17;fill-opacity:1;fill-rule:evenodd;stroke:none"
       id="path3224" />
    <path
       inkscape:connector-curvature="0"
       d="m 384.00407,329.99627 c -0.0238,0.395 -0.0187,0.575 0.45,0.525 l 0.825,0 0.15,-0.075 0.15,0 0.075,-0.075 0.075,-0.075 0.225,-0.075 0,-0.075 0.075,-0.075 0.075,-0.3 0.075,-0.075 0,-0.075 0.075,-0.075 0.225,0 0,0.15 0.075,0.075 0,1.95 0.075,0.075 0,0.3 -0.075,0.075 0,0.075 -0.075,0.075 -0.075,0 -0.075,-0.075 0,-0.075 -0.075,0 c -0.18375,-0.475 0.095,-0.5375 -0.525,-0.9 l -0.15,-0.075 -1.5,0 0,0.075 -0.075,0 0,2.475 0.075,0.225 0,0.15 0.075,0.075 0.075,0.075 0.15,0.075 0.15,0.15 0.225,0.075 0.3,0 0.075,0.075 0.075,0 0,0.3 c -1.15,0 -2.3,0 -3.45,0 -0.115,-0.78875 0.5075,0.0387 0.825,-0.9 l 0,-5.775 -0.075,-0.15 0,-0.15 c -0.24875,-0.2825 -0.595,-0.40625 -0.975,-0.375 l -0.15,-0.15 0,-0.15 0.075,-0.075 0.075,0 c 0.5,0 1,0 1.5,0 1.4,0 2.8,0 4.2,0 l 0,0.075 0.075,0.075 0,1.5 -0.075,0.15 -0.15,0 c -0.12,-0.2625 -0.22,-0.52125 -0.225,-0.825 l -0.075,-0.075 -0.225,-0.15 -0.15,-0.15 -0.15,-0.075 -0.225,0 -0.375,-0.075 -1.35,0 -0.075,0.075 -0.075,0 -0.075,0.075 0,0.075 -0.075,0.075 0,2.025"
       style="fill:#1f1a17;fill-opacity:1;fill-rule:evenodd;stroke:none"
       id="path3226" />
    <path
       inkscape:connector-curvature="0"
       d="m 399.15407,329.54627 0,0.3 -0.3,0 -0.075,-0.075 c -0.035,-0.2075 -0.215,-0.3875 -0.3,-0.6 -0.46125,-0.5575 0.055,-0.31 -0.75,-0.9 -0.33125,-0.29875 -0.53375,-0.505 -0.975,-0.6 -1.57125,-0.65625 -3.31,0.655 -3.3,2.325 l -0.075,0.225 0,0.6 0.075,0.3 0,0.3 0.075,0.3 0.15,0.375 0.075,0.3 0.15,0.225 0.15,0.375 0.15,0.225 0.3,0.225 0.075,0.15 0.15,0.075 0.15,0.075 0.075,0.15 0.15,0.075 0.225,0.075 0.15,0.075 0.15,0.075 0.3,0 0.3,0.075 0.45,0 0.225,-0.075 0.3,-0.075 0.3,-0.075 0.15,-0.075 c 0.28625,-0.31375 0.735,-0.42125 1.125,-0.9 l 0.3,-0.3 0.15,0 0,0.375 -0.15,0.3 -0.15,0.15 -0.225,0.15 -0.15,0.225 -0.15,0.225 -0.225,0.15 -0.3,0.15 -0.3,0.075 -0.3,0.225 -0.375,0.075 -0.3,0.075 -0.225,0.075 -0.15,0 c -0.7475,0.0162 -1.385,0.009 -2.1,-0.225 l -0.15,-0.15 -0.225,-0.075 -0.15,-0.15 -0.15,-0.075 c -0.755,-0.4625 -0.14625,-0.0763 -0.675,-0.675 l -0.075,-0.15 -0.45,-0.6 -0.075,-0.375 -0.075,-0.225 -0.075,-0.3 0,-0.525 -0.075,-0.15 0.075,-0.3 0,-0.45 0.075,-0.3 0.075,-0.45 0.15,-0.3 0.225,-0.375 0.075,-0.15 0.075,-0.225 0.075,-0.15 0.15,-0.15 0.075,-0.15 0.15,-0.15 c 0.5525,-0.09 -0.0937,-0.245 0.75,-0.6 l 0.225,-0.075 0.225,-0.15 0.225,-0.075 0.15,-0.075 0.225,0 0.15,-0.075 0.6,0 0.225,-0.15 0.3,0.15 0.375,0 0.225,0.075 0.375,0.075 c 0.3925,0.22125 0.9175,0.2475 1.275,0.45 l 0.075,-0.075 0.075,-0.075 0,-0.075 0.075,0 0,-0.15 0.225,0 0,0.075 0.225,2.1"
       style="fill:#1f1a17;fill-opacity:1;fill-rule:evenodd;stroke:none"
       id="path3228" />
    <path
       inkscape:connector-curvature="0"
       d="m 408.22907,333.37127 c 0.0225,0.57 0.0362,0.7875 0.525,1.05 l 0.075,0.075 0.15,0 0.225,0.075 0.225,0.225 0,0.15 c -1.125,0 -2.25,0 -3.375,0 l 0,-0.15 0.075,-0.15 0.075,-0.075 0.15,0 0.075,-0.075 0.15,-0.075 0.075,0 0.15,-0.15 0,-0.075 0.075,-0.15 c 0,-0.875 0,-1.75 0,-2.625 l 0,-0.15 -0.075,-0.075 -0.075,0 -0.075,-0.075 -3.375,0 -0.075,0.075 -0.075,0 -0.15,0.15 0,0.075 c 0.0225,0.7025 -0.12875,1.8875 0.075,2.475 l 0,0.15 0.075,0.15 0.15,0.075 0.075,0.075 0.15,0.075 0.075,0.075 0.3,0 0.225,0.075 0.075,0 0.075,0.075 0.075,0.15 0,0.075 -0.075,0.075 -0.375,0 c -1.075,0 -2.15,0 -3.225,0 l 0,-0.3 0.075,-0.075 c 0.5525,-0.14625 0.325,-0.23125 0.675,-0.375 l 0,-0.075 0.075,-0.15 0.075,-0.225 0,-5.625 -0.075,-0.225 -0.075,-0.075 -0.15,-0.075 -0.075,-0.075 -0.075,0 -0.075,-0.075 -0.3,0 -0.225,-0.075 -0.075,0 0,-0.075 -0.075,0 0,-0.15 0.075,0 0,-0.075 c 1.125,0 2.25,0 3.375,0 l 0,0.225 -0.15,0 0,0.075 -0.15,0 -0.15,0.075 -0.075,0 -0.075,0.075 -0.075,0.075 -0.075,0 0,0.15 -0.075,0.075 0,2.4 0.075,0 0,0.075 0.075,0 0,0.075 3.525,0 0.075,-0.075 0.075,0 0,-0.075 0.075,-0.075 0,-2.175 -0.075,-0.225 -0.075,-0.075 -0.075,-0.075 -0.225,-0.075 -0.075,-0.075 -0.075,0 -0.225,-0.075 -0.15,0 -0.075,-0.075 -0.075,0 -0.075,-0.075 0,-0.15 c 0.475,0 0.95,0 1.425,0 0.4,0 0.8,0 1.2,0 l 0.675,0 0.075,0.075 -0.075,0.075 0,0.075 -0.075,0.075 -0.075,0 -0.15,0.075 -0.15,0 -0.075,0.075 0,0.075 -0.15,0.075 -0.075,0.15 0,5.4"
       style="fill:#1f1a17;fill-opacity:1;fill-rule:evenodd;stroke:none"
       id="path3230" />
    <path
       inkscape:connector-curvature="0"
       d="m 412.95407,333.59627 0,0.45 0.075,0.15 0.15,0.075 0.075,0.15 0.075,0 0.15,0.075 0.075,0.075 0.45,0 0.15,0.075 0.075,0.15 0,0.075 -0.075,0.075 -0.75,0 c -0.875,0 -1.75,0 -2.625,0 l 0,-0.15 0.075,-0.15 0.075,-0.075 0.075,0 0.3,-0.15 0.075,0 0.075,-0.075 0,-0.075 0.075,-0.15 0.075,-0.075 0,-5.625 c -0.0125,-0.28375 -0.17125,-0.74875 -0.525,-0.75 l -0.15,-0.075 -0.15,0 -0.225,-0.075 -0.075,0 -0.075,-0.075 0,-0.225 c 1.125,0 2.25,0 3.375,0 l 0,0.15 -0.075,0.075 -0.075,0.075 -0.075,0 c -0.1925,0.0825 -0.3325,0.14125 -0.525,0.225 l 0,0.15 -0.075,0.075 0,5.625"
       style="fill:#1f1a17;fill-opacity:1;fill-rule:evenodd;stroke:none"
       id="path3232" />
    <path
       inkscape:connector-curvature="0"
       d="m 416.25407,329.32127 c 0.0525,-0.7025 -0.0337,-1.525 -0.825,-1.725 l -0.15,0 -0.15,-0.075 -0.075,-0.075 0,-0.15 0.075,-0.075 0.3,0 c 0.35,0 0.7,0 1.05,0 0.25,0 0.5,0 0.75,0 l 0.15,0.15 0,0.075 4.5,4.875 0,0.075 0.075,0 0.075,0.075 0.075,0.075 0.15,0 c 0,-1.35 0,-2.7 0,-4.05 l 0,-0.15 -0.075,-0.15 -0.075,-0.075 -0.075,-0.15 -0.075,-0.15 -0.075,-0.075 -0.15,0 -0.075,-0.075 -0.3,-0.075 -0.225,-0.075 -0.075,0 -0.075,-0.075 0,-0.225 c 0.925,0 1.85,0 2.775,0 l 0,0.225 -0.075,0 -0.075,0.075 -0.15,0 -0.3,0.15 -0.075,0 -0.075,0.075 -0.075,0.15 0,0.075 -0.075,0.225 0,6.75 -0.075,0 0,0.075 -0.3,0 0,-0.075 -0.075,0 -0.075,-0.075 -5.25,-5.7 0,-0.075 -0.075,0 0,-0.075 -0.225,0 c 0.0525,0.58 -0.355,4.37 0.3,5.025 l 0.075,0.15 0.075,0.15 0.15,0.075 0.15,0 0.45,0.15 0.15,0 0.075,0.075 0,0.3 c -1,0 -2,0 -3,0 l 0,-0.15 0.075,-0.15 0,-0.075 0.075,0 0.15,-0.075 0.225,-0.075 0.15,-0.15 0.15,-0.075 0.075,-0.075 0.075,-0.15 0.075,-0.225 0,-4.425"
       style="fill:#1f1a17;fill-opacity:1;fill-rule:evenodd;stroke:none"
       id="path3234" />
    <path
       inkscape:connector-curvature="0"
       d="m 426.90407,331.64627 -0.3,0 0,-0.3 0.075,-0.075 0,-0.075 0.9,-1.95 0,-0.075 0.075,-0.075 0.075,0 0,0.075 0.9,2.025 0.075,0 0,0.225 0.075,0 0,0.15 -0.075,0 0,0.075 c -0.6,0 -1.2,0 -1.8,0 z m 1.875,0.6 0.075,0 0.075,0.075 0.075,0 0.075,0.075 0,0.15 0.15,0.15 0.15,0.3 0.075,0.225 0.075,0.15 0,0.075 0.075,0.075 0,0.225 0.075,0.15 0,0.225 -0.075,0.075 0,0.075 -0.075,0.075 0,0.075 -0.075,0 -0.075,0.075 -0.075,0 -0.225,0.075 -0.075,0.075 -0.075,0 0,0.15 -0.075,0 0,0.15 0.075,0 0.075,0.075 0.375,0 0.15,-0.075 0.75,0 c 0.4,0 0.8,0 1.2,0 l 0.075,0 0.15,0.075 0.45,0 0,-0.075 0.075,0 0,-0.3 -0.075,0 -0.075,-0.075 -0.375,0 -0.225,-0.225 -0.075,-0.15 -0.075,-0.075 -3,-6.75 0,-0.15 -0.075,-0.075 0,-0.15 -0.15,0 0,-0.075 -0.075,0 -0.075,0.075 -0.075,0 0,0.225 -0.075,0 0,0.15 -3,6.675 -0.075,0.075 0,0.15 -0.15,0.15 -0.225,0.075 -0.075,0.075 -0.15,0 -0.075,0.075 -0.075,0.15 0,0.15 0.075,0 0,0.075 c 0.5475,-0.0575 1.0875,-0.105 1.65,-0.075 0.63125,-0.0325 0.0787,0.11 0.825,0.075 0.34125,0.0412 0.37375,-0.0937 0.225,-0.375 l -0.075,0 -0.15,-0.075 -0.3,-0.075 -0.075,0 -0.15,-0.075 -0.075,0 -0.075,-0.075 c -0.2575,-0.195 -0.11375,-0.5525 -0.15,-0.825 l 0.075,-0.075 0,-0.075 0.075,-0.15 0,-0.075 0.075,-0.075 0.075,-0.3 0.15,-0.3 0.075,-0.075 0.15,-0.075 0.075,-0.075 2.325,0"
       style="fill:#1f1a17;fill-opacity:1;fill-rule:evenodd;stroke:none"
       id="path3236" />
    <path
       inkscape:connector-curvature="0"
       d="m 295.87907,319.42127 -0.15,0 -0.075,-0.15 -0.075,-0.075 -0.075,-0.075 0,-0.075 -0.075,-0.075 0,-7.575 0.075,-0.075 0,-0.075 0.075,-0.075 0.075,-0.075 0.075,-0.075 10.8,0 0.15,0.075 0.075,0.075 0.075,0.075 0,0.075 0.075,0.075 0,7.575 -0.075,0.075 0,0.075 -0.075,0.075 -0.075,0.075 -0.15,0.15 -10.65,0 z m 2.775,12.675 c -19.4875,-3.4525 -19.53375,-30.31125 0,-33.825 l 0,8.025 c -1.38125,0.0387 -3.1775,-0.1675 -4.575,0.3 -0.65,0.31375 -1.13875,0.675 -1.725,1.05 -0.485,0.6375 -0.725,0.77 -1.125,1.575 -0.47375,0.66 -0.36,1.50875 -0.525,2.25 l 0,7.425 0.075,0.225 0,0.6 0.075,0.225 0,0.225 0.075,0.3 0.075,0.225 c 0.25875,0.72 0.715,1.285 1.2,1.875 l 0.15,0.15 0.3,0.15 0.15,0.15 0.225,0.15 0.15,0.225 0.3,0.075 0.225,0.075 0.15,0.15 c 1.5375,0.5675 3.17375,0.325 4.8,0.375 l 0,8.025 z m 5.025,-8.025 c 2.09125,0.0475 4.61625,0.2875 6.225,-1.35 1.0875,-0.975 1.6925,-2.38125 1.725,-3.825 l 0,-7.65 -0.075,-0.225 0,-0.375 -0.075,-0.225 0,-0.225 -0.075,-0.225 -0.15,-0.3 -0.075,-0.225 -0.075,-0.225 -0.15,-0.15 -0.15,-0.225 -0.075,-0.3 -0.15,-0.15 -0.15,-0.225 -0.225,-0.15 -0.15,-0.15 c -1.50625,-1.85375 -4.23625,-1.66 -6.375,-1.575 l 0,-8.025 c 19.47,3.50875 19.47125,30.35 0,33.825 l 0,-8.025 z m -24.375,-8.925 c -0.2625,-11.83375 10.1125,-22.00125 21.9,-21.675 11.78125,-0.3025 22.02375,9.90125 21.825,21.675 0.18625,11.91875 -9.8975,21.93375 -21.825,21.825 -11.8025,0.2275 -22.24125,-9.94875 -21.9,-21.825"
       style="fill:#b22a3e;fill-opacity:1;fill-rule:evenodd;stroke:none"
       id="path3238" />
  </g>
</svg>
