<svg width="140" height="140" viewBox="0 0 140 140" fill="none" xmlns="http://www.w3.org/2000/svg">
<path d="M105.553 130.309C95.1318 136.457 82.9874 139.995 70.0116 139.995C31.3472 139.995 0 108.648 0 69.9838C0 32.6222 29.2639 2.10182 66.122 0.0831488V31.2825C46.4665 33.2319 31.1162 49.8156 31.1162 69.9838C31.1162 91.464 48.5314 108.879 70.0116 108.879C76.5988 108.879 82.8073 107.239 88.2443 104.348L105.553 130.313V130.309ZM130.041 52.5641H133.953L134.189 53.4556H127.962L130.041 52.5641ZM133.889 52.3331H130.581L132.66 51.4416H133.635L133.889 52.3331ZM133.57 51.2106H133.205L133.528 51.072L133.57 51.2106ZM127.417 53.6912H134.249L134.466 54.5828H125.338L127.417 53.6912ZM124.793 54.8138H134.521L134.725 55.7053H122.719L124.798 54.8138H124.793ZM122.169 55.9363H134.771L134.956 56.8278H120.09L122.169 55.9363ZM119.545 57.0588H135.002L135.173 57.9503H117.467L119.545 57.0588ZM116.926 58.1813H135.214L135.367 59.0728H114.843L116.922 58.1813H116.926ZM114.302 59.3038H135.408L135.547 60.1953H112.224L114.302 59.3038ZM111.679 60.4263H135.579L135.699 61.3179H111.78L111.595 60.4633L111.683 60.4263H111.679ZM111.826 61.5488H135.732L135.838 62.4404H111.997L111.826 61.5488ZM112.034 62.6713H135.861L135.953 63.5629H112.177L112.034 62.6713ZM112.214 63.7985H135.977L136.055 64.69H112.334L112.214 63.7985ZM112.362 64.921H136.074L136.134 65.8125H112.459L112.362 64.921ZM112.482 66.0435H136.152L136.198 66.935H112.556L112.482 66.0435ZM112.57 67.166H136.208L136.24 68.0576H112.621L112.57 67.166ZM112.63 68.2885H136.244L136.263 69.1801H112.658L112.63 68.2885ZM112.658 69.411H136.263V69.9654V70.298H112.662V69.9654L112.658 69.411ZM112.658 70.5336H136.258L136.244 71.4251H112.635L112.658 70.5336ZM112.63 71.6561H136.244L136.217 72.5476H112.589L112.635 71.6561H112.63ZM112.57 72.7786H136.208L136.166 73.6701H112.505L112.575 72.7786H112.57ZM112.482 73.9011H136.147L136.087 74.7926H112.39L112.482 73.9011ZM112.362 75.0236H136.074L136 75.9151H112.251L112.367 75.0236H112.362ZM112.214 76.1461H135.977L135.884 77.0377H112.071L112.21 76.1461H112.214ZM112.034 77.2686H135.861L135.755 78.1602H111.868L112.034 77.2686ZM111.822 78.3911H135.727L135.607 79.2827H111.637L111.826 78.3911H111.822ZM111.582 79.5137H135.575L135.441 80.4052H111.369L111.586 79.5137H111.582ZM111.309 80.6362H135.404L135.251 81.5277H111.069L111.309 80.6362ZM111.004 81.7587H135.21L135.043 82.6502H110.736L111.004 81.7587ZM110.662 82.8812H134.997L134.817 83.7727H110.371L110.662 82.8812ZM110.288 84.0037H134.762L134.563 84.8953H109.965L110.288 84.0037ZM109.877 85.1262H134.508L134.295 86.0178H109.526L109.877 85.1262ZM109.429 86.2534H134.235L134.004 87.1449H109.05L109.429 86.2534ZM108.944 87.3759H133.939L133.69 88.2674H108.537L108.948 87.3759H108.944ZM108.422 88.4984H133.621L133.357 89.3899H107.978L108.422 88.4984ZM107.858 89.6209H133.283L133.002 90.5124H107.382L107.858 89.6209ZM107.253 90.7434H132.923L132.623 91.635H106.74L107.253 90.7434ZM106.602 91.8659H132.544L132.226 92.7575H106.057L106.606 91.8659H106.602ZM105.904 92.9884H132.138L131.801 93.88H105.318L105.909 92.9884H105.904ZM105.156 94.1109H131.708L131.348 95.0025H104.523C104.736 94.7069 104.948 94.4112 105.156 94.1109ZM104.357 95.2335H131.26L130.886 96.125H103.682C103.913 95.834 104.135 95.5337 104.357 95.2335ZM103.498 96.356H130.78L130.387 97.2475H102.772L103.498 96.356ZM102.578 97.4785H130.276L129.865 98.37H101.802C102.066 98.0744 102.324 97.7788 102.583 97.4785H102.578ZM101.59 98.601H129.754L129.32 99.4925H100.758C101.04 99.2015 101.322 98.9013 101.594 98.601H101.59ZM100.527 99.7235H129.195L128.738 100.615H99.645L99.6404 100.606C99.9406 100.315 100.236 100.024 100.527 99.7235ZM99.802 100.846H128.618L128.137 101.738H100.393L99.802 100.846ZM100.55 101.969H128.008L127.505 102.86H101.142L100.55 101.969ZM101.299 103.091H127.371L126.849 103.983H101.895L101.303 103.091H101.299ZM102.047 104.214H126.705L126.156 105.105H102.638L102.047 104.214ZM102.795 105.336H126.008L125.435 106.228H103.387L102.795 105.336ZM103.544 106.459H125.283L124.682 107.35H104.14L103.548 106.459H103.544ZM104.292 107.581H124.52L123.892 108.473H104.888L104.292 107.581ZM105.04 108.708H123.721L123.065 109.6H105.632L105.036 108.708H105.04ZM105.789 109.831H122.89L122.206 110.722H106.38L105.784 109.831H105.789ZM106.542 110.953H122.026L121.31 111.845H107.138L106.546 110.953H106.542ZM107.29 112.076H121.116L120.363 112.967H107.881L107.29 112.076ZM108.038 113.198H120.164L119.384 114.09H108.63L108.038 113.198ZM108.787 114.321H119.171L118.349 115.212H109.378L108.787 114.321ZM109.535 115.443H118.132L117.268 116.335H110.126L109.535 115.443ZM110.283 116.566H117.042L116.141 117.457H110.879L110.288 116.566H110.283ZM111.032 117.688H115.896C115.582 117.989 115.272 118.289 114.954 118.58H111.628L111.036 117.688H111.032ZM111.78 118.811H114.695L113.702 119.702H112.376L111.785 118.811H111.78ZM112.528 119.933H113.434L112.861 120.428L112.533 119.933H112.528ZM69.0831 73.0373V91.3532C69.6882 91.3994 70.2841 91.3947 70.8893 91.3578V73.0835C70.2841 73.0465 69.6836 73.0557 69.0831 73.0326V73.0373ZM64.6346 72.3767C49.5846 68.307 49.5846 47.0901 64.6346 43.0204V40.0917C64.6346 37.1492 69.0831 37.1492 69.0831 40.0917V42.3645C69.6882 42.3368 70.2841 42.3368 70.8893 42.3691V40.0917C70.8893 37.1492 75.3377 37.1492 75.3377 40.0917V43.1544C81.7356 45.1223 86.8493 50.5454 86.8493 57.7009C86.8493 61.7706 80.6593 61.7706 80.6593 57.7009C80.6593 54.0608 78.3634 51.2984 75.3377 49.7971V67.5448C90.3877 71.6145 90.3831 92.8314 75.3377 96.9011V99.8298C75.3377 102.772 70.8893 102.772 70.8893 99.8298V97.557C70.2841 97.5847 69.6882 97.5847 69.0831 97.5524V99.8298C69.0831 102.772 64.6346 102.772 64.6346 99.8298V96.7671C58.2367 94.7992 53.1231 89.3761 53.1231 82.2206C53.1231 78.1509 59.313 78.1509 59.313 82.2206C59.313 85.8607 61.6089 88.6231 64.6346 90.1244V72.3767ZM70.8893 48.5683C70.2841 48.5221 69.6882 48.5268 69.0831 48.5637V66.838C69.6882 66.875 70.2887 66.8658 70.8893 66.8889V48.5729V48.5683ZM64.6346 49.6354C57.7055 52.8967 57.7055 62.4958 64.6346 65.7617V49.6354ZM75.3377 90.2815C82.2668 87.0156 82.2668 77.4165 75.3377 74.1552V90.2815ZM135.783 45.926C138.513 53.4048 140 61.4795 140 69.9053C140 92.8083 129.001 113.143 112.002 125.915L94.6884 99.9499C103.354 92.8175 108.879 82.0081 108.879 69.9053C108.879 65.8356 108.256 61.9091 107.091 58.2229L135.778 45.9307L135.783 45.926ZM73.8734 0C99.705 1.41354 121.804 16.8331 132.715 38.7937L104.029 51.0905C97.9912 40.1887 86.877 32.4928 73.8734 31.1994V0ZM77.6289 4.08816V27.9335C89.0573 30.0076 99.1368 36.6872 105.544 46.351L127.468 36.9505C117.023 18.7455 98.5271 6.49487 77.6243 4.08355L77.6289 4.08816Z" fill="#4FBBC3"/>
</svg>
