<svg version="1.1" id="Layer_1" xmlns="http://www.w3.org/2000/svg" xmlns:xlink="http://www.w3.org/1999/xlink" x="0px" y="0px"
	 width="100%" viewBox="0 0 908 212" enable-background="new 0 0 908 212" xml:space="preserve">
<path fill="#FEFEFF" opacity="1.000000" stroke="none" 
	d="
M673.000000,213.000000 
	C448.716614,213.000000 224.933228,213.000000 1.074926,213.000000 
	C1.074926,142.399124 1.074926,71.798141 1.074926,1.098581 
	C303.666656,1.098581 606.333313,1.098581 908.973633,1.098581 
	C908.973633,71.733406 908.973633,142.366714 908.973633,213.000000 
	C830.464783,213.000000 751.982422,213.000000 673.000000,213.000000 
M762.082825,163.890961 
	C770.287292,161.170959 774.943359,155.247635 776.790771,147.068405 
	C778.511169,139.451324 780.030701,131.782104 781.393555,124.092407 
	C784.237305,108.046928 787.070740,91.996750 789.619629,75.902786 
	C791.628906,63.216248 786.357910,54.486012 774.515808,53.353340 
	C758.182007,51.791042 741.699158,51.786591 725.015442,51.104012 
	C718.125183,89.884102 711.414062,127.655678 704.621582,165.885437 
	C719.740601,165.885437 734.367371,166.015015 748.989136,165.802444 
	C753.101501,165.742661 757.199219,164.678497 762.082825,163.890961 
M351.390015,146.952911 
	C353.335388,136.199768 355.280762,125.446609 357.210999,114.777267 
	C364.397797,114.865768 365.647400,116.179764 364.548889,122.831581 
	C362.196716,137.074371 359.677582,151.289581 357.184784,165.760223 
	C366.534058,165.760223 375.642609,165.760223 385.198944,165.760223 
	C387.636688,150.725586 390.188263,135.822098 392.399384,120.868248 
	C393.106506,116.085808 390.962250,112.056686 386.873169,109.360786 
	C385.119965,108.204910 383.096680,107.458656 380.728577,106.296936 
	C387.688812,104.956390 394.096130,102.945145 395.931000,95.926033 
	C398.139709,87.477020 400.190430,78.780975 400.576263,70.114708 
	C401.030029,59.922359 395.157166,53.582581 385.001129,52.962856 
	C369.744690,52.031914 354.421021,52.201340 339.125397,51.930809 
	C338.855682,51.926044 338.579712,52.271294 338.166748,52.546444 
	C331.492950,90.147560 324.799500,127.859360 318.084320,165.693588 
	C328.378052,165.693588 338.123138,165.693588 348.102936,165.693588 
	C349.162231,159.576385 350.182251,153.686035 351.390015,146.952911 
M618.543945,127.896545 
	C618.436462,123.480843 619.526184,118.538925 617.882141,114.798584 
	C616.263184,111.115326 611.873474,108.649918 609.057983,105.988968 
	C614.357422,105.046173 620.741943,103.172218 622.614258,96.457306 
	C625.002014,87.894142 627.131897,79.012611 627.485779,70.192581 
	C627.907104,59.688568 622.082214,54.123505 611.492737,52.806820 
	C605.730286,52.090332 599.880798,51.913189 594.065369,51.820259 
	C584.464478,51.666832 574.859375,51.778595 565.210327,51.778595 
	C558.411133,90.091866 551.714722,127.826103 544.984375,165.751251 
	C555.254761,165.751251 565.027405,165.751251 574.963989,165.751251 
	C578.041992,148.595673 581.087402,131.621902 584.117065,114.735878 
	C591.344788,114.922401 592.502258,116.053055 591.474365,122.378952 
	C589.133667,136.783249 586.610901,151.157944 584.125183,165.761490 
	C593.486389,165.761490 602.595459,165.761490 611.947998,165.761490 
	C614.096680,153.323715 616.217590,141.047104 618.543945,127.896545 
M652.086060,162.690048 
	C652.967224,159.485687 653.868896,156.286804 654.725586,153.075912 
	C656.899597,144.927444 656.891846,144.920349 665.227051,145.408936 
	C665.701904,145.436768 666.165894,145.650696 667.152466,145.918488 
	C666.591553,152.420013 666.027588,158.957199 665.454102,165.604248 
	C675.739319,165.604248 685.779358,165.604248 695.955322,165.604248 
	C697.024719,127.529884 698.083923,89.817642 699.154175,51.712391 
	C685.862976,51.712391 673.235352,51.891800 660.618164,51.606441 
	C656.674438,51.517250 655.223083,52.988506 654.140625,56.519642 
	C645.230896,85.584457 636.133728,114.591812 627.115234,143.623367 
	C624.860718,150.881119 622.685547,158.163498 620.311829,165.967239 
	C630.281433,165.967239 639.575500,166.044144 648.864319,165.859695 
	C649.903748,165.839081 650.913757,164.336075 652.086060,162.690048 
M411.864502,89.486771 
	C411.400238,98.174065 414.777893,104.974014 421.773956,110.120155 
	C426.334839,113.475029 430.795288,116.971321 435.219696,120.505730 
	C443.570312,127.176598 445.290710,134.425842 440.961243,144.133682 
	C439.537659,147.325699 437.295685,149.538513 433.622833,148.789673 
	C429.544891,147.958298 430.621826,144.492691 430.934631,141.852386 
	C431.588501,136.332840 432.572510,130.852417 433.441193,125.224777 
	C423.934509,125.224777 415.005341,125.224777 405.439056,125.224777 
	C404.628418,132.317169 403.576538,139.218872 403.110931,146.159912 
	C402.487457,155.454453 406.906219,162.374100 415.588623,164.981537 
	C422.594757,167.085571 430.256317,168.108414 437.570587,167.870819 
	C456.698639,167.249527 467.565826,157.239838 470.968536,138.510361 
	C471.206573,137.200119 471.430084,135.886520 471.702667,134.583359 
	C474.763977,119.946976 471.315369,107.902550 458.063019,99.567795 
	C453.981995,97.001114 450.122711,94.071236 446.241180,91.200462 
	C440.203003,86.734589 439.000183,76.338600 444.167450,70.921288 
	C445.400726,69.628387 448.073578,68.925591 449.848938,69.247879 
	C450.802734,69.421005 451.898773,72.383026 451.807983,74.024529 
	C451.591705,77.934402 450.708130,81.807358 450.020111,86.163597 
	C454.884766,86.163597 459.356018,86.163589 463.827240,86.163589 
	C468.449951,86.163589 473.072632,86.163597 478.147644,86.163597 
	C478.800323,79.702415 479.560638,73.777313 479.955566,67.827950 
	C480.374146,61.521702 477.510620,56.567207 471.869568,54.092354 
	C466.924408,51.922821 461.565643,50.213902 456.229401,49.501484 
	C433.462646,46.462002 418.020355,56.752201 413.378204,77.685799 
	C412.589417,81.242928 412.381775,84.928925 411.864502,89.486771 
M798.517151,110.965370 
	C795.293335,129.122238 792.069519,147.279114 788.792664,165.734467 
	C806.305725,165.734467 823.404480,165.734467 840.765015,165.734467 
	C842.091431,158.168274 843.389343,150.765228 844.760498,142.944031 
	C837.197327,142.944031 830.231384,142.944031 822.864075,142.944031 
	C824.382812,134.448959 825.831604,126.344994 827.324951,117.991745 
	C833.644470,117.991745 839.609192,117.991745 845.949890,117.991745 
	C847.248047,110.653526 848.502258,103.563828 849.845398,95.971382 
	C843.344788,95.971382 837.395691,95.971382 831.172546,95.971382 
	C832.533630,88.560844 833.809937,81.611595 835.120117,74.477783 
	C842.111633,74.477783 848.396912,74.477783 854.950867,74.477783 
	C856.303406,66.898186 857.606384,59.596230 858.967468,51.968796 
	C842.104309,51.968796 825.687500,51.968796 808.957397,51.968796 
	C805.524780,71.485039 802.126343,90.806770 798.517151,110.965370 
M227.543198,71.971626 
	C221.998352,103.165482 216.453506,134.359344 210.882095,165.702606 
	C221.264587,165.702606 231.026520,165.702606 240.876358,165.702606 
	C243.724869,149.770935 246.529846,134.082809 249.420822,117.913605 
	C255.676041,117.913605 261.753143,117.913605 267.893982,117.913605 
	C269.190216,110.434547 270.398865,103.460983 271.692535,95.996689 
	C265.342865,95.996689 259.556702,95.996689 253.306168,95.996689 
	C254.651627,88.563293 255.909103,81.615913 257.211517,74.420349 
	C264.469391,74.420349 271.076355,74.420349 277.859314,74.420349 
	C279.204773,66.796219 280.490082,59.513000 281.828400,51.929344 
	C264.690887,51.929344 248.091843,51.929344 231.109222,51.929344 
	C229.973083,58.421860 228.860870,64.777618 227.543198,71.971626 
M527.398560,105.984848 
	C529.288635,95.577057 531.178650,85.169273 533.111572,74.525452 
	C539.341125,74.525452 544.965149,74.525452 550.780151,74.525452 
	C552.129333,66.901245 553.421753,59.597736 554.769531,51.981483 
	C532.744324,51.981483 511.167664,51.981483 489.278381,51.981483 
	C487.987091,59.480003 486.732758,66.763924 485.344910,74.823318 
	C491.619049,74.823318 497.162079,74.823318 502.916168,74.823318 
	C497.477905,105.535385 492.162781,135.552124 486.836853,165.629913 
	C497.302277,165.629913 507.040253,165.629913 516.869263,165.629913 
	C520.352661,145.821060 523.780823,126.326385 527.398560,105.984848 
M317.898132,79.352036 
	C319.445221,70.368729 320.992279,61.385414 322.658295,51.711514 
	C313.734894,51.711514 305.290924,51.865799 296.857391,51.636539 
	C293.422913,51.543179 292.438751,52.812717 291.877289,56.068485 
	C287.444824,81.770218 282.769226,107.429909 278.204865,133.109024 
	C276.290466,143.879669 274.464386,154.666031 272.553833,165.701370 
	C282.752014,165.701370 292.489899,165.701370 302.461731,165.701370 
	C307.586182,137.055679 312.671326,108.629486 317.898132,79.352036 
M34.633064,92.216621 
	C51.252728,87.601860 67.872391,82.987106 85.012672,78.227791 
	C93.002213,114.434631 100.925880,150.342987 108.849556,186.251343 
	C108.983658,186.187744 109.117760,186.124146 109.251862,186.060562 
	C109.251862,134.048248 109.251862,82.035950 109.251862,29.107300 
	C83.134163,50.307129 57.719135,70.936600 32.030018,91.788551 
	C32.997444,92.022812 33.470928,92.137459 34.633064,92.216621 
M119.835785,135.499985 
	C119.835785,151.963638 119.835785,168.427277 119.835785,184.890930 
	C120.135590,184.904587 120.435402,184.918228 120.735207,184.931885 
	C128.546097,149.438736 136.356979,113.945595 144.223083,78.201492 
	C161.613678,83.021019 178.519714,87.706253 195.425735,92.391487 
	C195.632065,91.878479 195.838379,91.365463 196.044708,90.852455 
	C170.952286,70.477234 145.859863,50.102005 119.835724,28.970224 
	C119.835724,64.988525 119.835724,99.744247 119.835785,135.499985 
z"/>
<path fill="#2C538F" opacity="1.000000" stroke="none" 
	d="
M761.693237,163.983002 
	C757.199219,164.678497 753.101501,165.742661 748.989136,165.802444 
	C734.367371,166.015015 719.740601,165.885437 704.621582,165.885437 
	C711.414062,127.655678 718.125183,89.884102 725.015442,51.104012 
	C741.699158,51.786591 758.182007,51.791042 774.515808,53.353340 
	C786.357910,54.486012 791.628906,63.216248 789.619629,75.902786 
	C787.070740,91.996750 784.237305,108.046928 781.393555,124.092407 
	C780.030701,131.782104 778.511169,139.451324 776.790771,147.068405 
	C774.943359,155.247635 770.287292,161.170959 761.693237,163.983002 
M749.659302,134.070236 
	C752.859314,115.729675 756.128967,97.400848 759.221802,79.042221 
	C760.314148,72.558380 758.172974,70.695656 751.315491,71.851364 
	C746.958252,96.395729 742.586121,121.023834 738.207214,145.690125 
	C745.799927,146.360794 747.151184,144.993988 749.659302,134.070236 
z"/>
<path fill="#2C548F" opacity="1.000000" stroke="none" 
	d="
M351.296143,147.374298 
	C350.182251,153.686035 349.162231,159.576385 348.102936,165.693588 
	C338.123138,165.693588 328.378052,165.693588 318.084320,165.693588 
	C324.799500,127.859360 331.492950,90.147560 338.166748,52.546444 
	C338.579712,52.271294 338.855682,51.926044 339.125397,51.930809 
	C354.421021,52.201340 369.744690,52.031914 385.001129,52.962856 
	C395.157166,53.582581 401.030029,59.922359 400.576263,70.114708 
	C400.190430,78.780975 398.139709,87.477020 395.931000,95.926033 
	C394.096130,102.945145 387.688812,104.956390 380.728577,106.296936 
	C383.096680,107.458656 385.119965,108.204910 386.873169,109.360786 
	C390.962250,112.056686 393.106506,116.085808 392.399384,120.868248 
	C390.188263,135.822098 387.636688,150.725586 385.198944,165.760223 
	C375.642609,165.760223 366.534058,165.760223 357.184784,165.760223 
	C359.677582,151.289581 362.196716,137.074371 364.548889,122.831581 
	C365.647400,116.179764 364.397797,114.865768 357.210999,114.777267 
	C355.280762,125.446609 353.335388,136.199768 351.296143,147.374298 
M361.136169,91.663086 
	C361.025635,93.223221 360.915131,94.783348 360.798309,96.431946 
	C368.116333,95.895126 369.266083,95.039040 370.706421,88.883995 
	C371.425568,85.810867 371.866364,82.670120 372.372253,79.550102 
	C373.412842,73.132866 372.165924,71.696533 364.902283,71.436897 
	C363.708008,77.836411 362.496948,84.325989 361.136169,91.663086 
z"/>
<path fill="#2C548F" opacity="1.000000" stroke="none" 
	d="
M618.441162,128.333511 
	C616.217590,141.047104 614.096680,153.323715 611.947998,165.761490 
	C602.595459,165.761490 593.486389,165.761490 584.125183,165.761490 
	C586.610901,151.157944 589.133667,136.783249 591.474365,122.378952 
	C592.502258,116.053055 591.344788,114.922401 584.117065,114.735878 
	C581.087402,131.621902 578.041992,148.595673 574.963989,165.751251 
	C565.027405,165.751251 555.254761,165.751251 544.984375,165.751251 
	C551.714722,127.826103 558.411133,90.091866 565.210327,51.778595 
	C574.859375,51.778595 584.464478,51.666832 594.065369,51.820259 
	C599.880798,51.913189 605.730286,52.090332 611.492737,52.806820 
	C622.082214,54.123505 627.907104,59.688568 627.485779,70.192581 
	C627.131897,79.012611 625.002014,87.894142 622.614258,96.457306 
	C620.741943,103.172218 614.357422,105.046173 609.057983,105.988968 
	C611.873474,108.649918 616.263184,111.115326 617.882141,114.798584 
	C619.526184,118.538925 618.436462,123.480843 618.441162,128.333511 
M589.275635,84.752243 
	C588.683411,88.590065 588.091248,92.427879 587.482971,96.369690 
	C594.927368,96.047157 596.150940,95.152725 597.634583,88.772636 
	C598.345947,85.713600 598.794189,82.587929 599.250366,79.476128 
	C600.207947,72.944481 599.078003,71.671303 591.821411,71.467766 
	C591.052429,75.559227 590.266907,79.738632 589.275635,84.752243 
z"/>
<path fill="#2C538F" opacity="1.000000" stroke="none" 
	d="
M652.011719,163.105286 
	C650.913757,164.336075 649.903748,165.839081 648.864319,165.859695 
	C639.575500,166.044144 630.281433,165.967239 620.311829,165.967239 
	C622.685547,158.163498 624.860718,150.881119 627.115234,143.623367 
	C636.133728,114.591812 645.230896,85.584457 654.140625,56.519642 
	C655.223083,52.988506 656.674438,51.517250 660.618164,51.606441 
	C673.235352,51.891800 685.862976,51.712391 699.154175,51.712391 
	C698.083923,89.817642 697.024719,127.529884 695.955322,165.604248 
	C685.779358,165.604248 675.739319,165.604248 665.454102,165.604248 
	C666.027588,158.957199 666.591553,152.420013 667.152466,145.918488 
	C666.165894,145.650696 665.701904,145.436768 665.227051,145.408936 
	C656.891846,144.920349 656.899597,144.927444 654.725586,153.075912 
	C653.868896,156.286804 652.967224,159.485687 652.011719,163.105286 
M667.923584,97.322449 
	C665.255676,106.389778 662.587830,115.457108 659.868958,124.697723 
	C663.545349,124.697723 666.764038,124.697723 670.144531,124.697723 
	C671.197815,111.103691 672.224731,97.850159 673.251648,84.596634 
	C672.825562,84.532623 672.399414,84.468620 671.973267,84.404610 
	C670.677490,88.449387 669.381714,92.494156 667.923584,97.322449 
z"/>
<path fill="#2C548F" opacity="1.000000" stroke="none" 
	d="
M411.885071,89.021072 
	C412.381775,84.928925 412.589417,81.242928 413.378204,77.685799 
	C418.020355,56.752201 433.462646,46.462002 456.229401,49.501484 
	C461.565643,50.213902 466.924408,51.922821 471.869568,54.092354 
	C477.510620,56.567207 480.374146,61.521702 479.955566,67.827950 
	C479.560638,73.777313 478.800323,79.702415 478.147644,86.163597 
	C473.072632,86.163597 468.449951,86.163589 463.827240,86.163589 
	C459.356018,86.163589 454.884766,86.163597 450.020111,86.163597 
	C450.708130,81.807358 451.591705,77.934402 451.807983,74.024529 
	C451.898773,72.383026 450.802734,69.421005 449.848938,69.247879 
	C448.073578,68.925591 445.400726,69.628387 444.167450,70.921288 
	C439.000183,76.338600 440.203003,86.734589 446.241180,91.200462 
	C450.122711,94.071236 453.981995,97.001114 458.063019,99.567795 
	C471.315369,107.902550 474.763977,119.946976 471.702667,134.583359 
	C471.430084,135.886520 471.206573,137.200119 470.968536,138.510361 
	C467.565826,157.239838 456.698639,167.249527 437.570587,167.870819 
	C430.256317,168.108414 422.594757,167.085571 415.588623,164.981537 
	C406.906219,162.374100 402.487457,155.454453 403.110931,146.159912 
	C403.576538,139.218872 404.628418,132.317169 405.439056,125.224777 
	C415.005341,125.224777 423.934509,125.224777 433.441193,125.224777 
	C432.572510,130.852417 431.588501,136.332840 430.934631,141.852386 
	C430.621826,144.492691 429.544891,147.958298 433.622833,148.789673 
	C437.295685,149.538513 439.537659,147.325699 440.961243,144.133682 
	C445.290710,134.425842 443.570312,127.176598 435.219696,120.505730 
	C430.795288,116.971321 426.334839,113.475029 421.773956,110.120155 
	C414.777893,104.974014 411.400238,98.174065 411.885071,89.021072 
z"/>
<path fill="#2C548F" opacity="1.000000" stroke="none" 
	d="
M798.622559,110.546936 
	C802.126343,90.806770 805.524780,71.485039 808.957397,51.968796 
	C825.687500,51.968796 842.104309,51.968796 858.967468,51.968796 
	C857.606384,59.596230 856.303406,66.898186 854.950867,74.477783 
	C848.396912,74.477783 842.111633,74.477783 835.120117,74.477783 
	C833.809937,81.611595 832.533630,88.560844 831.172546,95.971382 
	C837.395691,95.971382 843.344788,95.971382 849.845398,95.971382 
	C848.502258,103.563828 847.248047,110.653526 845.949890,117.991745 
	C839.609192,117.991745 833.644470,117.991745 827.324951,117.991745 
	C825.831604,126.344994 824.382812,134.448959 822.864075,142.944031 
	C830.231384,142.944031 837.197327,142.944031 844.760498,142.944031 
	C843.389343,150.765228 842.091431,158.168274 840.765015,165.734467 
	C823.404480,165.734467 806.305725,165.734467 788.792664,165.734467 
	C792.069519,147.279114 795.293335,129.122238 798.622559,110.546936 
z"/>
<path fill="#2C548F" opacity="1.000000" stroke="none" 
	d="
M227.645935,71.552505 
	C228.860870,64.777618 229.973083,58.421860 231.109222,51.929344 
	C248.091843,51.929344 264.690887,51.929344 281.828400,51.929344 
	C280.490082,59.513000 279.204773,66.796219 277.859314,74.420349 
	C271.076355,74.420349 264.469391,74.420349 257.211517,74.420349 
	C255.909103,81.615913 254.651627,88.563293 253.306168,95.996689 
	C259.556702,95.996689 265.342865,95.996689 271.692535,95.996689 
	C270.398865,103.460983 269.190216,110.434547 267.893982,117.913605 
	C261.753143,117.913605 255.676041,117.913605 249.420822,117.913605 
	C246.529846,134.082809 243.724869,149.770935 240.876358,165.702606 
	C231.026520,165.702606 221.264587,165.702606 210.882095,165.702606 
	C216.453506,134.359344 221.998352,103.165482 227.645935,71.552505 
z"/>
<path fill="#2C548F" opacity="1.000000" stroke="none" 
	d="
M527.303711,106.408279 
	C523.780823,126.326385 520.352661,145.821060 516.869263,165.629913 
	C507.040253,165.629913 497.302277,165.629913 486.836853,165.629913 
	C492.162781,135.552124 497.477905,105.535385 502.916168,74.823318 
	C497.162079,74.823318 491.619049,74.823318 485.344910,74.823318 
	C486.732758,66.763924 487.987091,59.480003 489.278381,51.981483 
	C511.167664,51.981483 532.744324,51.981483 554.769531,51.981483 
	C553.421753,59.597736 552.129333,66.901245 550.780151,74.525452 
	C544.965149,74.525452 539.341125,74.525452 533.111572,74.525452 
	C531.178650,85.169273 529.288635,95.577057 527.303711,106.408279 
z"/>
<path fill="#2C548F" opacity="1.000000" stroke="none" 
	d="
M317.827332,79.777664 
	C312.671326,108.629486 307.586182,137.055679 302.461731,165.701370 
	C292.489899,165.701370 282.752014,165.701370 272.553833,165.701370 
	C274.464386,154.666031 276.290466,143.879669 278.204865,133.109024 
	C282.769226,107.429909 287.444824,81.770218 291.877289,56.068485 
	C292.438751,52.812717 293.422913,51.543179 296.857391,51.636539 
	C305.290924,51.865799 313.734894,51.711514 322.658295,51.711514 
	C320.992279,61.385414 319.445221,70.368729 317.827332,79.777664 
z"/>
<path fill="#315892" opacity="1.000000" stroke="none" 
	d="
M34.288738,92.234367 
	C33.470928,92.137459 32.997444,92.022812 32.030018,91.788551 
	C57.719135,70.936600 83.134163,50.307129 109.251862,29.107300 
	C109.251862,82.035950 109.251862,134.048248 109.251862,186.060562 
	C109.117760,186.124146 108.983658,186.187744 108.849556,186.251343 
	C100.925880,150.342987 93.002213,114.434631 85.012672,78.227791 
	C67.872391,82.987106 51.252728,87.601860 34.288738,92.234367 
z"/>
<path fill="#2C548F" opacity="1.000000" stroke="none" 
	d="
M119.835754,134.999969 
	C119.835724,99.744247 119.835724,64.988525 119.835724,28.970224 
	C145.859863,50.102005 170.952286,70.477234 196.044708,90.852455 
	C195.838379,91.365463 195.632065,91.878479 195.425735,92.391487 
	C178.519714,87.706253 161.613678,83.021019 144.223083,78.201492 
	C136.356979,113.945595 128.546097,149.438736 120.735207,184.931885 
	C120.435402,184.918228 120.135590,184.904587 119.835785,184.890930 
	C119.835785,168.427277 119.835785,151.963638 119.835754,134.999969 
z"/>
<path fill="#F8FAFB" opacity="1.000000" stroke="none" 
	d="
M749.533752,134.465454 
	C747.151184,144.993988 745.799927,146.360794 738.207214,145.690125 
	C742.586121,121.023834 746.958252,96.395729 751.315491,71.851364 
	C758.172974,70.695656 760.314148,72.558380 759.221802,79.042221 
	C756.128967,97.400848 752.859314,115.729675 749.533752,134.465454 
z"/>
<path fill="#F6F8FA" opacity="1.000000" stroke="none" 
	d="
M361.210999,91.239326 
	C362.496948,84.325989 363.708008,77.836411 364.902283,71.436897 
	C372.165924,71.696533 373.412842,73.132866 372.372253,79.550102 
	C371.866364,82.670120 371.425568,85.810867 370.706421,88.883995 
	C369.266083,95.039040 368.116333,95.895126 360.798309,96.431946 
	C360.915131,94.783348 361.025635,93.223221 361.210999,91.239326 
z"/>
<path fill="#F7F8FB" opacity="1.000000" stroke="none" 
	d="
M589.378540,84.335144 
	C590.266907,79.738632 591.052429,75.559227 591.821411,71.467766 
	C599.078003,71.671303 600.207947,72.944481 599.250366,79.476128 
	C598.794189,82.587929 598.345947,85.713600 597.634583,88.772636 
	C596.150940,95.152725 594.927368,96.047157 587.482971,96.369690 
	C588.091248,92.427879 588.683411,88.590065 589.378540,84.335144 
z"/>
<path fill="#F6F8FA" opacity="1.000000" stroke="none" 
	d="
M668.004761,96.930687 
	C669.381714,92.494156 670.677490,88.449387 671.973267,84.404610 
	C672.399414,84.468620 672.825562,84.532623 673.251648,84.596634 
	C672.224731,97.850159 671.197815,111.103691 670.144531,124.697723 
	C666.764038,124.697723 663.545349,124.697723 659.868958,124.697723 
	C662.587830,115.457108 665.255676,106.389778 668.004761,96.930687 
z"/>
</svg>