<?xml version="1.0" encoding="utf-8"?>
<!-- Generator: Adobe Illustrator 26.5.0, SVG Export Plug-In . SVG Version: 6.00 Build 0)  -->
<svg version="1.0" id="katman_1" xmlns="http://www.w3.org/2000/svg" xmlns:xlink="http://www.w3.org/1999/xlink" x="0px" y="0px"
	 viewBox="0 0 686 534" style="enable-background:new 0 0 686 534;" xml:space="preserve">
<style type="text/css">
	.st0{clip-path:url(#SVGID_00000182519184546696324940000002559439220434484908_);fill:#0052D9;}
	.st1{clip-path:url(#SVGID_00000182519184546696324940000002559439220434484908_);fill:#FFFFFF;}
	.st2{clip-path:url(#SVGID_00000182519184546696324940000002559439220434484908_);fill:#323439;}
</style>
<g>
	<defs>
		<rect id="SVGID_1_" x="93" y="17" width="500" height="500"/>
	</defs>
	<clipPath id="SVGID_00000112617377038722553360000007472129226949715360_">
		<use xlink:href="#SVGID_1_"  style="overflow:visible;"/>
	</clipPath>
	<path style="clip-path:url(#SVGID_00000112617377038722553360000007472129226949715360_);fill:#0052D9;" d="M211.87,207.49H109.02
		c-4.45,0.02-8.06,3.63-8.06,8.09v102.85c0,4.47,3.62,8.09,8.09,8.09H211.9c4.47,0,8.09-3.63,8.09-8.09V215.57
		c0-4.47-3.63-8.09-8.1-8.09H211.87z"/>
	<path style="clip-path:url(#SVGID_00000112617377038722553360000007472129226949715360_);fill:#FFFFFF;" d="M180.32,284.18
		c0,0.36-0.07,0.71-0.21,1.04c-0.42,0.99-1.39,1.63-2.46,1.63h-14.52c-1.48,0.01-2.68-1.18-2.69-2.66v-0.01v-14.52
		c0-1.49,1.2-2.69,2.69-2.7h14.52c1.48,0,2.67,1.2,2.67,2.67V284.18z"/>
	<path style="clip-path:url(#SVGID_00000112617377038722553360000007472129226949715360_);fill:#FFFFFF;" d="M200.14,244.57
		c0,1.47-1.19,2.66-2.66,2.66h-42.06c-8.18,0-14.8,6.63-14.8,14.8v0.03v42.06c0,1.47-1.19,2.66-2.66,2.66h-14.55
		c-1.47,0-2.66-1.19-2.66-2.66v-47.08c0-16.39,13.29-29.67,29.67-29.67h47.09c1.47,0,2.66,1.19,2.66,2.66L200.14,244.57z"/>
	<path style="clip-path:url(#SVGID_00000112617377038722553360000007472129226949715360_);fill:#323439;" d="M334.01,275.97
		c0.02,18.86,15.31,34.15,34.17,34.18h8.39c18.87-0.02,34.16-15.31,34.18-34.18v-49.22c0-1.62-1.31-2.92-2.92-2.92h-13.09
		c-1.62,0-2.93,1.31-2.93,2.92v51.19c0.01,10.74-8.69,19.45-19.43,19.46c-10.74,0.01-19.45-8.69-19.46-19.43v-0.03v-51.19
		c0-1.6-1.29-2.91-2.9-2.92h-13.1c-1.61,0-2.92,1.31-2.92,2.92V275.97z"/>
	<path style="clip-path:url(#SVGID_00000112617377038722553360000007472129226949715360_);fill:#323439;" d="M524.31,223.82h-13.08
		c-1.61,0-2.92,1.31-2.92,2.92v49.22c0.02,18.86,15.3,34.15,34.17,34.18h8.4c18.86-0.03,34.14-15.32,34.16-34.18v-49.22
		c0-1.61-1.31-2.92-2.92-2.92h-13.1c-1.61,0-2.92,1.31-2.92,2.92v51.19c0,10.74-8.71,19.44-19.44,19.44
		c-10.74,0-19.44-8.7-19.44-19.44v-51.19C527.2,225.14,525.91,223.84,524.31,223.82"/>
	<path style="clip-path:url(#SVGID_00000112617377038722553360000007472129226949715360_);fill:#323439;" d="M249.94,249.21v60.94
		h6.3c6.95-0.03,12.57-5.65,12.59-12.59V276.2c0-0.08,0.06-0.14,0.14-0.14h41.98c6.92-0.01,12.54-5.57,12.63-12.49h-54.57
		c-0.07,0-0.14-0.05-0.14-0.12v-0.02v-15.17c0.01-6.59,5.35-11.94,11.94-11.95h30.14c6.92-0.01,12.54-5.57,12.63-12.49H275.3
		C261.3,223.85,249.96,235.2,249.94,249.21"/>
	<path style="clip-path:url(#SVGID_00000112617377038722553360000007472129226949715360_);fill:#323439;" d="M421.16,226.75v6.62
		c0,1.61,1.3,2.92,2.92,2.93h25.75c0.08,0,0.14,0.06,0.14,0.14v70.78c0,1.61,1.31,2.93,2.92,2.93h13.07c1.61,0,2.92-1.31,2.92-2.93
		v-70.77c0-0.08,0.06-0.14,0.14-0.14h16.04c6.91-0.02,12.51-5.58,12.59-12.49h-73.57C422.47,223.83,421.16,225.14,421.16,226.75"/>
</g>
</svg>
