<svg width="472" height="100" viewBox="0 0 472 100" fill="none" xmlns="http://www.w3.org/2000/svg">
<path d="M133.867 42.1073L133.792 47.515V47.5901C136.095 47.49 137.948 47.4399 139.35 47.4399H156.775C156.775 49.2926 156.7 50.7196 156.549 51.721C155.948 55.5765 153.395 57.5043 148.888 57.5043H128.91C126.757 57.5043 125.067 56.8784 123.84 55.6266C122.613 54.3748 122 52.6724 122 50.5193V6.50644L122.526 5.98069H154.897C155.197 7.43276 155.348 9.01001 155.348 10.7124C155.348 12.4149 154.997 14.1924 154.296 16.0451H133.792L133.867 21.4528V26.7103C135.169 26.6602 136.871 26.6352 138.974 26.6352H150.466C150.916 28.0372 151.142 29.6395 151.142 31.4421C151.142 33.2446 150.916 34.897 150.466 36.3991H133.867V42.1073ZM176.979 48.3412L183.513 19.8755C184.915 19.5751 186.492 19.4249 188.245 19.4249C190.398 19.4249 192.275 19.7253 193.878 20.3262L194.253 20.8519C189.146 39.4785 185.666 51.6209 183.813 57.279C181.26 57.5794 178.568 57.7296 175.739 57.7296C172.91 57.7296 170.895 57.3416 169.693 56.5654C168.491 55.7893 167.565 54.2997 166.914 52.0966L157.901 20.7017C160.355 19.6502 162.533 19.1245 164.436 19.1245C166.338 19.1245 167.815 19.5376 168.867 20.3637C169.918 21.1899 170.695 22.6044 171.195 24.6073L174.575 38.6524C174.825 39.6037 175.376 42.633 176.227 47.7403C176.278 48.1409 176.528 48.3412 176.979 48.3412ZM227.075 42.3326H207.472C207.572 44.5858 208.148 46.3383 209.2 47.5901C210.251 48.8419 211.979 49.4678 214.382 49.4678C215.584 49.4678 216.973 49.2926 218.55 48.9421C220.128 48.5916 221.943 48.0157 223.996 47.2146C225.648 48.917 226.675 51.2203 227.075 54.1245C223.069 56.9785 218.162 58.4056 212.354 58.4056C209.2 58.4056 206.558 57.9049 204.43 56.9034C202.302 55.902 200.575 54.5 199.248 52.6974C197.921 50.8949 196.982 48.7668 196.431 46.3133C195.881 43.8598 195.605 41.181 195.605 38.2768C195.605 35.4728 195.943 32.8816 196.619 30.5032C197.295 28.1248 198.322 26.0594 199.699 24.3069C201.075 22.5544 202.828 21.1774 204.956 20.176C207.084 19.1745 209.575 18.6738 212.429 18.6738C214.833 18.6738 216.998 19.0744 218.926 19.8755C220.854 20.6767 222.494 21.7783 223.845 23.1803C225.197 24.5823 226.236 26.2597 226.962 28.2124C227.688 30.1652 228.052 32.2933 228.052 34.5966C228.052 37.6509 227.726 40.2296 227.075 42.3326ZM207.397 34.221H217.311V33.3949C217.311 31.5422 216.898 30.015 216.072 28.8133C215.246 27.6116 214.006 27.0107 212.354 27.0107C210.752 27.0107 209.563 27.574 208.786 28.7006C208.01 29.8273 207.547 31.6674 207.397 34.221ZM232.933 25.2082C233.184 24.2067 233.66 23.0926 234.361 21.8659C235.062 20.6391 235.763 19.7504 236.464 19.1996C241.07 19.5501 244.275 21.8283 246.077 26.0343C247.98 21.5279 251.109 19.2747 255.466 19.2747C256.768 19.2747 258.42 19.475 260.423 19.8755C260.423 21.4278 260.16 23.2679 259.634 25.3959C259.108 27.524 258.395 29.3391 257.494 30.8412C256.642 30.5408 255.366 30.2904 253.663 30.0901C251.16 30.0901 249.107 31.367 247.504 33.9206V57.279C245.852 57.5794 243.912 57.7296 241.683 57.7296C239.455 57.7296 237.49 57.5794 235.788 57.279V33.0193C235.788 29.264 234.836 26.6602 232.933 25.2082ZM300.004 21.0021L290.766 56.3026C289.314 61.7103 287.386 65.8662 284.983 68.7704C282.229 72.0751 277.998 73.7275 272.29 73.7275C269.235 73.7275 266.206 73.2268 263.202 72.2253C263.051 70.8734 263.202 69.3587 263.652 67.6813C264.103 66.0039 264.729 64.7146 265.53 63.8133C267.783 64.5644 270.036 64.9399 272.29 64.9399C275.995 64.9399 278.449 62.912 279.65 58.8562L279.951 57.8047C275.594 57.8047 272.991 56.2275 272.139 53.073L263.427 20.7017C265.73 19.6502 267.883 19.1245 269.886 19.1245C271.889 19.1245 273.354 19.5 274.28 20.2511C275.206 21.0021 275.895 22.304 276.345 24.1567L279.8 38.5773C280.151 39.9292 280.727 43.2339 281.528 48.4914C281.578 48.8419 281.778 49.0172 282.129 49.0172L288.663 19.8755C289.865 19.525 291.492 19.3498 293.545 19.3498C295.848 19.3498 297.851 19.6252 299.554 20.176L300.004 21.0021ZM328.996 19.7253C329.296 21.1273 329.446 22.5293 329.446 23.9313C329.446 25.3333 329.296 26.7103 328.996 28.0622L320.058 27.912V45.1867C320.058 47.5401 321.16 48.7167 323.363 48.7167H327.569C328.22 50.5193 328.545 52.1717 328.545 53.6738C328.545 55.176 328.445 56.2525 328.245 56.9034C324.539 57.4041 321.134 57.6545 318.03 57.6545C311.721 57.6545 308.567 54.1745 308.567 47.2146V27.9871L302.708 28.0622C302.358 26.8104 302.182 25.446 302.182 23.9689C302.182 22.4918 302.358 21.0773 302.708 19.7253L308.567 19.8755V15.5193C308.567 12.9657 309.055 11.1506 310.031 10.074C311.008 8.9975 312.647 8.45923 314.951 8.45923H319.532L320.058 8.98498V19.8755L328.996 19.7253ZM332.976 25.2082C333.227 24.2067 333.702 23.0926 334.403 21.8659C335.104 20.6391 335.805 19.7504 336.506 19.1996C341.113 19.5501 344.318 21.8283 346.12 26.0343C348.023 21.5279 351.152 19.2747 355.509 19.2747C356.81 19.2747 358.463 19.475 360.466 19.8755C360.466 21.4278 360.203 23.2679 359.677 25.3959C359.151 27.524 358.438 29.3391 357.536 30.8412C356.685 30.5408 355.408 30.2904 353.706 30.0901C351.202 30.0901 349.15 31.367 347.547 33.9206V57.279C345.895 57.5794 343.955 57.7296 341.726 57.7296C339.498 57.7296 337.533 57.5794 335.83 57.279V33.0193C335.83 29.264 334.879 26.6602 332.976 25.2082ZM396.142 51.8712C395.891 52.9227 395.416 54.0494 394.715 55.2511C394.014 56.4528 393.288 57.329 392.536 57.8798C389.031 57.7797 386.328 56.4528 384.425 53.8991C381.17 56.9034 377.64 58.4056 373.835 58.4056C371.882 58.4056 370.18 58.0926 368.727 57.4667C367.275 56.8408 366.049 56.0021 365.047 54.9506C364.046 53.8991 363.295 52.6849 362.794 51.3079C362.293 49.931 362.043 48.4914 362.043 46.9893C362.043 44.8362 362.431 42.946 363.207 41.3187C363.983 39.6913 365.047 38.3394 366.399 37.2629C367.751 36.1863 369.328 35.3727 371.131 34.8219C372.933 34.2711 374.861 33.9957 376.914 33.9957C378.066 33.9957 379.08 34.0082 379.956 34.0333C380.832 34.0583 381.596 34.0958 382.247 34.1459V32.7189C382.247 29.5644 380.619 27.9871 377.365 27.9871C375.262 27.9871 371.582 28.7883 366.324 30.3906C364.822 28.6381 363.871 25.9092 363.47 22.2039C364.672 21.7532 366.011 21.3276 367.488 20.927C368.965 20.5265 370.48 20.176 372.032 19.8755C373.584 19.5751 375.112 19.3373 376.614 19.162C378.116 18.9868 379.468 18.8991 380.67 18.8991C382.422 18.8991 384.112 19.1495 385.739 19.6502C387.367 20.1509 388.794 20.9145 390.02 21.941C391.247 22.9675 392.224 24.2943 392.95 25.9217C393.676 27.549 394.039 29.4893 394.039 31.7425V46.9893C394.039 49.2926 394.74 50.9199 396.142 51.8712ZM373.459 46.2382C373.459 48.5916 374.811 49.7682 377.515 49.7682C378.917 49.7682 380.494 49.0422 382.247 47.5901V41.5815C381.245 41.5315 380.407 41.4939 379.731 41.4689C379.055 41.4439 378.542 41.4313 378.191 41.4313C375.036 41.4313 373.459 43.0336 373.459 46.2382ZM420.777 36.3991V35.4227C420.777 32.6187 420.476 30.5783 419.876 29.3015C419.275 28.0247 418.148 27.3863 416.496 27.3863C414.743 27.3863 413.516 28.25 412.815 29.9775C412.114 31.7049 411.764 34.5715 411.764 38.5773C411.764 40.5801 411.902 42.2575 412.177 43.6094C412.452 44.9614 412.853 46.0504 413.379 46.8766C413.905 47.7028 414.568 48.3036 415.369 48.6792C416.17 49.0547 417.122 49.2425 418.223 49.2425C419.375 49.2425 420.652 48.9921 422.054 48.4914C423.456 47.9907 424.958 47.1896 426.56 46.088C427.011 46.3383 427.474 46.7014 427.95 47.177C428.425 47.6527 428.863 48.191 429.264 48.7918C429.665 49.3927 430.015 50.0311 430.315 50.7071C430.616 51.383 430.841 52.0215 430.991 52.6223C429.339 54.3748 427.186 55.7768 424.532 56.8283C421.878 57.8798 419.175 58.4056 416.421 58.4056C411.063 58.4056 406.957 56.6531 404.103 53.1481C401.249 49.6431 399.822 44.6609 399.822 38.2017C399.822 34.897 400.285 32.0179 401.211 29.5644C402.138 27.1109 403.364 25.083 404.892 23.4807C406.419 21.8784 408.171 20.6767 410.149 19.8755C412.127 19.0744 414.192 18.6738 416.345 18.6738C418.549 18.6738 420.564 18.9742 422.392 19.5751C424.219 20.176 425.797 21.0272 427.123 22.1288C428.45 23.2303 429.477 24.5447 430.203 26.0719C430.929 27.5991 431.292 29.289 431.292 31.1416C431.292 33.2446 430.678 34.7217 429.452 35.573C428.225 36.4242 426.71 36.8498 424.908 36.8498C423.406 36.8498 422.029 36.6996 420.777 36.3991ZM466.517 42.3326L468.395 47.8154C469.396 51.1202 470.598 53.2482 472 54.1996C469.797 56.6531 467.168 57.8798 464.114 57.8798C462.461 57.8798 461.21 57.4918 460.358 56.7157C459.507 55.9396 458.756 54.5751 458.105 52.6223L455.852 46.1631C455.351 44.6109 454.775 43.5719 454.124 43.0461C453.474 42.5204 452.597 42.2575 451.496 42.2575C450.394 42.2575 449.618 42.2825 449.167 42.3326V57.279C447.515 57.5794 445.612 57.7296 443.459 57.7296C441.306 57.7296 439.403 57.5794 437.751 57.279V2.52575L438.277 2H442.783C445.137 2 446.789 2.52575 447.74 3.57725C448.692 4.62875 449.167 6.45637 449.167 9.06008V32.6438H450.369C451.27 32.6438 451.971 32.1931 452.472 31.2918L456.378 23.7811C457.78 20.927 459.983 19.5 462.987 19.5C464.439 19.5 466.617 19.5501 469.521 19.6502L469.972 20.2511L464.189 31.4421C463.187 33.3448 461.911 34.8219 460.358 35.8734C463.363 36.975 465.416 39.128 466.517 42.3326Z" fill="#4FBBC3"/>
<path d="M163.187 85.0013L157.953 85.0016V88.5351H161.185C161.294 88.5351 161.354 88.5834 161.354 88.704V89.2827C161.354 89.3913 161.294 89.4395 161.185 89.4395H157.953V92.8164H163.187C163.296 92.8164 163.356 92.8767 163.356 92.9851V93.564C163.356 93.6846 163.308 93.7327 163.187 93.7327H157.157C157.048 93.7327 157 93.6726 157 93.5761V84.2412C157 84.1327 157.06 84.0844 157.157 84.0844H163.187C163.295 84.0844 163.356 84.1447 163.356 84.2412V84.8442C163.356 84.9407 163.307 85.0013 163.187 85.0013ZM181.367 84.0848C181.451 84.0848 181.536 84.1693 181.476 84.302L177.025 93.661C176.989 93.7333 176.929 93.7815 176.844 93.7815H176.748C176.675 93.7815 176.615 93.7333 176.579 93.661L172.129 84.2906C172.068 84.1699 172.153 84.0854 172.237 84.0854H173.045C173.142 84.0854 173.178 84.1578 173.226 84.2784L176.796 92.0087L180.378 84.2784C180.426 84.1578 180.462 84.0854 180.559 84.0854L181.367 84.0848ZM196.965 85.0013L191.731 85.0016V88.5351H194.963C195.072 88.5351 195.132 88.5834 195.132 88.704V89.2827C195.132 89.3913 195.072 89.4395 194.963 89.4395H191.731V92.8164H196.965C197.074 92.8164 197.134 92.8767 197.134 92.9851V93.564C197.134 93.6846 197.086 93.7327 196.965 93.7327H190.935C190.827 93.7327 190.778 93.6726 190.778 93.5761V84.2412C190.778 84.1327 190.839 84.0844 190.935 84.0844H196.965C197.074 84.0844 197.134 84.1447 197.134 84.2412V84.8442C197.134 84.9407 197.086 85.0013 196.965 85.0013ZM213.372 93.564C213.432 93.6605 213.396 93.7327 213.287 93.7327H212.66C212.467 93.7327 212.334 93.5761 212.262 93.4675L210.127 90.4404H210.091H207.329V93.564C207.329 93.6726 207.281 93.7327 207.161 93.7327H206.533C206.425 93.7327 206.377 93.6726 206.377 93.564V84.2412C206.377 84.1327 206.425 84.0845 206.533 84.0845H210.091C212.346 84.0845 213.384 85.8332 213.384 87.2684C213.384 88.4985 212.636 89.9216 211.056 90.3317L213.372 93.564ZM207.33 85.0013L207.33 89.5358H210.019C211.66 89.5358 212.443 88.39 212.443 87.2444C212.443 86.1107 211.647 85.0013 210.019 85.0013H207.33ZM230.285 84.0848C230.345 84.0848 230.393 84.1571 230.345 84.2295L226.498 89.7411V93.5642C226.498 93.6727 226.45 93.7329 226.353 93.7329H225.871C225.666 93.7329 225.557 93.6002 225.557 93.3953V89.7411L221.71 84.2295C221.674 84.1571 221.71 84.0848 221.783 84.0848H222.627C222.699 84.0848 222.735 84.133 222.772 84.2054L226.028 88.8124L229.284 84.2054C229.332 84.133 229.357 84.0848 229.429 84.0848L230.285 84.0848ZM246.174 84.0848C246.282 84.0848 246.331 84.133 246.331 84.2416V84.8446C246.331 84.9411 246.282 85.0014 246.174 85.0014H243.062V93.5642C243.062 93.6727 243.014 93.7329 242.917 93.7329H242.435C242.218 93.7329 242.109 93.6003 242.109 93.3953V85.0011H238.998C238.889 85.0011 238.829 84.9408 238.829 84.8444V84.2534C238.829 84.1328 238.889 84.0846 238.998 84.0846L246.174 84.0848ZM263.316 84.0848C263.424 84.0848 263.484 84.1331 263.484 84.2417V93.5766C263.484 93.673 263.436 93.7332 263.34 93.7332H262.857C262.64 93.7332 262.544 93.6006 262.544 93.4076V89.4518H256.453V93.5644C256.453 93.673 256.405 93.7331 256.297 93.7331H255.682C255.561 93.7331 255.513 93.673 255.513 93.5644V84.2416C255.513 84.1331 255.561 84.0849 255.669 84.0849H256.297C256.393 84.0849 256.453 84.1331 256.453 84.2416V88.511H262.544V84.2416C262.544 84.1331 262.592 84.0849 262.688 84.0849L263.316 84.0848ZM273.861 84.0848H273.246C273.138 84.0848 273.089 84.133 273.089 84.2416V93.5764C273.089 93.6729 273.138 93.7331 273.246 93.7331H273.873C273.958 93.7331 274.018 93.6729 274.018 93.5764V84.2416C274.018 84.133 273.958 84.0848 273.861 84.0848ZM291.739 84.0848C291.824 84.0848 291.884 84.1329 291.884 84.2173V93.5999C291.884 93.6844 291.824 93.7325 291.74 93.7325H291.486C291.305 93.7325 291.136 93.612 290.907 93.3588L284.564 85.8697V93.5765C284.564 93.673 284.503 93.7332 284.407 93.7332H283.78C283.671 93.7332 283.623 93.673 283.623 93.5765V84.2295C283.623 84.1451 283.671 84.0848 283.768 84.0848H284.166C284.25 84.0848 284.31 84.121 284.395 84.2175L290.943 91.9962V84.2175C290.943 84.1331 290.992 84.0848 291.076 84.0848L291.739 84.0848ZM309.424 89.8494C309.545 89.8494 309.593 89.8975 309.593 90.0181V92.201H309.581C309.581 92.2492 309.545 92.3216 309.485 92.3819C308.592 93.2743 307.434 93.817 305.999 93.817C303.286 93.817 301.067 91.6703 301.067 88.9206C301.067 86.1829 303.286 84 305.999 84C307.374 84 308.604 84.5306 309.509 85.4351C309.617 85.5437 309.629 85.6281 309.557 85.6884L309.05 86.1105C308.966 86.1829 308.894 86.1829 308.809 86.0984C308.303 85.5679 307.302 84.9167 306.072 84.9167C303.454 84.9167 302.007 87.0393 302.007 88.9207C302.007 90.8262 303.454 92.9005 306.072 92.9005C307.205 92.9005 308.098 92.3699 308.64 91.8754V90.7538H306.096C305.987 90.7538 305.939 90.7055 305.939 90.6091V90.0181C305.939 89.8975 305.987 89.8493 306.096 89.8493L309.424 89.8494ZM336.715 84.0848C336.823 84.0848 336.871 84.133 336.871 84.2416V84.8446C336.871 84.9411 336.823 85.0014 336.715 85.0014H333.603V93.5642C333.603 93.6727 333.555 93.7329 333.458 93.7329H332.976C332.759 93.7329 332.65 93.6003 332.65 93.3953V85.0011H329.539C329.43 85.0011 329.37 84.9408 329.37 84.8444V84.2534C329.37 84.1328 329.43 84.0846 329.539 84.0846L336.715 84.0848ZM352.868 93.564C352.928 93.6605 352.892 93.7327 352.783 93.7327H352.156C351.963 93.7327 351.83 93.5761 351.758 93.4675L349.623 90.4404H349.587H346.825V93.564C346.825 93.6726 346.777 93.7327 346.656 93.7327H346.029C345.921 93.7327 345.872 93.6726 345.872 93.564V84.2412C345.872 84.1327 345.921 84.0845 346.029 84.0845H349.587C351.842 84.0845 352.88 85.8332 352.88 87.2684C352.88 88.4985 352.132 89.9216 350.552 90.3317L352.868 93.564ZM346.826 85.0013L346.826 89.5358H349.515C351.155 89.5358 351.939 88.39 351.939 87.2444C351.939 86.1107 351.143 85.0013 349.515 85.0013H346.826ZM371.216 93.5761C371.265 93.6725 371.241 93.7327 371.132 93.7327H370.397C370.312 93.7327 370.264 93.6966 370.228 93.6242L369.384 91.8272H363.559L362.714 93.6242C362.678 93.6965 362.63 93.7327 362.558 93.7327H361.798C361.713 93.7327 361.665 93.6725 361.713 93.5761L366.236 84.133C366.284 84.0486 366.32 84.0245 366.38 84.0245H366.549C366.61 84.0245 366.658 84.0486 366.694 84.133L371.216 93.5761ZM363.968 90.959H368.973L366.465 85.6525L363.968 90.959ZM387.864 92.1168C387.949 92.177 387.925 92.2735 387.816 92.382C386.923 93.2744 385.766 93.8171 384.331 93.8171C381.617 93.8171 379.398 91.6704 379.398 88.9207C379.398 86.183 381.617 84.0001 384.331 84.0001C385.705 84.0001 386.936 84.5308 387.84 85.4352C387.949 85.5438 387.961 85.6282 387.888 85.6885L387.382 86.1106C387.297 86.183 387.225 86.183 387.141 86.0986C386.634 85.568 385.633 84.9168 384.403 84.9168C381.786 84.9168 380.339 87.0394 380.339 88.9208C380.339 90.8263 381.786 92.9006 384.403 92.9006C385.633 92.9006 386.574 92.2735 387.104 91.7429C387.201 91.6464 387.273 91.6223 387.358 91.6946L387.864 92.1168ZM404.006 93.4192C404.138 93.5518 404.053 93.7329 403.872 93.7329H403.185C403.101 93.7329 403.052 93.7088 402.98 93.6365L398.132 88.8605V93.5761C398.132 93.6726 398.084 93.7327 397.987 93.7327H397.336C397.239 93.7327 397.179 93.6726 397.179 93.5761V84.8083C397.179 84.5911 397.155 84.4344 397.131 84.2655C397.119 84.1569 397.155 84.0846 397.252 84.0846H397.806C398.011 84.0846 398.132 84.1931 398.132 84.3861V88.6554L402.522 84.1811C402.582 84.1208 402.631 84.0846 402.715 84.0846H403.451C403.632 84.0846 403.68 84.2655 403.571 84.3862L399.254 88.764L404.006 93.4192ZM419.327 85.0013L414.093 85.0016V88.5351H417.325C417.434 88.5351 417.494 88.5834 417.494 88.704V89.2827C417.494 89.3913 417.434 89.4395 417.325 89.4395H414.093V92.8164H419.327C419.436 92.8164 419.496 92.8767 419.496 92.9851V93.564C419.496 93.6846 419.448 93.7327 419.327 93.7327H413.297C413.188 93.7327 413.14 93.6726 413.14 93.5761V84.2412C413.14 84.1327 413.2 84.0844 413.297 84.0844H419.327C419.435 84.0844 419.496 84.1447 419.496 84.2412V84.8442C419.496 84.9407 419.447 85.0013 419.327 85.0013ZM432.079 84.0848C435.372 84.0848 437 86.5211 437 88.8486C437 91.3088 435.36 93.7328 432.116 93.7328H428.823C428.715 93.7328 428.666 93.6726 428.666 93.5761V84.2413C428.666 84.1327 428.715 84.0845 428.823 84.0845L432.079 84.0848ZM432.164 92.8164C434.684 92.8164 436.047 90.8384 436.035 88.8485C436.035 86.8706 434.708 85.0014 432.164 85.0014H429.607L429.619 92.8164H432.164Z" fill="#4FBBC3"/>
<path d="M75.3951 93.0806C67.9513 97.4725 59.2767 100 50.0082 100C22.3909 100 0 77.6084 0 49.9901C0 23.3023 20.9028 1.50135 47.23 0.059394V22.3454C33.1904 23.7379 22.2259 35.5837 22.2259 49.9901C22.2259 65.3336 34.6653 77.7734 50.0082 77.7734C54.7134 77.7734 59.1481 76.602 63.0316 74.5364L75.3951 93.0839V93.0806ZM92.8861 37.547H95.6809L95.8491 38.1839H91.4013L92.8861 37.547ZM95.6347 37.382H93.2722L94.757 36.7452H95.4532L95.6347 37.382ZM95.407 36.5802H95.1463L95.3773 36.4812L95.407 36.5802ZM91.012 38.3521H95.892L96.0471 38.989H89.5272L91.012 38.3521ZM89.1378 39.154H96.0867L96.2319 39.7908H87.6563L89.1411 39.154H89.1378ZM87.2637 39.9558H96.2649L96.3969 40.5926H85.7789L87.2637 39.9558ZM85.3895 40.7576H96.4299L96.552 41.3944H83.9047L85.3895 40.7576ZM83.5187 41.5594H96.5817L96.6905 42.1963H82.0306L83.5154 41.5594H83.5187ZM81.6445 42.3612H96.7202L96.8192 42.9981H80.1597L81.6445 42.3612ZM79.7703 43.1631H96.8423L96.9281 43.7999H79.8429L79.711 43.1895L79.7736 43.1631H79.7703ZM79.8759 43.9649H96.9512L97.0271 44.6017H79.998L79.8759 43.9649ZM80.0244 44.7667H97.0436L97.1096 45.4035H80.1267L80.0244 44.7667ZM80.1531 45.5718H97.1261L97.1822 46.2087H80.2389L80.1531 45.5718ZM80.2587 46.3737H97.1954L97.2383 47.0105H80.328L80.2587 46.3737ZM80.3445 47.1755H97.2515L97.2845 47.8123H80.3973L80.3445 47.1755ZM80.4072 47.9773H97.2911L97.3142 48.6141H80.4435L80.4072 47.9773ZM80.4501 48.7791H97.3175L97.3307 49.416H80.4699L80.4501 48.7791ZM80.4699 49.5809H97.3307V49.9769V50.2145H80.4732V49.9769L80.4699 49.5809ZM80.4699 50.3828H97.3273L97.3175 51.0196H80.4534L80.4699 50.3828ZM80.4501 51.1846H97.3175L97.2977 51.8214H80.4204L80.4534 51.1846H80.4501ZM80.4072 51.9864H97.2911L97.2614 52.6232H80.361L80.4105 51.9864H80.4072ZM80.3445 52.7882H97.2482L97.2053 53.4251H80.2785L80.3445 52.7882ZM80.2587 53.5901H97.1954L97.1426 54.2269H80.1795L80.262 53.5901H80.2587ZM80.1531 54.3919H97.1261L97.0601 55.0287H80.0508L80.1498 54.3919H80.1531ZM80.0244 55.1937H97.0436L96.9677 55.8305H79.9056L80.0244 55.1937ZM79.8726 55.9955H96.9479L96.8621 56.6323H79.7407L79.8759 55.9955H79.8726ZM79.7011 56.7973H96.839L96.7433 57.4342H79.5493L79.7044 56.7973H79.7011ZM79.5064 57.5992H96.7169L96.608 58.236H79.3348L79.5064 57.5992ZM79.2886 58.401H96.5784L96.4596 59.0378H79.0972L79.2886 58.401ZM79.0444 59.2028H96.4266L96.2979 59.8396H78.8366L79.0444 59.2028ZM78.7772 60.0046H96.2583L96.1164 60.6415H78.5462L78.7772 60.0046ZM78.4835 60.8064H96.0768L95.925 61.4433H78.2328L78.4835 60.8064ZM78.1635 61.6116H95.8821L95.7172 62.2484H77.8929L78.1635 61.6116ZM77.817 62.4134H95.671L95.4928 63.0502H77.5266L77.8203 62.4134H77.817ZM77.4442 63.2152H95.4433L95.2552 63.852H77.1274L77.4442 63.2152ZM77.0416 64.017H95.2024L95.0012 64.6539H76.7018L77.0416 64.017ZM76.6094 64.8189H94.9451L94.7306 65.4557H76.2431L76.6094 64.8189ZM76.1441 65.6207H94.6745L94.4468 66.2575H75.7548L76.1474 65.6207H76.1441ZM75.6459 66.4225H94.3841L94.1433 67.0593H75.2268L75.6492 66.4225H75.6459ZM75.1114 67.2243H94.0773L93.8199 67.8612H74.6593C74.8111 67.65 74.9629 67.4388 75.1114 67.2243ZM74.5405 68.0261H93.7572L93.49 68.663H74.0588C74.2238 68.4551 74.3822 68.2406 74.5405 68.0261ZM73.9268 68.828H93.4141L93.1336 69.4648H73.4088L73.9268 68.828ZM73.2702 69.6298H93.0544L92.7607 70.2666H72.7159C72.9039 70.0554 73.0887 69.8443 73.2735 69.6298H73.2702ZM72.5641 70.4316H92.6816L92.3714 71.0684H71.9702C72.1714 70.8606 72.3727 70.6461 72.5674 70.4316H72.5641ZM71.8052 71.2334H92.2823L91.9557 71.8703H71.175L71.1717 71.8637C71.3861 71.6558 71.5973 71.4479 71.8052 71.2334ZM71.2872 72.0352H91.8699L91.5267 72.6721H71.7095L71.2872 72.0352ZM71.8217 72.8371H91.4343L91.0747 73.4739H72.244L71.8217 72.8371ZM72.3562 73.6389H90.979L90.6061 74.2757H72.7819L72.3595 73.6389H72.3562ZM72.8908 74.4407H90.5038L90.1112 75.0775H73.3131L72.8908 74.4407ZM73.4253 75.2425H90.0056L89.5965 75.8794H73.8476L73.4253 75.2425ZM73.9598 76.0443H89.4876L89.0586 76.6812H74.3855L73.9631 76.0443H73.9598ZM74.4943 76.8462H88.9432L88.4944 77.483H74.92L74.4943 76.8462ZM75.0289 77.6513H88.3723L87.9038 78.2881H75.4512L75.0256 77.6513H75.0289ZM75.5634 78.4531H87.7784L87.2901 79.09H75.9857L75.5601 78.4531H75.5634ZM76.1012 79.2549H87.1614L86.65 79.8918H76.5269L76.1045 79.2549H76.1012ZM76.6358 80.0568H86.5114L85.9735 80.6936H77.0581L76.6358 80.0568ZM77.1703 80.8586H85.8317L85.274 81.4954H77.5926L77.1703 80.8586ZM77.7048 81.6604H85.1223L84.5349 82.2972H78.1272L77.7048 81.6604ZM78.2393 82.4622H84.3798L83.7628 83.0991H78.6617L78.2393 82.4622ZM78.7739 83.264H83.6012L82.9577 83.9009H79.1995L78.7772 83.264H78.7739ZM79.3084 84.0659H82.7829C82.5585 84.2803 82.3374 84.4948 82.1097 84.7027H79.7341L79.3117 84.0659H79.3084ZM79.8429 84.8677H81.925L81.2156 85.5045H80.2686L79.8462 84.8677H79.8429ZM80.3775 85.6695H81.0242L80.615 86.0226L80.3808 85.6695H80.3775ZM49.345 52.1712V65.2544C49.7773 65.2874 50.2029 65.2841 50.6352 65.2577V52.2042C50.2029 52.1778 49.774 52.1844 49.345 52.1679V52.1712ZM46.1676 51.6993C35.4176 48.7923 35.4176 33.6369 46.1676 30.7299V28.6379C46.1676 26.536 49.345 26.536 49.345 28.6379V30.2613C49.7773 30.2415 50.2029 30.2415 50.6352 30.2646V28.6379C50.6352 26.536 53.8126 26.536 53.8126 28.6379V30.8256C58.3825 32.2312 62.0352 36.1051 62.0352 41.2163C62.0352 44.1233 57.6138 44.1233 57.6138 41.2163C57.6138 38.6161 55.9739 36.6429 53.8126 35.5705V48.2479C64.5626 51.1549 64.5593 66.3103 53.8126 69.2173V71.3093C53.8126 73.4112 50.6352 73.4112 50.6352 71.3093V69.6859C50.2029 69.7057 49.7773 69.7057 49.345 69.6826V71.3093C49.345 73.4112 46.1676 73.4112 46.1676 71.3093V69.1216C41.5976 67.716 37.945 63.8421 37.945 58.7309C37.945 55.8239 42.3664 55.8239 42.3664 58.7309C42.3664 61.3311 44.0063 63.3043 46.1676 64.3767V51.6993ZM50.6352 34.6928C50.2029 34.6598 49.7773 34.6631 49.345 34.6895V47.743C49.7773 47.7694 50.2062 47.7628 50.6352 47.7793V34.6961V34.6928ZM46.1676 35.455C41.2182 37.7846 41.2182 44.6413 46.1676 46.9742V35.455ZM53.8126 64.4889C58.762 62.156 58.762 55.2993 53.8126 52.9697V64.4889ZM96.9875 32.8054C98.9375 38.1476 100 43.9154 100 49.934C100 66.2938 92.1437 80.819 80.0013 89.9426L67.6345 71.3951C73.8245 66.3004 77.7708 58.5792 77.7708 49.934C77.7708 47.027 77.3254 44.2223 76.4939 41.5891L96.9842 32.8087L96.9875 32.8054ZM52.7667 0C71.2179 1.0097 87.003 12.024 94.7966 27.7107L74.3063 36.4944C69.9937 28.7072 62.055 23.2099 52.7667 22.286V0ZM55.4492 2.92021V19.9531C63.6124 21.4347 70.812 26.206 75.3885 33.109L91.0483 26.3941C83.5879 13.3901 70.3765 4.63935 55.4459 2.91691L55.4492 2.92021Z" fill="#4FBBC3"/>
</svg>
