<?xml version="1.0" encoding="UTF-8"?>
<svg width="384.4" height="100" version="1.1" viewBox="0 0 384.39 100" xml:space="preserve" xmlns="http://www.w3.org/2000/svg" xmlns:cc="http://creativecommons.org/ns#" xmlns:dc="http://purl.org/dc/elements/1.1/" xmlns:rdf="http://www.w3.org/1999/02/22-rdf-syntax-ns#"><metadata><rdf:RDF><cc:Work rdf:about=""><dc:format>image/svg+xml</dc:format><dc:type rdf:resource="http://purl.org/dc/dcmitype/StillImage"/><dc:title/></cc:Work></rdf:RDF></metadata><g transform="matrix(2.7473 0 0 2.7473 -.55226 -.54946)"><path d="m135.28 0.2h-130.24c-2.6638 0-4.84 2.175-4.84 4.8338v22.468h139.92v-22.468c0-2.6588-2.18-4.8338-4.84-4.8338" fill="#1a468e"/><path d="m0.2005 31.766c0 2.6588 2.175 4.8338 4.835 4.8338h130.25c2.6588 0 4.8338-2.175 4.8338-4.8338v-4.2662h-139.92v4.2662z" fill="#ed1c24"/><path d="m111.38 9.0506c-1.0212 0-1.8538 0.83-1.8538 1.8538 0 1.03 0.8325 1.8562 1.8538 1.8562 1.0225 0 1.8588-0.82625 1.8588-1.8562 0-1.0238-0.83625-1.8538-1.8588-1.8538m-41.662 0c-1.03 0-1.8562 0.83-1.8562 1.8538 0 1.03 0.82625 1.8562 1.8562 1.8562 1.0188 0 1.8512-0.82625 1.8512-1.8562 0-1.0238-0.8325-1.8538-1.8512-1.8538m-25.459 0.215v1.005h0.70125c0.39625 0 0.98125 0.44875 0.98125 1.06v6.9812c-0.63875-0.88-6.5575-9.06-6.5575-9.06h-4.7362v0.9175h0.36125c0.10375 0.11375 1.0575 1.2412 1.1388 1.3375v11.74c0 0.83-1.0538 0.915-1.3825 0.915h-0.1925v0.95h5.3162v-0.99125h-0.5275c-0.54875 0-1.1762-0.5275-1.1762-0.87375v-9.3588c0.6525 0.88 8.665 11.662 8.665 11.662h1.0862v-14.22c0-0.725 0.39625-1.06 1.2162-1.06h0.2v-1.005h-5.0938zm14.983 14.297c-0.0675 0.0875-0.2025 0.07375-0.30625 0.03-0.155-0.05375-0.30375-0.19-0.30375-0.345v-6.3188c0-1.7788-1.7712-2.9688-4.3838-2.9688-2.2862 0-3.4625 0.8325-3.9612 1.3325l-0.04625 0.05625v3.2738h0.8725l0.03875-0.16375c0.61-2.8288 2.2138-3.0938 2.8725-3.0862 0.5675 0.01875 1.4062 0.53125 1.4062 1.19v1.5525c-3.755 1.055-5.5888 2.64-5.5888 4.8575 0 1.5088 1.09 2.5288 2.7162 2.5288 1.0525 0 2.0338-0.405 2.9975-1.18 0.19875 0.64625 0.95 1.1412 1.8725 1.1412 0.85125 0 1.605-0.4125 2.1312-1.1688l0.03625-0.03875v-1.1125l-0.35375 0.42zm-5.0775-0.1275c-0.32875 0-0.90375-0.2675-0.90375-1.3312 0-1.035 0.92875-2.055 2.1462-2.4538v2.9638c-0.30625 0.57-0.96875 0.82125-1.2425 0.82125m12.257-7.8641v-1.3275h-1.9638v-3.8388h-0.79625l-0.095 0.14c-0.655 1.0188-1.8862 2.9312-3.33 4.0012l-0.0775 0.0575v0.9875h1.0938v7.3262c0 1.62 1.1725 2.4712 2.3525 2.4712 1.035 0 1.7325-0.1925 2.45-1.1912l0.035-0.04625v-0.9225l-0.29125 0.1425c-0.2875 0.14375-0.64125 0.12375-0.94125-0.04375-0.24875-0.16-0.4-0.395-0.4-0.64v-7.1162h1.9638zm5.761 8.5908c-0.2925 0-0.795-0.2425-0.795-0.72625v-9.1925h-3.2788v9.1762c0 0.45125-0.465 0.7625-0.88625 0.7625h-0.18875v0.95875h5.3375v-0.97875h-0.18875zm5.6611-10.262c-2.3475 0-4.8938 2.1938-4.8938 5.74 0 4.59 3.2475 5.7925 4.95 5.7925 1.94 0 4.79-1.7375 4.79-5.48 0-3.45-2.0775-6.0525-4.8462-6.0525m1.4462 6.0775c0 4.0412-0.99125 4.0412-1.4162 4.0412-0.60375 0-1.505 0-1.505-4.1325 0-4.2062 0.76625-4.5525 1.475-4.5525 0.6775 0 1.4462 0.51875 1.4462 4.6438m15.02 4.185c-0.62 0-0.74125-0.2625-0.74125-0.63625v-6.2612c0-1.6312-1.0362-3.3375-2.935-3.3375-1.2962 0-2.2462 0.44625-2.9312 1.28v-0.97h-4.2925v0.9125h0.47c0.0125 0 0.57875 0.105 0.57875 0.6125v7.5962c0 0.5325-0.4875 0.8225-0.93375 0.86125l-0.17375 0.01v0.8825h5.4025v-0.89875h-0.19375c-0.47375 0-0.82375-0.3775-0.82375-0.855v-6.2438c0-0.33 0.755-1.2975 1.5162-1.2975 0.65875 0 0.98 0.47125 0.98 1.39v6.3512c0 0.25625-0.4525 0.62375-0.7625 0.62375h-0.2025v0.93h5.2388v-0.95h-0.19625zm11.224-9.8981v0.85875h0.19c0.24375 0 0.54875 0.08375 0.68376 0.27 0.0487 0.08 0.08 0.1575 0.08 0.24125 0 0.0625-8e-3 0.11625-0.0312 0.1825-0.14125 0.52-1.0062 3.09-1.4138 4.2912-0.325-1.2475-1.0275-3.9675-1.1112-4.335-0.0125-0.04625-0.0175-0.08875-0.0175-0.1425 0-0.09125 0.0187-0.195 0.0813-0.28125 0.13-0.1425 0.36125-0.22625 0.685-0.22625h0.20875v-0.87875h-5.1312v0.90625h0.19375c0.21999 0 0.5775 0.05125 0.6825 0.3375 0 0 0.40125 1.3125 0.4375 1.4325-0.0362 0.12125-0.97125 2.5812-1.2462 3.3375-0.38-1.0775-1.2513-3.5775-1.5188-4.2338-0.0375-0.12-0.09-0.27375-0.09-0.41875 0-0.09375 0.03625-0.17375 0.0775-0.2675 0.095-0.13125 0.29375-0.215 0.51875-0.215h0.20625v-0.91875h-4.8688v0.8575l0.11 0.04875c0.115 0.04 0.405 0.18625 0.51625 0.3775 0.125 0.2625 2.2125 6.0025 3.5812 9.795l0.045 0.12625h1.1212s1.8813-5.2275 2.215-6.1638c0.28625 0.9425 1.8862 6.1638 1.8862 6.1638h1.065l3.2462-9.28c0.26375-0.7275 0.50875-1.0362 0.84374-1.0362h0.20125v-0.82875h-3.4475zm8.3081 9.8981c-0.28375 0-0.79125-0.2425-0.79125-0.72625v-9.1925h-3.2762v9.1762c0 0.45125-0.46125 0.7625-0.88625 0.7625h-0.18625v0.95875h5.34v-0.97875h-0.2zm11.094 0.05075c-0.44875 0-0.77125-0.47875-0.77125-0.91125v-14.036h-4.7725v0.9475h0.67375c0.27125 0 0.91375 0.2675 0.91375 0.75375v3.885c-0.4225-0.4175-1.1688-0.97625-2.29-0.97625-1.6262 0-4.1812 1.6125-4.1812 5.9888 0 4.4112 2.55 5.5675 3.895 5.5675 1.265 0 2.0388-0.46375 2.5212-0.9775v0.65875h4.2112v-0.9h-0.2zm-3.985-7.1938v5.3775c0 0.335-0.96875 1.3188-1.4838 1.3188-1.2862 0-1.5562-2.0675-1.5562-3.8288 0-3.7088 0.805-4.2025 1.605-4.2025 0.78875 0 1.36 1.17 1.435 1.335m13.384 2.5478c0-3.9362-2.0638-5.6912-4.1138-5.6912-1.5475 0-4.4612 1.2175-4.4612 5.8762 0 5.56 4.0525 5.7112 4.525 5.7112 1.7362 0 3.0238-1.0312 3.7862-1.8925l0.0962-0.09625-0.415-0.85625-0.1975 0.14375s-1.0338 0.75375-2.095 0.75375c-1.9788 0-2.3938-1.3762-2.4262-3.7588h5.3012v-0.19zm-5.3012-1.29c0.0325-2.515 0.50375-3.0225 1.2975-3.0225 1.015 0 1.1212 1.2388 1.1288 3.0225h-2.4262z" fill="#fff"/><path d="m27.349 27.486c0.6775 0 1.36-0.2775 1.87-0.7625 0.53375-0.50625 0.84-1.2012 0.84-1.9062v-6.4425c0-0.76625-0.27625-1.4312-0.82-1.9725l-3.6025-3.605c-0.145-0.13625-0.23625-0.32875-0.23625-0.54375v-3.9088c0-0.6775-0.26875-1.3162-0.75625-1.7975-0.48375-0.47625-1.12-0.73875-1.7938-0.73875h-2.8312c-1.3838 0-2.51 1.1375-2.51 2.5362v0.2125h-0.0013c-0.0038 0.1375-0.11625 0.2475-0.255 0.2475v0.00125h-0.4225c-0.485 0-0.9825 0.19125-1.3662 0.52625-0.2225 0.195-0.3975 0.42875-0.515 0.685-0.26625-0.02625-0.55625-0.04-0.7975-0.04-3.98 0-8.17 3.0588-8.17 8.2975 0 4.44 3.715 6.3862 3.9162 6.5288 0.14 0.09875 0.455 0.33 0.455 0.7225v2.4275c0 0.7 0.2775 1.3512 0.78 1.8362 0.48875 0.47125 1.1375 0.73125 1.825 0.73125l9.9488-0.0012c0.68875 0 1.2875-0.2125 1.73-0.61625 0.47625-0.43125 0.73875-1.06 0.73875-1.77v-0.3925c0-0.14 0.11375-0.255 0.255-0.255h1.7188z" fill="#fff"/><path d="m24.742 23.328v-1.2388c0-0.33-0.2675-0.59625-0.59625-0.59625s-0.59625 0.26625-0.59625 0.59625v1.2388c0 0.33 0.2675 0.59625 0.59625 0.59625s0.59625-0.26625 0.59625-0.59625m3.632-6.044-3.784-3.786c-0.226-0.237-0.391-0.548-0.391-0.894v-4.2575c0-0.7375-0.61875-1.3438-1.3562-1.3438h-2.685c-0.736 5e-4 -1.324 0.5943-1.324 1.3293v1.285c0 0.1525-0.11125 0.42625-0.44 0.42625h-1.4288c-0.4025 0-0.82 0.30625-0.86125 0.74875-0.0325 0.3475-0.1475 0.62-0.74375 0.51375-0.0075-0.0013-0.015-0.0025-0.0225-0.0038-0.01375-0.0038-0.0275-5e-3 -0.04125-0.0088l0.0012 0.0013c-0.41375-0.07875-0.84125-0.12-1.2788-0.12-3.78 0-6.8438 3.0638-6.8438 6.845 0 2.2775 1.11 4.2938 2.8225 5.5375l0.0038 0.0025c0.0925 0.06625 0.205 0.105 0.3275 0.105 0.195 0 0.36625-0.1 0.4675-0.25125l3.8775-5.7762s0.405-0.61375 1.1362-0.61375h4.4675c0.23625 0 0.4275-0.19 0.4275-0.42625 0-0.03625-5e-3 -0.0725-0.01375-0.10625-0.4325-1.8937-1.65-3.4887-3.2912-4.4237-0.13875-0.07375-0.2325-0.21875-0.2325-0.385 0-0.2425 0.19625-0.4375 0.4375-0.4375h1.4538c0.53 0 0.97625-0.43125 0.97625-0.97375v-1.6475c0-0.24875 0.19875-0.4275 0.4275-0.4275h2.1275c0.22125 0 0.4125 0.185 0.4125 0.4275v9.1588c0 0.22 0.17125 0.43 0.42625 0.43h3.8112c0.28 0 0.4275 0.23875 0.4275 0.4275v6.0688c0 0.2175-0.15375 0.42625-0.4325 0.42625h-3.3288c-0.57 0-0.93875 0.4775-0.93875 0.93625l-0.0012 1.6325c0 0.26125-0.21 0.42625-0.4275 0.42625h-3.68v-1.8075c0-0.33-0.2675-0.59625-0.5975-0.59625-0.32875 0-0.59625 0.26625-0.59625 0.59625v1.8075h-4.495c-0.21 0-0.42625-0.155-0.42625-0.42625v-2.7425c0-0.25125 0.205-0.42625 0.42625-0.42625h5.2025c0.25625 0 0.47125-0.3075 0.47125-0.3075l3.5812-5.3438c0.2025-0.315-0.08-0.665-0.335-0.665h-6.1075c-0.2425 0-0.345 0.16375-0.465 0.35125l-3.6662 5.4612s-0.3 0.4275-0.3 0.93v2.9938c0 0.775 0.635 1.3738 1.4112 1.3738h10.224c0.45625 0 0.9775-0.35625 0.9775-0.97375v-1.6025c0-0.1825 0.1375-0.425 0.42625-0.425h2.7488c0.775 0 1.5175-0.66875 1.5175-1.4762v-6.4375c0-0.495-0.2025-0.85-0.4825-1.1288" fill="#1a468e"/></g></svg>
