<?xml version="1.0" encoding="utf-8"?>
<!-- Generator: Adobe Illustrator 26.0.3, SVG Export Plug-In . SVG Version: 6.00 Build 0)  -->
<svg version="1.0" id="katman_1" xmlns="http://www.w3.org/2000/svg" xmlns:xlink="http://www.w3.org/1999/xlink" x="0px" y="0px"
	 viewBox="0 0 600 450" style="enable-background:new 0 0 600 450;" xml:space="preserve">
<style type="text/css">
	.st0{fill-rule:evenodd;clip-rule:evenodd;}
	.st1{fill-rule:evenodd;clip-rule:evenodd;fill:#6935D3;}
	.st2{fill-rule:evenodd;clip-rule:evenodd;fill:#FFFFFF;}
</style>
<path class="st0" d="M398.3,297.2v-64.8h10.2v36.6l17.7-17.2h13L420,270.7l19.6,26.5h-12.1L413,277.6l-4.5,4.4v15.2H398.3
	 M348.9,297.2v-45.4h10.3v6.6c1.5-2.6,3.5-4.5,5.9-5.9c2.4-1.4,5.2-2.1,8.4-2.1c5.1,0,9.1,1.7,12,5c2.9,3.3,4.3,7.9,4.3,13.7v28.1
	h-10.4v-27.4c0-3.5-0.8-6.1-2.3-7.9c-1.5-1.8-3.8-2.7-6.9-2.7c-2.1,0-4,0.6-5.7,1.7c-1.7,1.2-3,2.8-3.9,4.9c-1,2.1-1.4,4.5-1.4,7.3
	v24.1H348.9 M317.6,289.8c2.6,0,4.8-0.6,6.7-1.8c1.9-1.2,3.4-3,4.4-5.3c1-2.3,1.6-5,1.6-8.1c0-4.8-1.1-8.5-3.4-11.3
	c-2.3-2.7-5.3-4.1-9.2-4.1c-3.9,0-7,1.4-9.3,4.1c-2.3,2.7-3.4,6.5-3.4,11.3c0,3.1,0.5,5.8,1.6,8.1c1,2.3,2.5,4.1,4.5,5.3
	C312.8,289.2,315.1,289.8,317.6,289.8L317.6,289.8z M315.3,298.6c-4.1,0-7.7-1-10.9-3.1c-3.2-2.1-5.6-4.9-7.4-8.5
	c-1.8-3.6-2.7-7.8-2.7-12.4c0-4.7,0.9-8.9,2.7-12.5c1.8-3.7,4.3-6.5,7.4-8.6c3.2-2.1,6.8-3.1,10.9-3.1c3,0,5.8,0.7,8.4,2
	c2.6,1.3,4.7,3.2,6.5,5.6v-6.2h10.3v45.4h-10.3V291c-1.8,2.4-4,4.3-6.5,5.6C321.2,298,318.4,298.6,315.3,298.6L315.3,298.6z
	 M268.4,288.4c3.2,0,5.7-0.9,7.5-2.6c1.8-1.7,2.7-4.1,2.7-7.1c0-3-0.9-5.4-2.7-7.1c-1.8-1.8-4.3-2.7-7.5-2.7h-18.8v19.5H268.4z
	 M267.4,260.9c2.9,0,5.2-0.8,6.9-2.5c1.7-1.6,2.5-3.8,2.5-6.5c0-2.7-0.8-4.9-2.5-6.4c-1.7-1.6-4-2.3-7.1-2.3h-17.6v17.7H267.4z
	 M239,297.2v-62.9h30.2c3.7,0,6.9,0.7,9.6,2.1c2.7,1.4,4.8,3.4,6.3,5.9c1.4,2.5,2.1,5.3,2.1,8.3c0,3-0.8,5.7-2.3,8.1
	c-1.5,2.3-3.7,4.1-6.3,5.3c3.5,1.2,6.2,3.1,8.1,5.9c1.9,2.7,2.8,5.9,2.8,9.6c0,3.3-0.8,6.4-2.3,9.1c-1.5,2.7-3.7,4.8-6.5,6.3
	c-2.8,1.5-6.1,2.3-9.8,2.3H239z M516.2,207.9c2.6,0,4.8-0.6,6.7-1.8c1.9-1.2,3.3-2.9,4.4-5s1.6-4.8,1.6-7.7c0-4.5-1.1-8.1-3.3-10.7
	c-2.2-2.6-5.3-3.9-9.2-3.9c-3.9,0-7,1.3-9.3,3.9c-2.3,2.6-3.4,6.2-3.4,10.7c0,3,0.5,5.6,1.6,7.7s2.5,3.9,4.4,5
	C511.5,207.3,513.7,207.9,516.2,207.9L516.2,207.9z M516.8,235.4c-5.3,0-9.9-1.2-13.7-3.5c-3.8-2.3-6.4-5.6-7.6-9.8l9.8-2.6
	c0.9,2.4,2.3,4.3,4.4,5.5c2,1.2,4.5,1.9,7.4,1.9c2.5,0,4.6-0.4,6.4-1.3c1.7-0.9,3.1-2.3,4-4c0.9-1.8,1.4-3.9,1.4-6.5v-6
	c-1.8,2.3-3.9,4-6.5,5.3c-2.5,1.3-5.3,1.9-8.4,1.9c-4.1,0-7.7-1-10.8-2.9c-3.2-1.9-5.6-4.6-7.4-8.1c-1.8-3.5-2.7-7.5-2.7-11.9
	s0.9-8.5,2.7-12c1.8-3.5,4.3-6.3,7.4-8.2c3.2-2,6.8-2.9,10.8-2.9c3,0,5.8,0.6,8.4,1.9c2.6,1.2,4.7,3,6.4,5.4v-5.8H539V215
	c0,4.2-0.9,7.9-2.7,10.9c-1.8,3.1-4.4,5.4-7.8,7.1C525.1,234.6,521.2,235.4,516.8,235.4L516.8,235.4z M445.8,217v-45.4h10.3v6.6
	c1.5-2.6,3.5-4.5,5.9-5.9c2.4-1.4,5.2-2.1,8.4-2.1c5.1,0,9.1,1.7,12,5c2.9,3.3,4.3,7.9,4.3,13.7V217h-10.4v-27.4
	c0-3.5-0.8-6.1-2.3-7.9c-1.5-1.8-3.8-2.7-6.9-2.7c-2.1,0-4.1,0.6-5.7,1.7c-1.7,1.2-3,2.8-3.9,4.9c-1,2.1-1.4,4.5-1.4,7.3V217H445.8
	 M427,217h10.4v-45.4H427V217z M432.2,165.4c-1.8,0-3.4-0.7-4.7-2c-1.3-1.3-1.9-2.9-1.9-4.7c0-1.8,0.6-3.4,1.9-4.8
	c1.3-1.3,2.8-2,4.7-2c1.8,0,3.4,0.7,4.8,2c1.3,1.3,2,2.9,2,4.8c0,1.8-0.7,3.4-2,4.7C435.6,164.8,434,165.4,432.2,165.4L432.2,165.4z
	 M408.3,217h10.2v-64.8h-10.2V217z M376.7,217v-45.4H387v7.9c1.2-2.7,2.8-4.8,4.9-6.2c2.1-1.5,4.5-2.2,7.3-2.2c0.6,0,1.1,0,1.6,0
	c0.4,0,0.9,0.1,1.5,0.2v9.7c-0.9-0.2-1.9-0.3-3-0.3c-3.6,0-6.6,1.3-8.8,3.8c-2.2,2.5-3.3,5.9-3.3,10.3V217H376.7 M345.4,209.6
	c2.6,0,4.8-0.6,6.7-1.8c1.9-1.2,3.4-3,4.4-5.3c1-2.3,1.6-5,1.6-8.1c0-4.8-1.1-8.5-3.4-11.3c-2.3-2.7-5.3-4.1-9.2-4.1
	c-3.9,0-7,1.4-9.3,4.1c-2.3,2.7-3.4,6.5-3.4,11.3c0,3.1,0.5,5.8,1.6,8.1c1,2.3,2.5,4.1,4.5,5.3C340.6,209,342.8,209.6,345.4,209.6
	L345.4,209.6z M343.1,218.5c-4.1,0-7.7-1-10.9-3.1c-3.2-2.1-5.6-4.9-7.4-8.5c-1.8-3.6-2.7-7.8-2.7-12.4c0-4.7,0.9-8.9,2.7-12.5
	c1.8-3.7,4.3-6.5,7.4-8.6c3.2-2.1,6.8-3.1,10.9-3.1c3,0,5.8,0.7,8.4,2c2.6,1.3,4.7,3.2,6.5,5.6v-6.2h10.3V217H358v-6.2
	c-1.8,2.4-4,4.3-6.5,5.6C349,217.8,346.2,218.5,343.1,218.5L343.1,218.5z M311.2,218c-4.8,0-8.2-1.1-10.3-3.3
	c-2.1-2.2-3.1-5.4-3.1-9.5v-25.2h-7.1v-8.4h7.1v-11.8h10.3v11.8h9.5v8.4h-9.5v24.7c0,1.6,0.5,2.8,1.4,3.5c1,0.7,2.3,1.1,4.2,1.1
	c1,0,2.2-0.1,3.8-0.3v8.1C315.4,217.7,313.2,218,311.2,218 M261.1,218.5c-4.9,0-9.2-0.8-13-2.5c-3.8-1.7-6.8-4-9.1-7
	c-2.3-3-3.8-6.4-4.5-10.4l10.9-2.8c0.5,2.7,1.5,5,2.9,6.9c1.4,1.9,3.2,3.4,5.4,4.4c2.2,1,4.6,1.5,7.4,1.5c4.1,0,7.4-0.8,10-2.4
	c2.6-1.6,3.9-3.9,3.9-6.9c0-1.9-0.6-3.4-1.7-4.6c-1.1-1.1-2.8-2.1-5-2.8c-2.2-0.7-5.5-1.5-9.7-2.4c-4.9-1.1-8.9-2.3-12-3.7
	c-3.1-1.4-5.6-3.2-7.3-5.6c-1.7-2.3-2.6-5.4-2.6-9.1c0-3.9,1-7.2,3-10c2-2.8,4.8-4.9,8.4-6.4c3.6-1.5,7.8-2.2,12.5-2.2
	c4.3,0,8.1,0.7,11.3,2.2c3.3,1.5,6,3.6,8,6.2c2.1,2.7,3.6,5.7,4.5,9.2l-10.4,2.9c-1-3.6-2.7-6.3-5-8.2c-2.3-1.9-5.2-2.9-8.8-2.9
	c-3.7,0-6.7,0.7-9,2.2c-2.3,1.5-3.4,3.5-3.4,5.9c0,1.7,0.5,3,1.6,4.1c1,1,2.6,1.9,4.6,2.6c2,0.7,4.9,1.4,8.7,2.3
	c5.3,1.1,9.6,2.3,12.9,3.8c3.3,1.4,5.9,3.4,7.8,5.9c1.9,2.5,2.8,5.7,2.8,9.8c0,4-1.1,7.5-3.2,10.5c-2.1,3-5.1,5.3-8.9,6.9
	C270.3,217.7,266,218.5,261.1,218.5"/>
<path class="st1" d="M204.2,224.7c0,40-32.4,72.5-72.5,72.5c-40,0-72.5-32.4-72.5-72.5s32.4-72.5,72.5-72.5
	C171.7,152.3,204.2,184.7,204.2,224.7"/>
<path class="st2" d="M102.9,224.7v-4c0-25,20.3-45.4,45.4-45.4h4v16.4h-4c-15.9,0-28.9,13-28.9,28.9v4H102.9"/>
<path class="st2" d="M160.5,224.7v4c0,25-20.3,45.4-45.4,45.4h-4v-16.4h4c15.9,0,28.9-13,28.9-28.9v-4H160.5"/>
</svg>
