<svg width="157" height="20" viewBox="0 0 157 20" fill="none" xmlns="http://www.w3.org/2000/svg">
<path fill-rule="evenodd" clip-rule="evenodd" d="M151.083 12.62C155.636 11.3111 156.877 9.86257 156.877 5.862C156.877 2.89714 155.566 0 149.98 0C144.738 0 143.29 2.34429 143.084 5.862C143.084 6.27657 143.36 6.55171 143.774 6.55171H146.325C146.808 6.55171 147.015 6.34571 147.084 5.862C147.291 3.93086 148.463 3.448 149.98 3.448C151.635 3.448 152.945 4.00057 152.945 5.862C152.945 8.41457 151.981 8.62057 147.911 9.86257C143.635 11.1031 142.395 13.0337 142.395 16.2071V18.9654C142.395 19.3794 142.601 19.6546 143.084 19.6546H155.497C155.911 19.6546 156.186 19.4477 156.186 18.9654V16.8966C156.186 16.414 155.911 16.2071 155.497 16.2071H146.325C146.325 14.3449 147.291 13.7923 151.083 12.62Z" fill="black"/>
<path fill-rule="evenodd" clip-rule="evenodd" d="M137.554 16.2066V0.826865C137.554 0.344579 137.209 0.136865 136.727 0.275722L130.658 2.55172C130.313 2.68886 130.106 2.96486 130.106 3.31001V5.72286C130.106 6.20715 130.451 6.41258 130.933 6.27629L133.692 5.22343V16.2066H130.106C129.623 16.2066 129.416 16.4829 129.416 16.896V18.9649C129.416 19.3791 129.623 19.654 130.106 19.654H139.761C140.175 19.654 140.451 19.4474 140.451 18.9649V16.896C140.451 16.4137 140.175 16.2066 139.761 16.2066H137.554Z" fill="black"/>
<path fill-rule="evenodd" clip-rule="evenodd" d="M122.3 12.62C126.853 11.3111 128.094 9.86257 128.094 5.862C128.094 2.89714 126.783 0 121.198 0C115.957 0 114.508 2.34429 114.3 5.862C114.3 6.27657 114.576 6.55171 114.992 6.55171H117.543C118.025 6.55171 118.232 6.34571 118.301 5.862C118.509 3.93086 119.68 3.448 121.198 3.448C122.853 3.448 124.164 4.00057 124.164 5.862C124.164 8.41457 123.198 8.62057 119.128 9.86257C114.853 11.1031 113.611 13.0337 113.611 16.2071V18.9654C113.611 19.3794 113.819 19.6546 114.3 19.6546H126.714C127.129 19.6546 127.404 19.4477 127.404 18.9654V16.8966C127.404 16.414 127.129 16.2071 126.714 16.2071H117.543C117.543 14.3449 118.509 13.7923 122.3 12.62Z" fill="black"/>
<path fill-rule="evenodd" clip-rule="evenodd" d="M83.0929 1.03403V8.75861L83.3381 12.6226L76.6107 0.826322C76.4041 0.482607 76.1969 0.34375 75.7827 0.34375H73.1627C72.6795 0.34375 72.4727 0.620036 72.4727 1.03403V18.9649C72.4727 19.3792 72.6795 19.654 73.1627 19.654H75.6449C76.0589 19.654 76.3338 19.3792 76.3338 18.9649V11.2403L76.0895 7.37575L82.8167 19.172C83.0244 19.5163 83.2312 19.654 83.6444 19.654H86.2652C86.6789 19.654 86.9549 19.4475 86.9549 18.9649V1.03403C86.9549 0.55175 86.6789 0.34375 86.2652 0.34375H83.7829C83.3001 0.34375 83.0929 0.55175 83.0929 1.03403Z" fill="black"/>
<path fill-rule="evenodd" clip-rule="evenodd" d="M68.749 18.9649V1.03403C68.749 0.551465 68.4733 0.34375 68.0593 0.34375H65.5764C65.0939 0.34375 64.8867 0.61975 64.8867 1.03403V18.9649C64.8867 19.3789 65.0939 19.654 65.5764 19.654H68.0593C68.4733 19.654 68.749 19.3789 68.749 18.9649Z" fill="black"/>
<path fill-rule="evenodd" clip-rule="evenodd" d="M38.2677 4.85158L40.9568 10.827C41.0951 11.241 41.3697 11.3799 41.7154 11.3799H44.2674C44.8188 11.3799 45.0248 11.035 44.8188 10.5522L40.4737 0.896155C40.336 0.483298 40.0597 0.344727 39.7154 0.344727H36.8194C36.474 0.344727 36.1985 0.483298 36.06 0.896155L31.7154 10.5522C31.5085 11.035 31.7154 11.3799 32.2668 11.3799H34.8185C35.1637 11.3799 35.4394 11.241 35.5774 10.827L38.2677 4.85158Z" fill="#00A7E1"/>
<path fill-rule="evenodd" clip-rule="evenodd" d="M22.8172 8.89599H20.1281V3.7917H22.8172C25.1624 3.7917 26.1286 4.48256 26.1286 6.34456C26.1286 8.20542 25.1624 8.89599 22.8172 8.89599ZM26.7708 11.7626C29.5373 10.7409 30.0588 8.52261 30.0588 6.34461C30.0588 3.37889 29.0939 0.34375 22.8171 0.34375H16.9565C16.4728 0.34375 16.2656 0.620036 16.2656 1.03403V18.9649C16.2656 19.3789 16.4728 19.654 16.9565 19.654H19.4382C19.8522 19.654 20.1279 19.3789 20.1279 18.9649V12.3435L23.0125 12.3432L25.8519 19.1032C25.9899 19.5163 26.2656 19.654 26.6111 19.654H29.1619C29.7148 19.654 29.9205 19.3092 29.7148 18.8266L26.7708 11.7626Z" fill="black"/>
<path fill-rule="evenodd" clip-rule="evenodd" d="M13.37 0.34375H0.956602C0.473172 0.34375 0.266602 0.551465 0.266602 1.03403V3.10232C0.266602 3.51575 0.542601 3.79175 0.956602 3.79175H5.23232V18.9649C5.23232 19.3789 5.43917 19.654 5.92175 19.654H8.40489C8.8186 19.654 9.09432 19.3789 9.09432 18.9649V3.79175H13.37C13.7835 3.79175 14.0592 3.51575 14.0592 3.10232V1.03403C14.0592 0.551465 13.7835 0.34375 13.37 0.34375Z" fill="black"/>
<path fill-rule="evenodd" clip-rule="evenodd" d="M104.129 9.30971H98.2665C97.7851 9.30971 97.5774 9.51686 97.5774 10V12.0697C97.5774 12.4823 97.7851 12.7589 98.2665 12.7589H100.888V13.4477C100.888 15.9989 99.9208 16.552 97.5774 16.552C95.2325 16.552 94.2665 15.9989 94.2665 13.4477V6.55171C94.2665 3.99971 95.2325 3.448 97.5774 3.448C99.7145 3.448 100.68 3.93086 100.888 5.86143C100.888 6.34514 101.094 6.55171 101.577 6.55171H104.129C104.543 6.55171 104.818 6.276 104.818 5.86143C104.68 2.34429 103.439 0 97.5774 0C91.3014 0 90.3359 2.68857 90.3359 6.34514V13.654C90.3359 17.3106 91.3014 20 97.5774 20C103.852 20 104.818 17.3106 104.818 13.654V10C104.818 9.51686 104.543 9.30971 104.129 9.30971Z" fill="black"/>
<path fill-rule="evenodd" clip-rule="evenodd" d="M57.5088 13.1022C57.5088 15.6545 56.543 16.2065 54.1979 16.2065H51.5082V3.7919H54.1979C56.543 3.7919 57.5088 4.34447 57.5088 6.8959V13.1022ZM54.1979 0.34375H48.3359C47.8533 0.34375 47.6465 0.61975 47.6465 1.03375V18.9649C47.6465 19.3789 47.8533 19.654 48.3359 19.654H54.1979C60.4736 19.654 61.4388 16.9646 61.4388 13.31V6.68861C61.4388 3.03318 60.4736 0.34375 54.1979 0.34375Z" fill="black"/>
</svg>
